<svg version="1.1" id="Layer_1" xmlns="http://www.w3.org/2000/svg" x="0" y="0" viewBox="0 0 35.5 30.3" xml:space="preserve"><style>.st0{fill:#fff}</style><g id="Group_49" transform="translate(3.055 3.055)"><path class="st0" d="M0 26.4c-.6 0-1.1-.2-1.5-.6-.8-.8-.8-2.2 0-3.1L9 12.1-1.5 1.5c-.8-.8-.8-2.2 0-3.1.8-.8 2.2-.8 3.1 0L15.2 12 1.5 25.7c-.4.4-.9.7-1.5.7z" id="Path_69"/><path class="st0" d="M30.2 25.5H18.1c-1.2 0-2.2-1-2.2-2.2s1-2.2 2.2-2.2h12.1c1.2 0 2.2 1 2.2 2.2s-1 2.2-2.2 2.2z" id="Line_4"/></g></svg>