<svg xmlns="http://www.w3.org/2000/svg" viewBox="0 0 47 27"><path d="M6.4 27h-.2C3 26.7.4 24.1 0 20.8v-6.9c0-1.1.9-2 2-2s2 .9 2 2v6.6c.2 1.2 1.1 2.3 2.4 2.5 1.2-.2 2.2-1.2 2.4-2.5V6.2C9.1 3 11.7.4 15 0h.4c3.2.3 5.8 2.9 6.2 6.2V20.5c.2 1.1 1.1 2 2.2 2.1 1.3-.3 2.4-1.5 2.5-2.9v-3.2c.3-3.2 2.9-5.8 6.2-6.2h.4c3.2.3 5.8 2.9 6.2 6.2v3.6c.1 1.2 1 2.2 2.1 2.5.9-.1 1.7-.8 1.8-1.7v-5.4c0-1.1.9-2 2-2s2 .9 2 2v5.8c-.4 3-2.9 5.3-5.9 5.4h-.4c-3-.6-5.3-3.1-5.6-6.2v-3.6c-.2-1.3-1.1-2.3-2.4-2.5-1.2.2-2.2 1.2-2.4 2.5v3.2c-.3 3.3-2.8 6-6 6.6h-.4c-3.3-.1-5.9-2.5-6.3-5.8V6.5c-.2-1.3-1.1-2.3-2.4-2.5-1.2.2-2.2 1.2-2.4 2.5v14.3c-.3 3.2-2.9 5.8-6.2 6.2h-.2z" fill="#fff"/></svg>