<svg xmlns="http://www.w3.org/2000/svg" width="49.46" height="40.572" viewBox="0 0 49.46 40.572"><path data-name="Combined Shape" d="M29.076 40.572a.966.966 0 010-1.932H42.7a4.845 4.845 0 004.733-3.865H31.492v.967a.968.968 0 01-.967.967H18.933a.967.967 0 01-.966-.967v-.966H2.029a4.846 4.846 0 004.733 3.864h13.62a.966.966 0 110 1.932H6.762A6.769 6.769 0 010 33.81a.967.967 0 01.966-.967H2.9V14.49a2.9 2.9 0 012.9-2.9h2.508V6.762a.966.966 0 01.966-.962h2.9V.966A.966.966 0 0113.569.1l11.16 5.58L35.889.1a.966.966 0 011.4.864V5.8h2.9a.966.966 0 01.966.966v4.83h2.512a2.9 2.9 0 012.9 2.9v18.348h1.931a.968.968 0 01.967.967 6.77 6.77 0 01-6.765 6.761zM4.83 14.49v18.354h14.1a.968.968 0 01.967.967v.966h9.66v-.967a.967.967 0 01.966-.967h14.1V14.49a.966.966 0 00-.966-.966h-2.505v12.558a.966.966 0 01-.966.966H9.274a.966.966 0 01-.966-.966V13.524H5.8a.966.966 0 00-.97.966zm32.458 5.8a.961.961 0 01-.535.864l-7.932 3.966h10.4V7.728h-1.933zm-27.049 4.83h10.4l-7.934-3.97a.961.961 0 01-.534-.864V7.728h-1.932zM25.7 7.359v17.16l9.66-4.829V2.529zm-11.6 12.33l9.66 4.829V7.359l-9.66-4.83zm9.66 19.917a.966.966 0 11.966.966.967.967 0 01-.962-.966zm-4.83-8.694a.966.966 0 010-1.932h11.595a.966.966 0 110 1.932z" fill="#fff"/></svg>