<svg xmlns="http://www.w3.org/2000/svg" width="368.35" height="88.609" viewBox="0 0 368.35 88.609"><g data-name="Dark logo transparent" fill="#7459ed"><path d="M349.072 77.024h-6.7a.672.672 0 01-.671-.671v-43.9a.673.673 0 01.671-.672h4.416a1.024 1.024 0 01.816.4l1.632 2.16a.426.426 0 00.334.168.393.393 0 00.322-.168 7.034 7.034 0 016.064-3.28c6.574 0 11.728 5.053 12.255 12.016a81.158 81.158 0 01-.015 9.856c-.528 6.963-5.683 12.016-12.256 12.016-2.9 0-4.3-.729-5.52-1.823a.383.383 0 00-.266-.107.409.409 0 00-.407.41v12.923a.673.673 0 01-.675.672zm5.888-38.191c-3.121 0-5.039 1.528-5.263 4.192a85.139 85.139 0 000 9.92c.159 1.912 1.2 4.192 5.263 4.192 3.005 0 5.04-1.646 5.184-4.192a78.549 78.549 0 000-9.92c-.145-2.547-2.179-4.193-5.184-4.193zm-56.128 26.1c-7.388 0-12.544-4.61-13.456-12.031a48.037 48.037 0 010-9.824c.928-7.422 6.059-12.032 13.392-12.032 7.387 0 12.543 4.61 13.456 12.032a48.035 48.035 0 010 9.824c-.928 7.416-6.059 12.026-13.392 12.026zm-.06-25.813c-3.3 0-4.9 1.168-5.328 3.9a41.318 41.318 0 000 9.951c.368 2.627 2.111 3.9 5.328 3.9 3.178 0 4.992-1.314 5.392-3.9a41.412 41.412 0 000-9.951c-.403-2.586-2.217-3.9-5.392-3.9zm-30.468 25.808c-7.388 0-12.544-4.61-13.456-12.031a48.036 48.036 0 010-9.824c.928-7.422 6.084-12.032 13.456-12.032a14.978 14.978 0 015.449.974 12.09 12.09 0 014.214 2.725 12.384 12.384 0 013.505 9.004v.383a.673.673 0 01-.672.672h-6.351a.662.662 0 01-.672-.608.657.657 0 00-.008-.092v-.03c0-.03-.005-.057-.005-.087-.192-3.171-2.1-4.847-5.52-4.847-3.333 0-4.977 1.2-5.328 3.9a49.023 49.023 0 000 9.936c.3 2.6 2.118 3.92 5.392 3.92 3.327 0 4.958-1.445 5.456-4.832a8.7 8.7 0 01.049-.272.67.67 0 01.671-.576h6.336a.673.673 0 01.672.672v.383c-.004 8.314-6.636 12.662-13.188 12.662zm-30.976 0c-7.388 0-12.544-4.61-13.456-12.031a48.035 48.035 0 010-9.824c.928-7.422 6.059-12.032 13.392-12.032 7.387 0 12.543 4.61 13.456 12.032a47.91 47.91 0 010 9.824c-.928 7.421-6.059 12.031-13.392 12.031zm-.064-25.807c-3.3 0-4.9 1.168-5.328 3.9a41.412 41.412 0 000 9.951c.368 2.627 2.111 3.9 5.328 3.9 3.178 0 4.993-1.314 5.392-3.9a41.318 41.318 0 000-9.951c-.4-2.587-2.214-3.901-5.392-3.901zm-62.592 25.807c-7.388 0-12.544-4.61-13.456-12.031a48.035 48.035 0 010-9.824c.928-7.422 6.059-12.032 13.392-12.032 7.387 0 12.542 4.61 13.456 12.032a47.91 47.91 0 010 9.824c-.928 7.421-6.06 12.031-13.392 12.031zm-.064-25.807c-3.3 0-4.9 1.168-5.328 3.9a41.412 41.412 0 000 9.951c.385 2.627 2.128 3.9 5.328 3.9 3.178 0 4.993-1.314 5.392-3.9a41.318 41.318 0 000-9.951c-.4-2.587-2.214-3.901-5.392-3.901zM207.6 64.912a7.036 7.036 0 01-6.064-3.28.423.423 0 00-.335-.162.389.389 0 00-.321.162l-1.632 2.16a1.02 1.02 0 01-.816.4h-4.416a.673.673 0 01-.672-.672V19.264a.673.673 0 01.672-.672h6.7a.673.673 0 01.671.672v13.28a.417.417 0 00.414.408.371.371 0 00.258-.1c1.271-1.116 2.638-1.808 5.52-1.808 6.566 0 11.728 5.053 12.272 12.016a84.362 84.362 0 010 9.841c-.523 6.958-5.679 12.011-12.251 12.011zm-1.028-26.08c-4.091 0-5.121 2.28-5.264 4.192a85.541 85.541 0 000 9.92c.223 2.664 2.142 4.192 5.264 4.192 3.015 0 5.056-1.646 5.2-4.192a78.883 78.883 0 000-9.92c-.156-2.546-2.2-4.192-5.2-4.192zm118.16 25.392h-6.7a.672.672 0 01-.671-.671V32.464a.672.672 0 01.671-.671h3.952a1.019 1.019 0 01.96.688l1.265 3.728a.406.406 0 00.388.277.4.4 0 00.284-.117c.513-.526 1.636-1.641 2.209-2.1a10.015 10.015 0 017.2-2.5h2.624a.673.673 0 01.672.672v6.051a.673.673 0 01-.672.671h-2.688c-5.52 0-8.815 3.074-8.815 8.224v16.165a.673.673 0 01-.675.672zm-166.38-.016h-8.256a1.026 1.026 0 01-.944-.64l-6.928-17.152a1.026 1.026 0 00-.944-.641l-4.432-.015a.673.673 0 00-.672.671v17.1a.673.673 0 01-.672.671h-7.36a.673.673 0 01-.672-.666V19.264a.673.673 0 01.672-.672h16.928a13.589 13.589 0 019.474 3.82 13.312 13.312 0 014.11 9.316 12.441 12.441 0 01-1.5 6.618 16.244 16.244 0 01-5.24 5.286c-.241.173-.432.3-.571.4l-.061.042c-.084.058-.155.107-.216.151a.523.523 0 00-.176.624l7.92 18.656a.505.505 0 01-.041.479.5.5 0 01-.419.224zM136.88 27.312a.673.673 0 00-.671.672v8.384a.673.673 0 00.671.672h8.208a4.9 4.9 0 003.565-1.55 4.816 4.816 0 001.3-3.65 4.971 4.971 0 00-5.025-4.528z"/><path data-name="Shape" d="M51.264 88.609a33.53 33.53 0 01-33.04-27.664 7.12 7.12 0 01.016-2.607.447.447 0 00-.433-.527.425.425 0 00-.159.031 7.106 7.106 0 01-5.168-.08A19.991 19.991 0 010 39.249v-2.288a19.958 19.958 0 0112.48-18.512 6.967 6.967 0 012.686-.531 7.392 7.392 0 011.378.131.531.531 0 00.1.009.44.44 0 00.446-.361A22.064 22.064 0 0135.392.257 22.642 22.642 0 0138.78 0a21.872 21.872 0 019.188 2 7.881 7.881 0 003.28.72 7.78 7.78 0 003.28-.72A22.131 22.131 0 0163.756.009 22.926 22.926 0 0167.1.257a22.066 22.066 0 0118.3 17.44.424.424 0 00.43.361.523.523 0 00.1-.009 7.24 7.24 0 014.064.4 20.129 20.129 0 0112.544 18.512v2.288a19.958 19.958 0 01-12.48 18.512 7.3 7.3 0 01-2.72.527 7.13 7.13 0 01-2.464-.447.425.425 0 00-.159-.031.447.447 0 00-.433.527 7.12 7.12 0 01.016 2.607 33.53 33.53 0 01-33.034 27.665zM25.216 58.657a1.017 1.017 0 00-.781.368 1.034 1.034 0 00-.227.848 27.452 27.452 0 0054.048 0 1.041 1.041 0 00-.225-.852 1.019 1.019 0 00-.783-.364H25.216zM38.73 6.116a16.608 16.608 0 00-2.474.187 16.028 16.028 0 00-6.127 29.361 1.036 1.036 0 01.481.715 1.01 1.01 0 01-.241.8 27.222 27.222 0 00-6.48 15.552 1.059 1.059 0 00.27.8.992.992 0 00.738.319h52.671a.988.988 0 00.732-.326 1.052 1.052 0 00.276-.795A27.125 27.125 0 0072.1 37.184a1.009 1.009 0 01-.242-.8 1.037 1.037 0 01.481-.716 15.993 15.993 0 007.313-15.44A16.164 16.164 0 0066.208 6.3a17.05 17.05 0 00-2.459-.18 15.9 15.9 0 00-6.677 1.445 13.838 13.838 0 01-5.84 1.28 13.962 13.962 0 01-5.839-1.28 15.866 15.866 0 00-6.663-1.448zm48.582 17.921a1.038 1.038 0 00-.715.291 1 1 0 00-.309.729v26.112a1.02 1.02 0 001.017 1.021 1.039 1.039 0 00.391-.077 13.859 13.859 0 008.688-12.847v-2.289A13.871 13.871 0 0087.7 24.113a1.021 1.021 0 00-.388-.076zm-72.137-.019a1.036 1.036 0 00-.39.077A13.906 13.906 0 006.1 36.961v2.3a13.859 13.859 0 008.689 12.847 1.019 1.019 0 00.384.076 1.039 1.039 0 00.715-.291 1 1 0 00.309-.729V25.041a1.02 1.02 0 00-1.017-1.021zm41.257 15.5a3.184 3.184 0 113.184-3.184 3.188 3.188 0 01-3.184 3.187zm-10.4 0a3.184 3.184 0 113.183-3.184 3.188 3.188 0 01-3.183 3.187zm18.8-15.328h-27.2a2.672 2.672 0 110-5.344h27.2a2.672 2.672 0 010 5.344z"/></g></svg>