<svg width="1448" height="881" viewBox="0 0 1448 881" xmlns="http://www.w3.org/2000/svg" xmlns:xlink="http://www.w3.org/1999/xlink"><defs><linearGradient x1="0%" y1="66.571%" x2="94.464%" y2="31.537%" id="E"><stop stop-color="#18096B" offset="0%"/><stop stop-color="#5F3DC8" offset="100%"/></linearGradient><linearGradient x1="0%" y1="66.667%" x2="94.464%" y2="31.43%" id="a"><stop stop-color="#18096B" offset="0%"/><stop stop-color="#5F3DC8" offset="100%"/></linearGradient><linearGradient x1="98.543%" y1="73.964%" x2="0%" y2="23.958%" id="c"><stop stop-color="#A99CF4" offset="0%"/><stop stop-color="#4435BD" offset="100%"/></linearGradient><linearGradient x1="100%" y1="50%" x2="0%" y2="50%" id="d"><stop stop-color="#26259E" offset="0%"/><stop stop-color="#5F50CC" offset="100%"/></linearGradient><linearGradient x1="0%" y1="66.667%" x2="94.464%" y2="31.43%" id="e"><stop stop-color="#18096B" offset="0%"/><stop stop-color="#5F3DC8" offset="100%"/></linearGradient><linearGradient x1="0%" y1="66.322%" x2="86.049%" y2="38.154%" id="Z"><stop stop-color="#FF586F" offset="0%"/><stop stop-color="#FFAD6B" offset="100%"/></linearGradient><linearGradient x1="0%" y1="41.479%" x2="100%" y2="64.04%" id="h"><stop stop-color="#4E3CDF" offset="0%"/><stop stop-color="#DBD0FF" offset="100%"/></linearGradient><linearGradient x1="98.543%" y1="66.982%" x2="0%" y2="31.546%" id="i"><stop stop-color="#A99CF4" offset="0%"/><stop stop-color="#4435BD" offset="100%"/></linearGradient><linearGradient x1="39.045%" y1="0%" x2="39.045%" y2="77.703%" id="j"><stop stop-opacity="0" offset="0%"/><stop stop-color="#A076FF" offset="100%"/></linearGradient><linearGradient x1="25.314%" y1="50%" x2="95.236%" y2="50%" id="k"><stop stop-color="#715AEF" offset="0%"/><stop stop-color="#E75DDF" offset="100%"/></linearGradient><linearGradient x1="46.362%" y1="100%" x2="53.235%" y2="-5.71%" id="l"><stop stop-color="#18096B" offset="0%"/><stop stop-color="#5F3DC8" offset="100%"/></linearGradient><linearGradient x1="13.563%" y1="100%" x2="76.27%" y2="13.71%" id="Y"><stop stop-color="#FF586F" offset="0%"/><stop stop-color="#FFAD6B" offset="100%"/></linearGradient><linearGradient x1="0%" y1="-79200.683%" x2="100%" y2="-79200.683%" id="n"><stop stop-color="#C891FF" offset="0%"/><stop stop-color="#8F7BFF" offset="100%"/></linearGradient><linearGradient x1="98.543%" y1="78.574%" x2="0%" y2="18.949%" id="p"><stop stop-color="#7159EE" offset="0%"/><stop stop-color="#AB55DA" offset="100%"/></linearGradient><linearGradient x1="0%" y1="81.07%" x2="94.464%" y2="15.382%" id="q"><stop stop-color="#18096B" offset="0%"/><stop stop-color="#5F3DC8" offset="100%"/></linearGradient><linearGradient x1="59.009%" y1="96.799%" x2="59.009%" y2="0%" id="X"><stop stop-color="#FF586F" offset="0%"/><stop stop-color="#D8D8D8" stop-opacity="0" offset="100%"/></linearGradient><linearGradient x1="0%" y1="63.429%" x2="86.049%" y2="40.253%" id="W"><stop stop-color="#FF586F" offset="0%"/><stop stop-color="#FFAD6B" offset="100%"/></linearGradient><linearGradient x1="8.208%" y1="7.986%" x2="64.382%" y2="92.014%" id="V"><stop stop-color="#837DFF" offset="0%"/><stop stop-color="#514AEF" offset="100%"/></linearGradient><linearGradient x1="89.674%" y1="48.069%" x2="3.32%" y2="50%" id="w"><stop stop-color="#EAA4FF" offset="0%"/><stop stop-color="#A076FF" offset="100%"/></linearGradient><linearGradient x1="39.045%" y1="0%" x2="39.045%" y2="77.703%" id="y"><stop stop-opacity="0" offset="0%"/><stop stop-color="#9EABFF" offset="100%"/></linearGradient><linearGradient x1="89.967%" y1="38.201%" x2="15.802%" y2="58.031%" id="z"><stop stop-color="#84F1E0" offset="0%"/><stop stop-color="#EEFDFB" offset="100%"/></linearGradient><linearGradient x1="62.925%" y1="44.57%" x2="34.793%" y2="50%" id="A"><stop stop-color="#EAA4FF" offset="0%"/><stop stop-color="#A076FF" offset="100%"/></linearGradient><linearGradient x1="62.843%" y1="44.57%" x2="34.889%" y2="50%" id="B"><stop stop-color="#EAA4FF" offset="0%"/><stop stop-color="#A076FF" offset="100%"/></linearGradient><linearGradient x1="0%" y1="41.94%" x2="100%" y2="63.279%" id="C"><stop stop-color="#6E3CDF" offset="0%"/><stop stop-color="#D4A8FF" offset="100%"/></linearGradient><linearGradient x1="98.543%" y1="65.542%" x2="0%" y2="33.111%" id="D"><stop stop-color="#A99CF4" offset="0%"/><stop stop-color="#4435BD" offset="100%"/></linearGradient><linearGradient x1="0%" y1="37.975%" x2="100%" y2="69.813%" id="b"><stop stop-color="#4E3CDF" offset="0%"/><stop stop-color="#DBD0FF" offset="100%"/></linearGradient><linearGradient x1="89.674%" y1="47.763%" x2="3.32%" y2="50%" id="F"><stop stop-color="#EAA4FF" offset="0%"/><stop stop-color="#A076FF" offset="100%"/></linearGradient><linearGradient x1="89.674%" y1="47.725%" x2="3.32%" y2="50%" id="G"><stop stop-color="#EAA4FF" offset="0%"/><stop stop-color="#A076FF" offset="100%"/></linearGradient><linearGradient x1="0%" y1="-79200.683%" x2="100%" y2="-79200.683%" id="H"><stop stop-color="#C891FF" offset="0%"/><stop stop-color="#8F7BFF" offset="100%"/></linearGradient><linearGradient x1="100%" y1="35.507%" x2="25.451%" y2="42.734%" id="I"><stop stop-color="#6E3CDF" offset="0%"/><stop stop-color="#D4A8FF" offset="100%"/></linearGradient><linearGradient x1="0%" y1="-79200.683%" x2="100%" y2="-79200.683%" id="J"><stop stop-color="#C891FF" offset="0%"/><stop stop-color="#8F7BFF" offset="100%"/></linearGradient><linearGradient x1="100%" y1="34.184%" x2="25.451%" y2="42.07%" id="K"><stop stop-color="#6E3CDF" offset="0%"/><stop stop-color="#D4A8FF" offset="100%"/></linearGradient><linearGradient x1="0%" y1="-79200.683%" x2="100%" y2="-79200.683%" id="L"><stop stop-color="#C891FF" offset="0%"/><stop stop-color="#8F7BFF" offset="100%"/></linearGradient><linearGradient x1="100%" y1="34.371%" x2="25.451%" y2="42.164%" id="M"><stop stop-color="#6E3CDF" offset="0%"/><stop stop-color="#D4A8FF" offset="100%"/></linearGradient><linearGradient x1="0%" y1="-79200.683%" x2="100%" y2="-79200.683%" id="N"><stop stop-color="#FFF" offset="0%"/><stop stop-color="#8F7BFF" offset="100%"/></linearGradient><linearGradient x1="0%" y1="98.076%" x2="94.464%" y2="-3.567%" id="O"><stop stop-color="#18096B" offset="0%"/><stop stop-color="#5F3DC8" offset="100%"/></linearGradient><linearGradient x1="0%" y1="27.8%" x2="100%" y2="86.577%" id="P"><stop stop-color="#6E3CDF" offset="0%"/><stop stop-color="#D4A8FF" offset="100%"/></linearGradient><linearGradient x1="39.045%" y1="0%" x2="39.045%" y2="77.703%" id="U"><stop stop-opacity="0" offset="0%"/><stop stop-color="#A076FF" offset="100%"/></linearGradient><linearGradient x1="8.208%" y1="33.678%" x2="64.382%" y2="66.322%" id="R"><stop stop-color="#837DFF" offset="0%"/><stop stop-color="#514AEF" offset="100%"/></linearGradient><linearGradient x1="8.208%" y1="41.345%" x2="64.382%" y2="58.655%" id="S"><stop stop-color="#837DFF" offset="0%"/><stop stop-color="#514AEF" offset="100%"/></linearGradient><linearGradient x1="8.208%" y1="36.571%" x2="64.382%" y2="63.429%" id="T"><stop stop-color="#837DFF" offset="0%"/><stop stop-color="#514AEF" offset="100%"/></linearGradient><linearGradient x1="50%" y1="8.885%" x2="50%" y2="100%" id="ac"><stop stop-color="#D8D8D8" stop-opacity="0" offset="0%"/><stop stop-color="#2A97FF" offset="100%"/></linearGradient><path d="M46.837.003L1.786 25.973c-1.066.625-1.724.782-1.724 2.002L46.837 55.79l46.775-27.94c0-1.22-.658-1.252-1.723-1.877L46.837.003z" id="v"/><path d="M46.837.003L1.786 25.973c-1.066.625-1.724.782-1.724 2.002L46.837 55.79l46.775-27.94c0-1.22-.658-1.252-1.723-1.877L46.837.003z" id="t"/><path d="M46.837.003L1.786 25.973c-1.066.625-1.724.782-1.724 2.002L46.837 55.79l46.775-27.94c0-1.22-.658-1.252-1.723-1.877L46.837.003z" id="r"/><path d="M46.837.003L1.786 25.973c-1.066.625-1.724.782-1.724 2.002L46.837 55.79l46.775-27.94c0-1.22-.658-1.252-1.723-1.877L46.837.003z" id="m"/><path id="f" d="M0 97.6L169.048 0l169.048 97.6-169.048 97.6z"/><radialGradient cx="11.133%" cy="0%" fx="11.133%" fy="0%" r="121.892%" gradientTransform="scale(.99844 1) rotate(43.097 .111 0)" id="Q"><stop stop-color="#1ABFFF" offset="0%"/><stop stop-color="#2A97FF" offset="100%"/></radialGradient><radialGradient cx="11.133%" cy="0%" fx="11.133%" fy="0%" r="229.253%" gradientTransform="scale(.41606 1) rotate(21.301 .19 .415)" id="aa"><stop stop-color="#1ABFFF" offset="0%"/><stop stop-color="#2A97FF" offset="100%"/></radialGradient><radialGradient cx="11.133%" cy="0%" fx="11.133%" fy="0%" r="190.629%" gradientTransform="scale(.51825 1) rotate(25.905 .163 .225)" id="ab"><stop stop-color="#1ABFFF" offset="0%"/><stop stop-color="#2A97FF" offset="100%"/></radialGradient></defs><g fill="none" fill-rule="evenodd"><path d="M735 349.578L951.001 474.5 735 599.422 518.999 474.5 735 349.578z" stroke="#3B2298"/><path d="M735 259.578L1105.754 474 735 688.422 364.246 474 735 259.578z" stroke="#3B2298" opacity=".4"/><path d="M735 197.578L1233.706 486 735 774.422 236.294 486 735 197.578z" stroke="#3B2298" opacity=".1"/><path fill="url(#a)" d="M.8 125.414L218.023 0l217.223 125.414-217.223 125.414z" transform="translate(516.8 294.259)"/><path fill="url(#b)" d="M.733 125.136L217.956 250.55v31.354L.733 156.49z" transform="translate(516.8 294.259)"/><path d="M548.8 441.458l5.091 2.94v22.862l-5.091-2.94v-22.862zm-8.8-4.8l5.091 2.94v22.862L540 459.52v-22.862zm-9.6-5.6l5.091 2.94v22.862l-5.091-2.94v-22.862zm-8.8-4.8l5.091 2.94v22.862l-5.091-2.94v-22.862z" fill="#FFF" opacity=".472"/><path fill="url(#c)" transform="matrix(-1 0 0 1 1169.223 294.259)" d="M217.6 125.44l217.223 125.414v31.353L217.6 156.793z"/><g stroke="#FFF" stroke-dasharray="0,5.231999657630922" stroke-linecap="round" stroke-width="1.6"><path d="M920 452.658l26.4-15.2m-26.4 23.2l26.4-15.2m-26.4 0l26.4-15.2M892 469.458l26.4-15.2m-26.4 23.2l26.4-15.2m-26.4 0l26.4-15.2"/></g><path fill="url(#a)" d="M.8 125.414L218.023 0l217.223 125.414-217.223 125.414z" transform="translate(516.8 249.459)"/><path fill="url(#b)" d="M.733 125.136L217.956 250.55v31.354L.733 156.49z" transform="translate(516.8 249.459)"/><path d="M548.8 396.659l5.091 2.939v22.862l-5.091-2.94V396.66zm-8.8-4.8l5.091 2.939v22.862L540 414.72V391.86zm-9.6-5.6l5.091 2.939v22.862l-5.091-2.94V386.26zm-8.8-4.8l5.091 2.939v22.862l-5.091-2.94V381.46z" fill="#FFF" opacity=".628"/><path fill="url(#c)" transform="matrix(-1 0 0 1 1169.223 249.459)" d="M217.6 125.44l217.223 125.414v31.353L217.6 156.793z"/><g stroke="#FFF" stroke-dasharray="0,5.231999657630922" stroke-linecap="round" stroke-width="1.6"><path d="M920 408.659l26.4-15.2m-26.4 23.2l26.4-15.2m-26.4 0l26.4-15.2M892 425.458l26.4-15.2m-26.4 23.2l26.4-15.2m-26.4 0l26.4-15.2"/></g><g><path fill="url(#d)" d="M.8 125.414L218.023 0l217.223 125.414-217.223 125.414z" transform="translate(516 190.259)"/><path fill="url(#e)" opacity=".391" d="M48.578 128l169.048-97.6L386.674 128l-169.048 97.6z" transform="translate(516 190.259)"/><g opacity=".435" transform="translate(564.8 220.659)"><mask id="g" fill="#fff"><use xlink:href="#f"/></mask><g fill="#D8D8D8" opacity=".224" mask="url(#g)"><path d="M-31.302 70.882l.566-.326 226.274 130.64-.566.326zM41.106 29.078l.565-.327 226.274 130.64-.565.326zM-22.251 65.657l.565-.327L204.59 195.97l-.566.326zM50.157 23.852l.565-.327 226.274 130.64-.565.326zM-13.2 60.431l.565-.327 226.275 130.64-.566.327zM59.207 18.626l.566-.326 226.274 130.64-.565.326zM-4.15 55.205l.566-.326 226.275 130.64-.566.326zM68.258 13.4l.566-.326 226.274 130.64-.565.326zM4.902 49.98l.565-.327 226.275 130.64-.566.326zM77.31 8.175l.565-.326 226.274 130.64-.565.326zM13.953 44.754l.565-.326 226.274 130.64-.565.326zM86.36 2.95l.566-.327L313.2 133.263l-.565.326zM23.004 39.529l.565-.327 226.274 130.64-.565.326zM95.411-2.276l.566-.326 226.274 130.639-.565.327zM32.055 34.303l.565-.326 226.274 130.639-.565.327zM104.462-7.501l.566-.327 226.274 130.64-.566.326z"/><g><path d="M107.098-16.318l.566-.326 226.274 130.64-.566.326zM116.149-21.543l.565-.327L342.99 108.77l-.566.326z"/></g></g><g fill="#D8D8D8" opacity=".224" mask="url(#g)"><path d="M360.902 70.882l-.566-.326-226.274 130.64.566.326zM288.494 29.078l-.565-.327-226.274 130.64.565.326zM351.851 65.657l-.565-.327L125.01 195.97l.566.326zM279.443 23.852l-.565-.327-226.274 130.64.565.326zM342.8 60.431l-.565-.327-226.275 130.64.566.327zM270.392 18.626l-.565-.326L43.553 148.94l.565.326zM333.75 55.205l-.566-.326-226.275 130.64.566.326zM261.342 13.4l-.566-.326-226.274 130.64.565.326zM324.698 49.98l-.565-.327-226.275 130.64.566.326zM252.29 8.175l-.565-.326L25.45 138.489l.565.326zM315.647 44.754l-.565-.326-226.275 130.64.566.326zM243.24 2.95l-.566-.327L16.4 133.263l.565.326zM306.596 39.529l-.565-.327-226.274 130.64.565.326zM234.189-2.276l-.566-.326L7.349 128.037l.565.327zM297.545 34.303l-.565-.326L70.706 164.616l.565.327zM225.138-7.501l-.566-.327-226.274 130.64.566.326z"/><g><path d="M222.502-16.318l-.566-.326-226.274 130.64.566.326zM213.451-21.543l-.565-.327L-13.39 108.77l.566.326z"/></g></g></g><path fill="url(#h)" d="M.733 125.136L217.956 250.55v6.554L.733 131.69z" transform="translate(516 190.259)"/><path fill="url(#i)" transform="matrix(-1 0 0 1 1168.423 190.259)" d="M217.6 125.44l217.223 125.414v6.553L217.6 131.993z"/></g><path fill-opacity=".2" fill="url(#j)" fill-rule="nonzero" d="M206.4 0L.8 316.528l216.8 124.558 217.646-126.153z" transform="translate(516)"/><g><path fill="url(#k)" transform="matrix(-1 0 0 1 739.12 139.302)" d="M42.732 0L0 24.846l42.732 24.846 42.733-24.846z"/><path fill="#FAABFF" fill-rule="nonzero" d="M696.388 147.538l29.346 17.063-29.346 17.063L667.04 164.6z"/><path fill="url(#l)" transform="matrix(-1 0 0 1 781.853 139.302)" d="M85.465 49.554L42.732 24.846v133.706l42.733 24.709z"/><path fill="url(#l)" transform="matrix(-1 0 0 1 696.388 139.302)" d="M0 49.524l42.732-24.678v133.737L0 183.26z"/><path stroke="#FFF" stroke-width="2.059" stroke-linecap="round" stroke-dasharray="0,5.148000410318332" d="M704.625 195.17v83.122M685.061 198.26v83.12M719.041 236.353v61.5M660.348 178.698v61.5M733.457 176.366v110.162"/><path stroke="#8BEDDF" stroke-width="2.059" stroke-linecap="round" stroke-dasharray="0,5.148000410318332" d="M671.675 218.578V328.74"/><g><path d="M696.718 312.37c-.157-.814-.752-.908-1.692-1.44l-45.051-25.97-45.052 25.97c-.846.5-1.441.688-1.63 1.377a.283.283 0 00-.093.219v9.038c0 .594.313 1.126.815 1.44l34.744 16.582h.031l10.276 9.355c.157.094.752.313.909.282.313.063.97-.313.97-.313.252-.063 10.246-9.355 10.246-9.355l34.744-16.583c.501-.282.814-.845.814-1.44v-9.038c0-.031 0-.094-.03-.125z" fill="#6687FF" fill-rule="nonzero"/><g transform="translate(603.2 284.713)"><mask id="o" fill="#fff"><use xlink:href="#m"/></mask><path d="M46.837.003L1.786 25.973c-1.066.625-1.724.782-1.724 2.002L46.837 55.79l46.775-27.94c0-1.22-.658-1.252-1.723-1.877L46.837.003z" fill="url(#n)" fill-rule="nonzero" mask="url(#o)"/></g><path d="M0 9.469c0 .563.313 1.126.846 1.408l45.02 25.97c.407.25.909-.063.909-.533v-9.507l-3.603-2.097L.532.118A.361.361 0 000 .43v9.038z" transform="translate(603.2 312.193)" fill="url(#p)"/><path d="M3.367 24.96L.17 26.807v9.476c0 .5.533.782.94.563l44.99-25.938c.5-.282.814-.845.814-1.44V.432a.347.347 0 00-.353-.357.404.404 0 00-.18.044L3.367 24.96z" transform="translate(649.803 312.193)" fill="url(#q)"/><path d="M617.451 328.014l-8.647-4.975m73.879 2.982l8.647-4.975m-8.647 7.45l8.647-4.975m-74.032 1.716l-8.647-4.975m74.032 3.38l8.647-4.974m-74.032 4.191l-8.647-4.974" stroke="#FFF" stroke-width=".572" stroke-linecap="round" stroke-dasharray="0,1.235520003108974"/><path d="M632.026 330.815l1.071.612v6.238l-1.071-.611v-6.239zm2.043 1.148l1.072.612v6.238l-1.072-.612v-6.238zm2.043 1.212l1.071.611v6.239l-1.071-.612v-6.238zm2.043 1.148l1.072.611v6.238l-1.072-.61v-6.24zm2.044 1.218l1.072.611v6.239l-1.072-.612v-6.238zm2.043 1.147l1.072.612v6.238l-1.072-.61v-6.24zm2.043 1.212l1.072.612v6.238l-1.072-.611V337.9zm2.043 1.148l1.072.611v6.24l-1.072-.612v-6.24z" fill="#FFF" fill-rule="nonzero"/><path d="M679.723 311.085l-29.744-17.145-29.743 17.145c-.703.413-1.138.516-1.138 1.322l30.881 18.364 30.881-18.447c0-.806-.434-.826-1.137-1.24" fill="#EAFFFA" fill-rule="nonzero"/><g><path d="M696.718 300.015c-.157-.814-.752-.908-1.692-1.44l-45.051-25.969-45.052 25.97c-.846.5-1.441.688-1.63 1.376a.283.283 0 00-.093.219v9.039c0 .594.313 1.126.815 1.439l34.744 16.582h.031l10.276 9.356c.157.093.752.312.909.281.313.063.97-.313.97-.313.252-.062 10.246-9.355 10.246-9.355l34.744-16.583c.501-.281.814-.844.814-1.439v-9.038c0-.032 0-.094-.03-.125z" fill="#6687FF" fill-rule="nonzero"/><g transform="translate(603.2 272.359)"><mask id="s" fill="#fff"><use xlink:href="#r"/></mask><path d="M46.837.003L1.786 25.973c-1.066.625-1.724.782-1.724 2.002L46.837 55.79l46.775-27.94c0-1.22-.658-1.252-1.723-1.877L46.837.003z" fill="url(#n)" fill-rule="nonzero" mask="url(#s)"/></g><path d="M0 9.469c0 .563.313 1.126.846 1.408l45.02 25.97c.407.25.909-.063.909-.533v-9.507l-3.603-2.097L.532.118A.361.361 0 000 .43v9.038z" transform="translate(603.2 299.838)" fill="url(#p)"/><path d="M3.367 24.96L.17 26.807v9.476c0 .5.533.782.94.563l44.99-25.938c.5-.282.814-.845.814-1.44V.432a.347.347 0 00-.353-.357.404.404 0 00-.18.044L3.367 24.96z" transform="translate(649.803 299.838)" fill="url(#q)"/><path d="M617.451 315.66l-8.647-4.975m73.879 2.981l8.647-4.975m-8.647 7.45l8.647-4.974m-74.032 1.716l-8.647-4.975m74.032 3.38l8.647-4.975m-74.032 4.192l-8.647-4.975" stroke="#FFF" stroke-width=".572" stroke-linecap="round" stroke-dasharray="0,1.235520003108974"/><path d="M632.026 318.46l1.071.612v6.238l-1.071-.61v-6.24zm2.043 1.148l1.072.612v6.238l-1.072-.611v-6.239zm2.043 1.212l1.071.612v6.238l-1.071-.611v-6.239zm2.043 1.148l1.072.611v6.239l-1.072-.611v-6.24zm2.044 1.218l1.072.611v6.24l-1.072-.612v-6.24zm2.043 1.148l1.072.611v6.239l-1.072-.612v-6.238zm2.043 1.211l1.072.612v6.239l-1.072-.612v-6.239zm2.043 1.148l1.072.612v6.238l-1.072-.611v-6.239z" fill="#FFF" fill-rule="nonzero"/><path d="M679.723 298.73l-29.744-17.145-29.743 17.145c-.703.413-1.138.516-1.138 1.322l30.881 18.364 30.881-18.447c0-.805-.434-.826-1.137-1.239" fill="#EAFFFA" fill-rule="nonzero"/></g><g><path d="M696.718 287.66c-.157-.814-.752-.907-1.692-1.44l-45.051-25.969-45.052 25.97c-.846.5-1.441.688-1.63 1.376a.283.283 0 00-.093.22v9.038c0 .594.313 1.126.815 1.439l34.744 16.583h.031l10.276 9.355c.157.094.752.313.909.282.313.062.97-.313.97-.313.252-.063 10.246-9.356 10.246-9.356l34.744-16.582c.501-.282.814-.845.814-1.44v-9.038c0-.031 0-.094-.03-.125z" fill="#6687FF" fill-rule="nonzero"/><g transform="translate(603.2 260.004)"><mask id="u" fill="#fff"><use xlink:href="#t"/></mask><path d="M46.837.003L1.786 25.973c-1.066.625-1.724.782-1.724 2.002L46.837 55.79l46.775-27.94c0-1.22-.658-1.252-1.723-1.877L46.837.003z" fill="url(#n)" fill-rule="nonzero" mask="url(#u)"/></g><path d="M0 9.469c0 .563.313 1.126.846 1.408l45.02 25.97c.407.25.909-.063.909-.533v-9.507l-3.603-2.097L.532.118A.361.361 0 000 .43v9.038z" transform="translate(603.2 287.484)" fill="url(#p)"/><path d="M3.367 24.96L.17 26.807v9.476c0 .5.533.782.94.563l44.99-25.938c.5-.282.814-.845.814-1.44V.432a.347.347 0 00-.353-.357.404.404 0 00-.18.044L3.367 24.96z" transform="translate(649.803 287.484)" fill="url(#q)"/><path d="M617.451 303.305l-8.647-4.975m73.879 2.981l8.647-4.975m-8.647 7.451l8.647-4.975m-74.032 1.716l-8.647-4.975m74.032 3.38l8.647-4.974m-74.032 4.191l-8.647-4.975" stroke="#FFF" stroke-width=".572" stroke-linecap="round" stroke-dasharray="0,1.235520003108974"/><path d="M632.026 306.106l1.071.611v6.239l-1.071-.611v-6.24zm2.043 1.148l1.072.611v6.239l-1.072-.612v-6.238zm2.043 1.211l1.071.612v6.238l-1.071-.611v-6.239zm2.043 1.148l1.072.612v6.238l-1.072-.611v-6.239zm2.044 1.218l1.072.612v6.238l-1.072-.611v-6.239zm2.043 1.148l1.072.612v6.238l-1.072-.611v-6.239zm2.043 1.212l1.072.611v6.239l-1.072-.612v-6.238zm2.043 1.148l1.072.611v6.239l-1.072-.612v-6.238z" fill="#FFF" fill-rule="nonzero"/><path d="M679.723 286.375l-29.744-17.145-29.743 17.145c-.703.414-1.138.517-1.138 1.322l30.881 18.364 30.881-18.446c0-.806-.434-.826-1.137-1.24" fill="#EAFFFA" fill-rule="nonzero"/></g><g><path d="M696.718 275.305c-.157-.813-.752-.907-1.692-1.439l-45.051-25.97-45.052 25.97c-.846.5-1.441.688-1.63 1.377a.283.283 0 00-.093.219v9.038c0 .594.313 1.126.815 1.44l34.744 16.582h.031l10.276 9.355c.157.094.752.313.909.282.313.063.97-.313.97-.313.252-.063 10.246-9.355 10.246-9.355l34.744-16.583c.501-.282.814-.845.814-1.44v-9.038c0-.031 0-.094-.03-.125z" fill="#6687FF" fill-rule="nonzero"/><g transform="translate(603.2 247.65)"><mask id="x" fill="#fff"><use xlink:href="#v"/></mask><path d="M46.837.003L1.786 25.973c-1.066.625-1.724.782-1.724 2.002L46.837 55.79l46.775-27.94c0-1.22-.658-1.252-1.723-1.877L46.837.003z" fill="url(#w)" fill-rule="nonzero" mask="url(#x)"/></g><path d="M0 9.469c0 .563.313 1.126.846 1.408l45.02 25.97c.407.25.909-.063.909-.533v-9.507l-3.603-2.097L.532.118A.361.361 0 000 .43v9.038z" transform="translate(603.2 275.129)" fill="url(#p)"/><path d="M3.367 24.96L.17 26.807v9.476c0 .5.533.782.94.563l44.99-25.938c.5-.282.814-.845.814-1.44V.432a.347.347 0 00-.353-.357.404.404 0 00-.18.044L3.367 24.96z" transform="translate(649.803 275.129)" fill="url(#q)"/><path d="M617.451 290.95l-8.647-4.975m73.879 2.982l8.647-4.975m-8.647 7.45l8.647-4.975m-74.032 1.716l-8.647-4.975m74.032 3.38l8.647-4.974m-74.032 4.192l-8.647-4.975" stroke="#FFF" stroke-width=".572" stroke-linecap="round" stroke-dasharray="0,1.235520003108974"/><path d="M632.026 293.751l1.071.612v6.238l-1.071-.611v-6.239zm2.043 1.148l1.072.612v6.238l-1.072-.611v-6.239zm2.043 1.212l1.071.611v6.239l-1.071-.612v-6.238zm2.043 1.148l1.072.611v6.238l-1.072-.61v-6.24zm2.044 1.218l1.072.611v6.239l-1.072-.612v-6.238zm2.043 1.147l1.072.612v6.238l-1.072-.61v-6.24zm2.043 1.212l1.072.612v6.238l-1.072-.611v-6.239zm2.043 1.148l1.072.611v6.24l-1.072-.612v-6.239z" fill="#FFF" fill-rule="nonzero"/><path d="M679.723 274.02l-29.744-17.144-29.743 17.145c-.703.413-1.138.516-1.138 1.322l30.881 18.364 30.881-18.447c0-.806-.434-.826-1.137-1.24" fill="#FAABFF" fill-rule="nonzero"/><path d="M72.04 111.81c.012.077.019.165.019.264L41.178 130.52l-30.881-18.363c0-.134.012-.248.035-.347h-.035V.618h61.762V111.81h-.02z" fill-opacity=".6" fill="url(#y)" fill-rule="nonzero" transform="translate(608.406 163.12)"/></g></g><g><g fill-rule="nonzero"><path fill="url(#z)" transform="matrix(-1 0 0 1 641.726 199.644)" d="M6.303 0l-6.3 3.725 6.3 3.726 6.3-3.726z"/><path fill="url(#A)" transform="matrix(-1 0 0 1 648.01 199.644)" d="M12.594 7.454l-6.3-3.725v7.312l6.3 3.726z"/><path fill="url(#B)" transform="matrix(-1 0 0 1 635.42 199.644)" d="M0 7.44l6.3-3.724v7.347L0 14.79z"/></g><path fill="url(#C)" transform="matrix(-1 0 0 1 645.968 194.898)" d="M10.572 0L.004 6.244l10.568 6.244L21.14 6.244z"/><path d="M645.664 201.648l-9.996 5.906v11.593l9.996-5.907v-11.592zM625.11 201.626v11.651l9.996 5.906v-11.65l-9.996-5.907z" stroke="#FFF" stroke-width=".572" opacity=".331"/><g><g fill-rule="nonzero"><path fill="url(#z)" transform="matrix(-1 0 0 1 655.455 178.023)" d="M6.303 0l-6.3 3.725 6.3 3.726 6.3-3.726z"/><path fill="url(#A)" transform="matrix(-1 0 0 1 661.739 178.023)" d="M12.594 7.454l-6.3-3.725v7.312l6.3 3.726z"/><path fill="url(#B)" transform="matrix(-1 0 0 1 649.15 178.023)" d="M0 7.44l6.3-3.724v7.347L0 14.79z"/></g><path fill="url(#C)" transform="matrix(-1 0 0 1 659.697 173.277)" d="M10.572 0L.004 6.244l10.568 6.244L21.14 6.244z"/><path d="M659.393 180.028l-9.996 5.906v11.592l9.996-5.906v-11.592zM638.839 180.006v11.65l9.996 5.907v-11.651l-9.996-5.906z" stroke="#FFF" stroke-width=".572" opacity=".331"/></g><g><g fill-rule="nonzero"><path fill="url(#z)" transform="matrix(-1 0 0 1 655.455 221.854)" d="M6.303 0l-6.3 3.725 6.3 3.726 6.3-3.726z"/><path fill="url(#A)" transform="matrix(-1 0 0 1 661.739 221.854)" d="M12.594 7.454l-6.3-3.725v7.312l6.3 3.726z"/><path fill="url(#B)" transform="matrix(-1 0 0 1 649.15 221.854)" d="M0 7.44l6.3-3.724v7.347L0 14.79z"/></g><path fill="url(#C)" transform="matrix(-1 0 0 1 659.697 217.108)" d="M10.572 0L.004 6.244l10.568 6.244L21.14 6.244z"/><path d="M659.393 223.859l-9.996 5.906v11.592l9.996-5.906v-11.592zM638.839 223.837v11.65l9.996 5.907v-11.651l-9.996-5.906z" stroke="#FFF" stroke-width=".572" opacity=".331"/></g></g></g><g><path fill="url(#D)" opacity=".26" d="M81.3 106.318l42.22.22v24.15h-.288l.288.168-60.8 35.336-60.8-35.336.288-.167H1.92v-24.786l42.552.223L62.72 95.52z" transform="translate(708 215.859)"/><path fill="url(#E)" transform="matrix(-1 0 0 1 833.195 215.859)" d="M62.598 69.28L.023 105.303l62.575 36.024 62.574-36.024z"/><path fill="url(#F)" fill-rule="nonzero" transform="matrix(-1 0 0 1 895.603 215.859)" d="M125.089 141.357l-62.575-36.023v4.144l62.575 36.024z"/><path fill="url(#G)" fill-rule="nonzero" transform="matrix(-1 0 0 1 770.575 215.859)" d="M0 141.231l62.575-36.023v4.483L0 145.714z"/><path d="M769.37 301.611c4.777 0 8.65-2.212 8.65-4.941 0-2.73-3.873-4.942-8.65-4.942s-8.65 2.212-8.65 4.942c0 2.729 3.873 4.941 8.65 4.941zM729.006 326.32c4.777 0 8.65-2.212 8.65-4.941 0-2.73-3.873-4.942-8.65-4.942s-8.65 2.213-8.65 4.942c0 2.73 3.873 4.942 8.65 4.942zM812.205 327.144c4.777 0 8.65-2.212 8.65-4.942 0-2.729-3.873-4.941-8.65-4.941s-8.649 2.212-8.649 4.941c0 2.73 3.872 4.942 8.65 4.942zM769.37 350.206c4.777 0 8.65-2.212 8.65-4.941 0-2.73-3.873-4.942-8.65-4.942s-8.65 2.212-8.65 4.942c0 2.729 3.873 4.941 8.65 4.941z" stroke="#FFF" stroke-width=".5"/><path stroke="#FFF" stroke-width=".824" d="M775.548 299.965l32.127 19.273"/><path d="M56.017 80.527h-.001V38.805h10.708v41.722h-.001c-.072 1.528-2.441 2.755-5.353 2.755s-5.28-1.227-5.353-2.755z" fill="url(#H)" fill-rule="nonzero" transform="translate(708 215.859)"/><path d="M61.37 41.276c2.957 0 5.354-1.29 5.354-2.883 0-1.592-2.397-2.882-5.354-2.882-2.957 0-5.354 1.29-5.354 2.882s2.397 2.883 5.354 2.883z" fill="url(#I)" transform="translate(708 215.859)"/><path d="M97.206 105.346h-.002v-82.19h13.18v82.19h-.002c-.09 1.924-3.005 3.469-6.588 3.469-3.584 0-6.5-1.545-6.588-3.469z" fill="url(#J)" fill-rule="nonzero" transform="translate(708 215.859)"/><path d="M103.794 26.45c3.64 0 6.59-1.659 6.59-3.706 0-2.047-2.95-3.706-6.59-3.706-3.64 0-6.59 1.66-6.59 3.706 0 2.047 2.95 3.707 6.59 3.707z" fill="url(#K)" transform="translate(708 215.859)"/><path d="M56.017 129.075h-.001V100.61h10.708v28.465h-.001c-.072 1.554-2.441 2.802-5.353 2.802s-5.28-1.248-5.353-2.802z" fill="url(#L)" fill-rule="nonzero" transform="translate(708 215.859)"/><path d="M61.37 103.271c2.957 0 5.354-1.34 5.354-2.993 0-1.654-2.397-2.994-5.354-2.994-2.957 0-5.354 1.34-5.354 2.994 0 1.653 2.397 2.993 5.354 2.993z" fill="url(#M)" transform="translate(708 215.859)"/><path stroke="#FFF" stroke-width=".824" stroke-linecap="round" d="M777.36 343.618l30.315-17.462"/><path d="M54.497 33.233v1.82c0 .202-.123.436-.276.523l-10.49 5.991c-.153.087-.277-.005-.277-.206v-1.82c0-.202.124-.436.276-.523l10.491-5.991c.153-.087.276.005.276.206zm-13.804-3.768v1.82c0 .201-.123.435-.276.522l-4.14 2.365c-.153.087-.277-.005-.277-.206v-1.821c0-.201.124-.435.276-.522l4.141-2.365c.153-.087.276.005.276.207zm23.467-7.577v1.821c0 .201-.124.435-.276.522l-15.737 8.987c-.152.087-.276-.005-.276-.206v-1.82c0-.202.124-.436.276-.523l15.737-8.987c.152-.087.276.005.276.206zm-4.417-3.303v1.82c0 .202-.124.435-.276.522L43.73 29.915c-.152.087-.276-.005-.276-.207v-1.82c0-.201.124-.435.276-.522l15.737-8.987c.152-.088.276.005.276.206zm-5.246-3.698v1.821c0 .201-.123.435-.276.522l-10.49 5.991c-.153.088-.277-.005-.277-.206v-1.82c0-.202.124-.435.276-.522l10.491-5.992c.153-.087.276.005.276.206zM40.693 11.12v1.82c0 .202-.123.435-.276.522l-4.14 2.365c-.153.087-.277-.005-.277-.206V13.8c0-.202.124-.435.276-.523l4.141-2.365c.153-.087.276.006.276.207zM64.16 3.543v1.82c0 .201-.124.435-.276.522l-15.737 8.988c-.152.087-.276-.006-.276-.207v-1.82c0-.202.124-.435.276-.522l15.737-8.988c.152-.087.276.005.276.207zM59.743.239v1.82c0 .202-.124.436-.276.523L43.73 11.569c-.152.087-.276-.005-.276-.206v-1.82c0-.202.124-.436.276-.523L59.467.033c.152-.087.276.005.276.206z" fill="url(#N)" fill-rule="nonzero" transform="translate(708 215.859)"/><path stroke="#FFF" stroke-width=".824" d="M762.368 299.965l-29.655 17.296"/><path d="M15.202 104.591H15.2V76.126h10.709v28.465h-.002c-.072 1.554-2.44 2.802-5.353 2.802-2.911 0-5.28-1.248-5.352-2.802z" fill="url(#L)" fill-rule="nonzero" transform="translate(708 215.859)"/><path d="M20.554 78.787c2.958 0 5.355-1.34 5.355-2.993 0-1.654-2.397-2.994-5.355-2.994-2.957 0-5.354 1.34-5.354 2.994 0 1.653 2.397 2.993 5.354 2.993z" fill="url(#M)" transform="translate(708 215.859)"/></g><g><path d="M208.548 103.676c.28-2.111.425-4.238.432-6.368 0-27.09-19.137-60.104-42.746-73.733-13.72-7.919-25.894-7.504-33.718-.497-5.68-7.504-12.441-13.89-19.716-18.088C92.729-6.596 76.464 2.679 76.464 25.726c0 .229.026.466.03.7-17.02-6.36-29.954 3.192-29.954 23.717 0 23.03 16.269 51.088 36.335 62.674l115.422 66.632c20.066 11.586 36.335 2.311 36.335-20.736 0-18.918-11.011-41.239-26.084-55.037z" fill="url(#O)" transform="translate(617.6 3.059)"/><path fill="#4328A3" d="M702.577 6.916l-29.382 16.623 32.001 7.528z"/><path fill="#3A1B9B" d="M811.353 202.256l29.816-17.008-24.151-24.071z"/><path d="M175.988 103.904c.28-2.111.425-4.238.432-6.368 0-27.09-19.137-60.104-42.746-73.733-13.72-7.919-25.894-7.504-33.718-.497-5.68-7.504-12.441-13.889-19.716-18.088C60.169-6.368 43.904 2.907 43.904 25.954c0 .229.026.466.03.7-17.02-6.36-29.954 3.192-29.954 23.717 0 23.03 16.269 51.088 36.335 62.674l115.422 66.632c20.066 11.586 36.335 2.311 36.335-20.736 0-18.917-11.011-41.239-26.084-55.037z" fill="url(#P)" transform="translate(618.16 21.23)"/><path d="M735.323 127.772c2.7.285 4.61-1.648 4.61-5.23v-1.407c0-3.581-1.91-7.739-4.61-10.582-.356-.374-.747-.296-.747.147v16.059c0 .452.39.974.747 1.013zm-4.838-2.42c-.255-3.789-1.503-7.818-3.438-11.557-.22-.433-.161-.812.128-.861 2.63-.423 4.278-3.04 3.879-7.247-.433-4.58-3.413-9.889-7.13-12.693-1.632-1.223-3.196-1.878-4.574-2.012l-.273-.02c-.993-.044-2.046-.399-3.098-1.009-.955-.553-1.903-1.318-2.801-2.261l-.297-.322c-1.443-1.603-3.107-2.883-4.847-3.586-3.718-1.515-6.697.35-7.13 4.428-.399 3.754 1.248 8.27 3.879 11.743.289.384.348.832.127 1.009-1.926 1.5-3.183 4.078-3.437 7.571-.026.36.212.812.534 1l27.943 16.195c.314.182.56 0 .535-.379zm-28.843-12.33c1.223 8.61 7.164 18.066 14.337 22.223 7.172 4.157 13.114 1.6 14.336-5.603.06-.36-.195-.861-.535-1.058l-27.603-16c-.34-.196-.594.02-.535.438zm-4.999-7.67c.356.374.747.296.747-.147V89.137c0-.453-.39-.974-.747-1.014-2.7-.275-4.61 1.658-4.61 5.24v1.417c0 3.571 1.91 7.729 4.61 10.572zm37.746.93c.713.256 1.46.768 2.156 1.496 4.024 4.25 6.63 10.228 6.655 15.241v1.408c0 5.008-2.597 7.97-6.62 7.547-.468-.055-.96-.232-1.444-.512a6.422 6.422 0 01-1.307-1.033c-.17-.177-.348-.104-.314.123.085.57.093 1.117.009 1.608-1.52 8.98-8.887 11.862-17.528 6.854-8.641-5.009-16.009-16.432-17.528-27.172a5.019 5.019 0 01.008-1.6c.034-.186-.144-.467-.314-.486a3.841 3.841 0 01-1.307-.483 6.614 6.614 0 01-1.434-1.156c-4.024-4.25-6.621-10.223-6.621-15.222v-1.407c0-5.008 2.597-7.97 6.62-7.547.697.07 1.444.433 2.157 1.004.135.108.263.093.288-.05.968-4.978 4.83-7.079 9.71-5.096 2.292.925 4.601 2.637 6.672 4.94.552.614 1.146 1.106 1.74 1.45.52.302 1.04.49 1.532.55l.208.016c2.071.109 4.38 1.073 6.672 2.795 4.88 3.675 8.743 10.253 9.71 16.353.026.173.145.33.28.38zm-27.043-13.54c0-.904.637-1.273 1.418-.82l14.43 8.363c.78.453 1.417 1.56 1.417 2.465 0 .905-.636 1.274-1.417.821l-14.43-8.363c-.781-.453-1.418-1.56-1.418-2.465zm9.702 14.736c0-1.083.756-1.52 1.69-.98.933.542 1.689 1.855 1.689 2.938 0 1.082-.756 1.52-1.69.979-.933-.541-1.689-1.855-1.689-2.937zm-3.828-4.177c-.934-.541-1.689-.104-1.689.979 0 1.082.755 2.396 1.69 2.937.933.541 1.688.103 1.688-.98 0-1.081-.755-2.395-1.689-2.936z" fill="#FFF"/><path d="M786.916 206.903c-4.86 0-10.234-1.62-15.79-4.83l-108.215-62.475c-19.06-11.008-34.56-37.753-34.56-59.616 0-10.014 3.261-17.79 9.18-21.898 5.024-3.486 11.685-4.091 18.883-1.728.168-10.394 3.844-18.17 10.394-21.95 6.76-3.888 15.694-3.05 25.155 2.415 6.428 3.71 12.683 9.366 18.144 16.39 7.996-6.48 19.57-6.113 31.968 1.037 22.373 12.916 40.578 44.314 40.578 69.984a46.099 46.099 0 01-.355 5.581c14.386 13.366 24.404 34.668 24.404 51.991 0 10.766-3.694 18.827-10.398 22.698a18.52 18.52 0 01-9.388 2.401zM648.124 56.917a16.343 16.343 0 00-9.466 2.791c-5.37 3.728-8.329 10.925-8.329 20.27 0 21.237 15.06 47.213 33.575 57.888l108.216 62.48c8.818 5.089 17.047 5.948 23.173 2.415 6.126-3.534 9.405-10.956 9.405-20.983 0-16.96-9.936-37.877-24.132-50.872a.998.998 0 01-.315-.864c.258-1.938.393-3.89.401-5.845 0-25.056-17.76-55.672-39.584-68.256-12.022-6.938-23.116-7.154-30.46-.583a.994.994 0 01-1.456-.138c-5.447-7.202-11.742-12.96-18.191-16.701-8.822-5.094-17.051-5.953-23.177-2.415-6.126 3.538-9.405 10.95-9.405 20.978v.639a.98.98 0 01-.432.825.998.998 0 01-.92.121 25.63 25.63 0 00-8.903-1.75z" fill="#E8D3FF" fill-rule="nonzero" opacity=".405"/><path d="M776.911 211.811c-4.86 0-10.23-1.62-15.785-4.825l-108.216-62.48c-19.06-11.004-34.56-37.749-34.56-59.617 0-10.013 3.262-17.79 9.18-21.898 5.02-3.482 11.664-4.086 18.883-1.728.168-10.39 3.84-18.165 10.39-21.945 6.765-3.91 15.698-3.05 25.16 2.415 6.427 3.71 12.683 9.361 18.143 16.385 7.992-6.48 19.57-6.112 31.968 1.041 22.373 12.917 40.574 44.315 40.574 69.984a47.088 47.088 0 01-.35 5.586c14.385 13.366 24.399 34.668 24.399 51.991 0 10.766-3.694 18.827-10.398 22.698a18.494 18.494 0 01-9.388 2.393zM638.118 61.825c-3.365-.065-6.669.91-9.46 2.79-5.37 3.729-8.338 10.926-8.338 20.27 0 21.241 15.06 47.218 33.57 57.888l108.217 62.476c8.821 5.093 17.05 5.953 23.177 2.415 6.125-3.538 9.404-10.951 9.404-20.978 0-16.96-9.936-37.882-24.131-50.877a.994.994 0 01-.316-.864c.258-1.938.39-3.89.398-5.845 0-25.056-17.755-55.672-39.584-68.256-12.023-6.942-23.121-7.154-30.452-.583a.998.998 0 01-.756.246.985.985 0 01-.696-.388c-5.451-7.202-11.741-12.96-18.195-16.702-8.822-5.093-17.052-5.948-23.173-2.414-6.121 3.533-9.383 10.964-9.383 20.99v.635c.002.331-.16.642-.432.83a.985.985 0 01-.92.117 25.769 25.769 0 00-8.93-1.75z" fill="#E8D3FF" fill-rule="nonzero" opacity=".405"/></g><g><path d="M48.065 46.15c.709 0 1.276.426 1.418 1.135l.709 4.254c1.276.425 2.552.85 3.686 1.56l3.545-2.41c.567-.426 1.276-.284 1.843.141l3.828 3.828c.425.426.567 1.276.142 1.843l-2.41 3.545c.708 1.134 1.134 2.41 1.56 3.686l4.253.71c.709.141 1.134.708 1.134 1.417v5.388c0 .709-.425 1.276-1.134 1.418l-4.254.709c-.425 1.276-.85 2.552-1.56 3.686l2.41 3.545c.426.567.284 1.276-.141 1.843l-3.828 3.828c-.426.425-1.276.567-1.843.142l-3.545-2.41c-1.134.708-2.41 1.134-3.686 1.56l-.71 4.253c-.14.708-.708 1.134-1.417 1.134h-5.388c-.709 0-1.276-.425-1.418-1.134l-.708-4.254c-1.276-.425-2.552-.85-3.687-1.56l-3.544 2.41c-.568.426-1.276.284-1.844-.141l-3.828-3.828c-.425-.426-.567-1.276-.142-1.843l2.41-3.545c-.708-1.134-1.134-2.41-1.56-3.686l-4.253-.71c-.709-.141-1.134-.708-1.134-1.417v-5.388c0-.709.425-1.276 1.134-1.418l4.254-.709c.425-1.276.85-2.552 1.56-3.686l-2.41-3.545c-.426-.567-.284-1.276.141-1.843l3.828-3.828c.426-.425 1.276-.567 1.843-.142l3.545 2.41c1.134-.708 2.41-1.134 3.686-1.56l.71-4.253c.141-.709.708-1.134 1.417-1.134h5.388zm-1.276 2.978h-2.978l-.708 3.97a1.539 1.539 0 01-1.135 1.135c-1.56.425-3.119.992-4.537 1.843-.425.283-1.134.283-1.56 0l-3.26-2.269-2.127 1.985 2.268 3.261c.284.426.284 1.135 0 1.56-.85 1.418-1.56 2.978-1.843 4.537a1.539 1.539 0 01-1.134 1.134l-3.97.71v2.977l3.97.709c.567.142.992.567 1.134 1.134.425 1.56.993 3.12 1.843 4.537.284.425.284 1.135 0 1.56l-2.268 3.403 2.126 2.126 3.261-2.268c.426-.284 1.135-.284 1.56 0 1.418.85 2.978 1.56 4.537 1.843.567.142.993.567 1.135 1.134l.708 3.97h2.978l.709-3.97a1.539 1.539 0 011.134-1.134c1.56-.425 3.12-.993 4.537-1.843.426-.284 1.135-.284 1.56 0l3.261 2.268 2.127-2.126-2.269-3.261c-.283-.426-.283-1.135 0-1.56.85-1.418 1.56-2.978 1.843-4.537a1.539 1.539 0 011.135-1.135l3.97-.708v-2.978l-3.97-.709a1.539 1.539 0 01-1.135-1.134c-.425-1.56-.992-3.12-1.843-4.537-.283-.426-.283-1.135 0-1.56l2.269-3.261-2.127-2.127-3.261 2.269c-.425.283-1.134.283-1.56 0-1.418-.85-2.977-1.56-4.537-1.843a1.539 1.539 0 01-1.134-1.135l-.709-3.97zm25.663 33.887v2.836h-2.836v-2.836h2.836zm8.507 0v2.836h-2.836v-2.836h2.836zm8.365 0v2.836H86.49v-2.836h2.835zm-85.07 0v2.836H1.418v-2.836h2.836zm8.365 0v2.836H9.783v-2.836h2.836zm8.507 0v2.836H18.29v-2.836h2.836zM45.45 60.48a8.007 8.007 0 018.01 8.01 8.007 8.007 0 01-8.01 8.01 8.006 8.006 0 01-8.01-8.01 8.006 8.006 0 018.01-8.01zm-.09 2.88a5.02 5.02 0 00-5.04 5.04c0 2.8 2.24 5.04 5.04 5.04s5.04-2.24 5.04-5.04-2.24-5.04-5.04-5.04zM85.213.07c2.977 0 5.53 2.411 5.53 5.53 0 2.627-1.71 4.751-4.112 5.356v37.057c2.694 2.323 4.395 5.637 4.395 9.338-.284 6.948-6.38 12.62-14.037 12.62-.85 0-1.418-.567-1.418-1.418 0-.85.567-1.418 1.418-1.418 5.955 0 10.917-4.395 10.917-9.925 0-2.762-1.238-5.241-3.22-7.03a1.251 1.251 0 01-.712-.589c-1.903-1.443-4.346-2.306-6.985-2.306-1.134 0-2.268.142-3.403.567a1.6 1.6 0 01-1.56-.425c-.425-.425-.425-1.134-.141-1.56.708-1.134.992-2.41.992-3.828a7.781 7.781 0 00-1.055-3.92l.029.05a8.059 8.059 0 00-.142-.24l.113.19c-.04-.071-.082-.14-.124-.21l.01.02c-1.574-2.556-4.581-4.255-8.047-4.255-1.701 0-3.403.425-4.962 1.276-.426.283-.851.283-1.276 0-.426-.284-.71-.567-.71-1.134-.85-6.806-7.088-11.91-14.603-11.91-7.373 0-13.611 5.104-14.462 11.768 0 .425-.283.85-.709 1.134-.425.142-.85.142-1.276 0-1.276-.709-2.836-1.134-4.253-1.134-4.538 0-8.224 3.403-8.224 7.514 0 1.418.425 2.836 1.276 4.112.284.425.284.993.142 1.418-.284.425-.709.709-1.276.85-5.813.284-10.35 4.68-10.35 9.925 0 5.53 4.962 9.925 10.917 9.925.85 0 1.418.567 1.418 1.418 0 .85-.567 1.418-1.418 1.418-7.515 0-13.753-5.671-13.753-12.76 0-3.47 1.514-6.616 3.969-8.92v-37.63C1.785 10.322 0 8.209 0 5.6 0 2.623 2.41.07 5.53.07c3.119 0 5.53 2.41 5.53 5.53-.12 2.605-1.82 4.715-4.112 5.34v35.58a14.653 14.653 0 014.111-1.505c-.425-1.134-.709-2.41-.709-3.686 0-.246.01-.49.028-.733a1.215 1.215 0 01-.027-.543c.567-5.388 5.246-9.358 11.059-9.358 1.276 0 2.694.283 3.97.709.83-3.256 2.695-6.081 5.245-8.203V10.944c-2.326-.621-4.111-2.734-4.111-5.343 0-2.978 2.41-5.53 5.53-5.53 2.977 0 5.529 2.41 5.529 5.53 0 2.626-1.709 4.75-4.11 5.355l-.002 10.33c2.619-1.416 5.676-2.216 8.933-2.216 6.27 0 11.799 3.05 14.888 7.704v-15.83c-2.327-.621-4.113-2.734-4.113-5.343 0-2.978 2.41-5.53 5.53-5.53 2.977 0 5.53 2.41 5.53 5.53-.119 2.605-1.82 4.715-4.112 5.34l-.001 20.35a12.45 12.45 0 013.829-.595c5.813 0 10.917 3.828 11.91 9.216.036.181.035.372 0 .558.093.558.142 1.13.142 1.71 0 .851-.142 1.702-.284 2.553.567 0 .993-.142 1.56-.142 2.35 0 4.574.554 6.522 1.533l-.001-35.18c-2.326-.622-4.111-2.735-4.111-5.343 0-2.978 2.41-5.53 5.53-5.53zm0 2.978c-1.418 0-2.694 1.135-2.694 2.694 0 1.248.878 2.386 2.152 2.64.163-.057.345-.088.542-.088.194 0 .374.03.536.086a2.683 2.683 0 002.157-2.638c0-1.56-1.134-2.694-2.693-2.694zm-26.514 0c-1.418 0-2.694 1.135-2.694 2.694 0 1.248.878 2.386 2.152 2.64.163-.057.345-.088.542-.088.195 0 .375.03.537.086a2.684 2.684 0 002.157-2.638c-.142-1.56-1.276-2.694-2.694-2.694zm-26.656 0c-1.418 0-2.694 1.135-2.694 2.694 0 1.248.879 2.386 2.152 2.64.163-.057.345-.088.542-.088.195 0 .375.03.537.086a2.684 2.684 0 002.157-2.638c0-1.56-1.276-2.694-2.694-2.694zm-26.513 0c-1.418 0-2.694 1.135-2.694 2.694 0 1.248.878 2.386 2.152 2.64.163-.057.345-.088.542-.088.194 0 .374.03.536.086a2.683 2.683 0 002.157-2.638c-.141-1.56-1.276-2.694-2.693-2.694z" fill="url(#Q)" transform="translate(1165 304)"/></g><g><path d="M734.351 828.715c89.817 0 162.629-38.26 162.629-85.457 0-47.196-72.812-85.457-162.629-85.457s-162.629 38.26-162.629 85.457c0 47.197 72.812 85.457 162.63 85.457z" stroke="#C194F9" stroke-width="1.2" opacity=".4"/><path d="M733.876 879.04c129.998 0 235.383-55.478 235.383-123.913S863.874 631.215 733.876 631.215c-130 0-235.384 55.477-235.384 123.912S603.877 879.04 733.876 879.04z" stroke="#C194F9" stroke-width="1.2" opacity=".1"/><path d="M735.213 801.45c63.293 0 114.603-27.189 114.603-60.727 0-33.539-51.31-60.728-114.603-60.728-63.294 0-114.604 27.189-114.604 60.728 0 33.538 51.31 60.727 114.604 60.727z" stroke="#C194F9" stroke-width="1.2"/><path d="M133.1 159.284c4.777 0 8.65-2.213 8.65-4.942 0-2.73-3.873-4.942-8.65-4.942s-8.65 2.213-8.65 4.942c0 2.73 3.873 4.942 8.65 4.942zM346.1 164.284c4.777 0 8.65-2.213 8.65-4.942 0-2.73-3.873-4.942-8.65-4.942s-8.65 2.213-8.65 4.942c0 2.73 3.873 4.942 8.65 4.942zM238.1 245.284c4.777 0 8.65-2.213 8.65-4.942 0-2.73-3.873-4.942-8.65-4.942s-8.65 2.213-8.65 4.942c0 2.73 3.873 4.942 8.65 4.942z" fill="url(#R)" transform="translate(497.55 561.6)"/><path d="M.937 45.921h2.182c8.536-15.272 41.122-17.108 80.018-17.108h1.359c38.294.045 70.222 2.014 78.659 17.107l2.182.001v8.839c0 23.446-36.803 42.453-82.2 42.453-45.398 0-82.2-19.007-82.2-42.453V45.92z" fill="url(#S)" opacity=".411" transform="translate(652.063 689.387)"/><path d="M83.137 85.213c45.397 0 82.2-19.073 82.2-42.6s-36.803-42.6-82.2-42.6c-45.398 0-82.2 19.073-82.2 42.6s36.802 42.6 82.2 42.6z" fill="url(#T)" transform="translate(652.063 689.387)"/><path d="M154.25.6h165.6v169.846c0 23.451-37.07 42.462-82.8 42.462-45.729 0-82.8-19.011-82.8-42.462V.6z" fill-opacity=".2" fill="url(#U)" fill-rule="nonzero" transform="translate(497.55 561.6)"/><g transform="translate(695 600)" fill="url(#V)"><path d="M68 0c4.854 0 8.8 3.946 8.8 8.8v52.8c0 4.854-3.946 8.8-8.8 8.8H8.8c-4.854 0-8.8-3.946-8.8-8.8V8.8C0 3.946 3.946 0 8.8 0H68zm3.999 15.999h-67.2L4.8 61.6c0 2.205 1.795 4 4 4H68c2.205 0 4-1.795 4-4l-.001-45.601zM23.296 29.501l10.4 10.4a2.4 2.4 0 010 3.395l-10.4 10.4a2.381 2.381 0 01-1.696.704 2.4 2.4 0 01-1.696-4.1l8.7-8.7-8.703-8.704a2.4 2.4 0 113.395-3.395zM55.2 49.6a2.4 2.4 0 010 4.8H40.8a2.4 2.4 0 010-4.8h14.4zM68 4.8H8.8c-2.205 0-4 1.795-4 4l-.001 2.399h67.2L72 8.8c0-2.205-1.795-4-4-4z"/></g></g><g><path d="M237.351 551.715c89.817 0 162.629-38.26 162.629-85.457 0-47.196-72.812-85.457-162.629-85.457s-162.629 38.26-162.629 85.457c0 47.197 72.812 85.457 162.63 85.457z" stroke="#F7C8B4" stroke-width="1.2" opacity=".4"/><path d="M236.876 602.04c129.998 0 235.383-55.478 235.383-123.913S366.874 354.215 236.876 354.215c-130 0-235.384 55.477-235.384 123.912S106.877 602.04 236.876 602.04z" stroke="#F7C8B4" stroke-width="1.2" opacity=".1"/><path d="M238.213 524.45c63.293 0 114.603-27.189 114.603-60.727 0-33.539-51.31-60.728-114.603-60.728-63.294 0-114.604 27.189-114.604 60.728 0 33.538 51.31 60.727 114.604 60.727z" stroke="#F7C8B4" stroke-width="1.2"/><path d="M156 458.308h2.182c8.536-15.273 41.122-17.108 80.018-17.108h1.36c38.293.045 70.221 2.014 78.658 17.107l2.182.001v8.839c0 23.446-36.802 42.453-82.2 42.453S156 490.593 156 467.147v-8.839z" fill="#F7C8B4"/><path d="M83.137 85.213c45.397 0 82.2-19.073 82.2-42.6s-36.803-42.6-82.2-42.6c-45.398 0-82.2 19.073-82.2 42.6s36.802 42.6 82.2 42.6z" fill="url(#W)" transform="translate(155.063 412.387)"/><path d="M154.25.6h165.6v169.846c0 23.451-37.07 42.462-82.8 42.462-45.729 0-82.8-19.011-82.8-42.462V.6z" fill-opacity=".2" fill="url(#X)" transform="translate(.55 284.6)"/><path d="M237.463 16C254.301 16 268 29.785 268 46.73c0 4.893-1.11 9.57-3.297 13.901a30.988 30.988 0 01-8.157 10.088l1.967 6.681a1.206 1.206 0 01-.807 1.497 1.195 1.195 0 01-1.487-.813l-2.198-7.467c-.141-.48.028-.999.424-1.301 7.094-5.41 11.163-13.642 11.163-22.586 0-15.617-12.626-28.323-28.145-28.323s-28.145 12.706-28.145 28.323v1.284c0 .2-.049.396-.143.57l-8.31 15.531 7.728 3.334c.44.19.725.625.725 1.106v16.77h16.57c.544 0 1.02.37 1.157.9l2.646 10.271a1.216 1.216 0 01-.814 1.455 1.207 1.207 0 01-1.501-.851l-2.414-9.368h-16.84a1.2 1.2 0 01-1.195-1.204v-17.18l-8.206-3.538a1.22 1.22 0 01-.582-1.677l8.788-16.422v-.98c0-16.946 13.698-30.731 30.536-30.731zm21.094 65.785a1.196 1.196 0 011.486.812l4.08 13.86a1.216 1.216 0 01-.743 1.474 1.206 1.206 0 01-1.55-.79l-4.08-13.86a1.205 1.205 0 01.807-1.496zm-21.094-47.812c6.99 0 12.677 5.723 12.677 12.757 0 4.623-2.425 8.799-6.378 11.072v.563h.08a1.2 1.2 0 011.196 1.204v2.647h.08a1.2 1.2 0 011.195 1.204 1.2 1.2 0 01-1.196 1.203h-.08v1.284h.08a1.2 1.2 0 011.196 1.203 1.2 1.2 0 01-1.196 1.204h-.166c-.496 3-3.092 5.296-6.212 5.296h-2.551c-3.12 0-5.717-2.296-6.213-5.296h-.166a1.2 1.2 0 01-1.196-1.204 1.2 1.2 0 011.196-1.203h.08v-1.284h-.08a1.2 1.2 0 01-1.196-1.203 1.2 1.2 0 011.196-1.204h.08V59.57a1.2 1.2 0 011.196-1.204h.08v-.563c-3.954-2.273-6.379-6.449-6.379-11.072 0-7.034 5.687-12.757 12.677-12.757zm-5.041 34.34c.455 1.664 1.97 2.89 3.766 2.89h2.55c1.796 0 3.312-1.226 3.767-2.89h-10.083zm10.223-3.69H232.28v1.284h10.365v-1.284zm0-3.851H232.28v1.444h10.365v-1.444zm-5.182-24.392c-5.671 0-10.285 4.643-10.285 10.35 0 3.957 2.19 7.51 5.715 9.273.406.204.663.62.663 1.078v1.284h2.711v-7.863h-2.63a1.2 1.2 0 01-1.197-1.204v-3.851a1.2 1.2 0 011.196-1.204 1.2 1.2 0 011.196 1.204v2.647h5.262v-2.647a1.2 1.2 0 011.196-1.204 1.2 1.2 0 011.196 1.204v3.851a1.2 1.2 0 01-1.196 1.204h-2.63v7.863h2.71V57.08c0-.457.257-.874.664-1.078 3.525-1.763 5.715-5.316 5.715-9.273 0-5.707-4.614-10.35-10.286-10.35zm-13.855 17.01a1.192 1.192 0 011.633.442c.33.575.135 1.311-.437 1.643l-2.21 1.284c-.188.11-.394.162-.596.162a1.21 1.21 0 01-1.171-.95 1.219 1.219 0 01.571-1.297l2.21-1.283zm26.077.442a1.191 1.191 0 011.633-.441l2.21 1.283c.52.303.74.97.498 1.525a1.204 1.204 0 01-1.694.56l-2.21-1.284a1.207 1.207 0 01-.437-1.643zm-27.53-8.305a1.2 1.2 0 011.196 1.203 1.2 1.2 0 01-1.196 1.204h-2.551a1.2 1.2 0 01-1.197-1.204 1.2 1.2 0 011.197-1.203h2.55zm33.168 0a1.2 1.2 0 011.196 1.203 1.2 1.2 0 01-1.196 1.204h-2.551a1.2 1.2 0 01-1.196-1.204 1.2 1.2 0 011.196-1.203h2.551zm-34.362-8.385a1.192 1.192 0 011.633-.44l2.21 1.283c.52.303.74.97.498 1.525a1.204 1.204 0 01-1.694.56l-2.21-1.284a1.207 1.207 0 01-.437-1.644zm31.371-.44a1.192 1.192 0 011.634.44c.33.576.134 1.312-.438 1.645l-2.21 1.283c-.67.39-1.548.024-1.752-.725a1.223 1.223 0 01.558-1.36c.202-.123.409-.238.612-.356l1.596-.927zm-24.396-6.579a1.191 1.191 0 011.633.44l1.276 2.224c.45.786-.128 1.805-1.035 1.805-.44 0-.824-.242-1.046-.617-.432-.73-.844-1.472-1.267-2.208a1.208 1.208 0 01.439-1.644zm17.421.44a1.192 1.192 0 011.634-.44c.572.332.768 1.069.438 1.644l-1.276 2.224a1.194 1.194 0 01-1.037.601c-.906 0-1.485-1.02-1.034-1.805l1.275-2.223zm-7.894-3.009a1.2 1.2 0 011.196 1.203v2.568a1.2 1.2 0 01-1.196 1.204 1.2 1.2 0 01-1.196-1.204v-2.568a1.2 1.2 0 011.196-1.203z" fill="url(#Y)" transform="translate(0 284)"/><path d="M249.65 123.884c4.776 0 8.649-2.213 8.649-4.942 0-2.73-3.873-4.942-8.65-4.942S241 116.213 241 118.942c0 2.73 3.872 4.942 8.65 4.942zM302.65 233.884c4.776 0 8.649-2.213 8.649-4.942 0-2.73-3.873-4.942-8.65-4.942S294 226.213 294 228.942c0 2.73 3.872 4.942 8.65 4.942zM135.65 208.884c4.776 0 8.649-2.213 8.649-4.942 0-2.73-3.873-4.942-8.65-4.942S127 201.213 127 203.942c0 2.73 3.872 4.942 8.65 4.942z" fill="url(#Z)" transform="translate(0 284)"/></g><g><path d="M1211.351 559.715c89.817 0 162.629-38.26 162.629-85.457 0-47.196-72.812-85.457-162.629-85.457s-162.629 38.26-162.629 85.457c0 47.197 72.812 85.457 162.63 85.457z" stroke="#8BD1FF" stroke-width="1.2" opacity=".4"/><path d="M1210.876 610.04c129.998 0 235.383-55.478 235.383-123.913s-105.385-123.912-235.383-123.912c-130 0-235.384 55.477-235.384 123.912s105.385 123.913 235.384 123.913z" stroke="#8BD1FF" stroke-width="1.2" opacity=".1"/><path d="M1212.213 532.45c63.293 0 114.603-27.189 114.603-60.727 0-33.539-51.31-60.728-114.603-60.728-63.294 0-114.604 27.189-114.604 60.728 0 33.538 51.31 60.727 114.604 60.727z" stroke="#8BD1FF" stroke-width="1.2"/><path d="M1206.8 529.248c2.458-1.235 6.536-1.069 9.107.425 1.782 1.035 2.457 2.392 2.502 3.572.028.764-.195 1.524-.72 2.219-.384.508-.948.993-1.728 1.385-2.459 1.235-6.537 1.069-9.108-.425-1.782-1.035-2.457-2.392-2.501-3.571-.029-.765.195-1.525.72-2.22.383-.508.947-.993 1.727-1.385zM1096.606 454.619c2.458-1.235 6.536-1.07 9.107.424 1.783 1.036 2.458 2.393 2.502 3.572.028.765-.195 1.525-.72 2.22-.383.507-.948.993-1.728 1.385-2.459 1.234-6.537 1.069-9.108-.425-1.782-1.035-2.457-2.392-2.501-3.572-.029-.764.195-1.524.72-2.219.383-.508.947-.993 1.728-1.385zM1301.6 434.448c2.458-1.235 6.536-1.069 9.107.425 1.782 1.035 2.457 2.392 2.502 3.572.028.764-.195 1.524-.72 2.219-.384.508-.948.993-1.728 1.385-2.459 1.235-6.537 1.069-9.108-.425-1.782-1.035-2.457-2.392-2.501-3.571-.029-.765.195-1.525.72-2.22.383-.508.947-.993 1.727-1.385z" stroke-opacity=".216" stroke="#432A9D" stroke-width="3.6" fill="#FFF"/><path d="M.937 45.921h2.182c8.536-15.272 41.122-17.108 80.018-17.108h1.359c38.294.045 70.222 2.014 78.659 17.107l2.182.001v8.839c0 23.446-36.803 42.453-82.2 42.453-45.398 0-82.2-19.007-82.2-42.453V45.92z" fill="url(#aa)" opacity=".531" transform="translate(1129.063 420.387)"/><path d="M83.137 85.213c45.397 0 82.2-19.073 82.2-42.6s-36.803-42.6-82.2-42.6c-45.398 0-82.2 19.073-82.2 42.6s36.802 42.6 82.2 42.6z" fill="url(#ab)" transform="translate(1129.063 420.387)"/><path d="M154.25.6h165.6v169.846c0 23.451-37.07 42.462-82.8 42.462-45.729 0-82.8-19.011-82.8-42.462V.6z" fill="url(#ac)" transform="translate(974.55 292.6)"/></g></g></svg>