<svg xmlns="http://www.w3.org/2000/svg" width="165" height="133" viewBox="0 0 165 133"><defs><linearGradient id="a" x1="1" y1="1" x2=".124" y2=".096" gradientUnits="objectBoundingBox"><stop offset="0" stop-color="#fbf9ff"/><stop offset="1" stop-color="#e1dbee"/></linearGradient><linearGradient id="b" x1="1" y1="1" x2="0" gradientUnits="objectBoundingBox"><stop offset="0" stop-color="#2f73ef"/><stop offset="1" stop-color="#0ad0bf"/></linearGradient><linearGradient id="c" y1="1" x2=".86" y2=".137" gradientUnits="objectBoundingBox"><stop offset="0" stop-color="#ff586f"/><stop offset="1" stop-color="#ffad6b"/></linearGradient></defs><rect width="113" height="102" rx="10" transform="translate(32 15)" fill="url(#a)"/><g data-name="Group 14" transform="translate(44 28)"><rect data-name="Rectangle" width="89" height="23" rx="5" fill="#fff"/><rect data-name="Rectangle" width="25" height="3" rx="1.5" transform="translate(20 8)" fill="rgba(116,89,237,0.2)"/><rect data-name="Rectangle Copy 19" width="38" height="3" rx="1.5" transform="translate(20 14)" fill="rgba(116,89,237,0.2)"/><rect data-name="Rectangle Copy 18" width="25" height="3" rx="1.5" transform="translate(48 8)" fill="rgba(116,89,237,0.2)"/></g><g data-name="Group 14" transform="translate(44 54)"><rect data-name="Rectangle" width="89" height="23" rx="5" fill="#fff"/><rect data-name="Rectangle" width="25" height="3" rx="1.5" transform="translate(20 8)" fill="rgba(116,89,237,0.2)"/><rect data-name="Rectangle Copy 19" width="38" height="3" rx="1.5" transform="translate(20 14)" fill="rgba(116,89,237,0.2)"/><rect data-name="Rectangle Copy 18" width="25" height="3" rx="1.5" transform="translate(48 8)" fill="rgba(116,89,237,0.2)"/></g><g data-name="Group 14" transform="translate(44 81)"><rect data-name="Rectangle" width="89" height="23" rx="5" fill="#fff"/><rect data-name="Rectangle" width="25" height="3" rx="1.5" transform="translate(20 6)" fill="#7459ed" opacity=".202"/><rect data-name="Rectangle Copy 19" width="38" height="3" rx="1.5" transform="translate(20 12)" fill="#7459ed" opacity=".202"/><rect data-name="Rectangle Copy 18" width="25" height="3" rx="1.5" transform="translate(48 6)" fill="#7459ed" opacity=".202"/></g><rect data-name="Rectangle" width="44" height="44" rx="6" transform="translate(121 89)" fill="url(#b)"/><path data-name="Combined Shape" d="M40.845 36h12.413l6.089 10.573zM6 36a6 6 0 01-6-6V6a6 6 0 016-6h55a6 6 0 016 6v24a6 6 0 01-6 6z" fill="url(#c)"/><path d="M150.248 111.958l-12.8 8A1.6 1.6 0 01135 118.6v-16a1.6 1.6 0 012.448-1.356l12.8 8a1.6 1.6 0 010 2.714" fill="#fff"/></svg>