<svg xmlns="http://www.w3.org/2000/svg" xmlns:xlink="http://www.w3.org/1999/xlink" width="158" height="145" viewBox="0 0 158 145"><defs><linearGradient id="d" x1="1" y1="1" x2=".124" y2=".096" gradientUnits="objectBoundingBox"><stop offset="0" stop-color="#fbf9ff"/><stop offset="1" stop-color="#e1dbee"/></linearGradient><linearGradient id="c" y1="-548.03" x2="1" y2="-548.03" gradientUnits="objectBoundingBox"><stop offset="0" stop-color="#3757ff"/><stop offset="1" stop-color="#567dff"/></linearGradient><linearGradient id="a" y1=".5" x2="1" y2=".5" gradientUnits="objectBoundingBox"><stop offset="0" stop-color="#e377a6"/><stop offset="1" stop-color="#f76193"/></linearGradient><linearGradient id="b" y1=".5" x2="1" y2=".5" gradientUnits="objectBoundingBox"><stop offset="0" stop-color="#83dde1"/><stop offset="1" stop-color="#60c1f2"/></linearGradient><linearGradient id="e" x1="-5.605" y1="-600.03" y2="-600.03" xlink:href="#a"/><linearGradient id="f" x1="-18.538" y1="-606.53" y2="-606.53" xlink:href="#b"/><linearGradient id="g" y1="-613.03" y2="-613.03" xlink:href="#c"/><linearGradient id="i" x1=".985" y1=".96" x2="0" gradientUnits="objectBoundingBox"><stop offset="0" stop-color="#a99cf4"/><stop offset="1" stop-color="#4435bd"/></linearGradient><radialGradient id="h" cx=".111" cy="0" r="1.218" gradientUnits="objectBoundingBox"><stop offset="0" stop-color="#1abfff"/><stop offset="1" stop-color="#2a97ff"/></radialGradient></defs><rect data-name="Rectangle Copy 20" width="97" height="112" rx="10" transform="translate(17 16)" fill="url(#d)"/><path d="M105.5 120H26V24h79.5v24h0v24h0v24h0v24z" fill="none" stroke="#7855d5" stroke-miterlimit="10" opacity=".27"/><g data-name="Group 20"><g data-name="Rectangle 2" transform="translate(91)"><rect width="67" height="38" rx="6" fill="#132172"/><circle cx="1.5" cy="1.5" r="1.5" transform="translate(10 9)" fill="#fff"/><circle data-name="Oval Copy 10" cx="1.5" cy="1.5" r="1.5" transform="translate(10 17)" fill="#fff"/><circle data-name="Oval Copy 11" cx="1.5" cy="1.5" r="1.5" transform="translate(10 25)" fill="#fff"/></g><path d="M1.615 3h17.77A1.561 1.561 0 0021 1.5 1.561 1.561 0 0019.385 0H1.615A1.561 1.561 0 000 1.5 1.561 1.561 0 001.615 3z" transform="translate(108 9)" fill="url(#c)"/><path data-name="Path" d="M1.584 3h26.832A1.544 1.544 0 0030 1.5 1.544 1.544 0 0028.416 0H1.584A1.544 1.544 0 000 1.5 1.544 1.544 0 001.584 3z" transform="translate(108 17)" fill="url(#a)"/><path data-name="Path" d="M41.407 0H1.593A1.548 1.548 0 000 1.5 1.548 1.548 0 001.593 3h39.814A1.548 1.548 0 0043 1.5 1.548 1.548 0 0041.407 0z" transform="translate(108 25)" fill="url(#b)"/></g><g data-name="Group 19" transform="translate(91 43)"><rect data-name="Rectangle Copy 22" width="67" height="38" rx="6" fill="#132172"/><circle data-name="Oval" cx="1.5" cy="1.5" r="1.5" transform="translate(10 10)" fill="#fff"/><circle data-name="Oval Copy 10" cx="1.5" cy="1.5" r="1.5" transform="translate(10 17)" fill="#fff"/><circle data-name="Oval Copy 11" cx="1.5" cy="1.5" r="1.5" transform="translate(10 24)" fill="#fff"/><g data-name="Group 18"><path data-name="Path" d="M32.8 0H1.6a1.6 1.6 0 000 3.2h31.2a1.6 1.6 0 000-3.2z" fill="url(#e)" transform="translate(17 10)"/><path data-name="Path" d="M1.6 3.2h7.2a1.6 1.6 0 100-3.2H1.6a1.6 1.6 0 000 3.2z" transform="translate(17 16.4)" fill="url(#f)"/><path data-name="Path" d="M19.2 0H1.6a1.6 1.6 0 000 3.2h17.6a1.6 1.6 0 100-3.2z" transform="translate(17 23.6)" fill="url(#g)"/></g></g><rect data-name="Rectangle Copy 21" width="44" height="44" rx="6" transform="translate(0 101)" fill="url(#h)"/><path data-name="Combined Shape" d="M10.851 130.157a1.183 1.183 0 010-1.677l7.5-7.48-7.505-7.478a1.183 1.183 0 01-.092-1.567l.092-.1.112-.1a1.189 1.189 0 011.57.093L21.709 121l-9.181 9.151a1.188 1.188 0 01-1.677.006zm9.649.343a1 1 0 01-.116-1.993l.116-.007h12a1 1 0 01.117 1.993l-.117.007z" fill="#fff"/><g data-name="Group 17" transform="translate(57 101)" opacity=".472" fill="url(#i)"><path data-name="Combined Shape" d="M11.847 9.946a.406.406 0 01.159-.267.374.374 0 01.292-.068.389.389 0 01.257.167.429.429 0 01.068.307L12.48 11l.055-.062a7.26 7.26 0 00-.6-9.914l-.044-.04a.429.429 0 01-.107-.409.411.411 0 01.29-.3.39.39 0 01.387.125c.152.139.294.284.437.438a8.1 8.1 0 01-.187 11.084l1.431-.247v-.005a.379.379 0 01.293.072.411.411 0 01.158.268.419.419 0 01-.065.307.386.386 0 01-.255.167L11.354 13zM2.808 12.3a.39.39 0 01-.261-.1A8.106 8.106 0 011.84 1.159l-.984.175a.381.381 0 01-.293-.071A.416.416 0 01.4.995a.422.422 0 01.328-.48L3.644 0l-.492 3.049a.4.4 0 01-.388.345H2.69a.385.385 0 01-.253-.165.424.424 0 01-.067-.3L2.6 1.5a2.1 2.1 0 00-.138.159A7.235 7.235 0 00.8 6.754a7.148 7.148 0 002.268 4.825.426.426 0 01.113.459.394.394 0 01-.368.267zM38.133 6A1.934 1.934 0 1142 6a1.934 1.934 0 11-3.866 0zm-8.567 0a1.935 1.935 0 113.867 0 1.935 1.935 0 11-3.867 0zM21 6a1.968 1.968 0 011.933-2 1.968 1.968 0 011.934 2 1.967 1.967 0 01-1.934 2A1.967 1.967 0 0121 6z"/></g></svg>