<svg xmlns="http://www.w3.org/2000/svg" width="127" height="155.252" viewBox="0 0 127 155.252"><defs><linearGradient id="a" x1="1" y1="1" x2=".124" y2=".096" gradientUnits="objectBoundingBox"><stop offset="0" stop-color="#fbf9ff"/><stop offset="1" stop-color="#e1dbee"/></linearGradient><linearGradient id="c" x1="1" y1="1" x2="0" gradientUnits="objectBoundingBox"><stop offset="0" stop-color="#2f73ef"/><stop offset="1" stop-color="#0ad0bf"/></linearGradient><linearGradient id="d" y1="1" x2=".86" y2=".137" gradientUnits="objectBoundingBox"><stop offset="0" stop-color="#ff586f"/><stop offset="1" stop-color="#ffad6b"/></linearGradient><linearGradient id="e" x1=".082" x2=".644" y2="1" gradientUnits="objectBoundingBox"><stop offset="0" stop-color="#837dff"/><stop offset="1" stop-color="#514aef"/></linearGradient><radialGradient id="b" cx=".111" cy="0" r="1.218" gradientUnits="objectBoundingBox"><stop offset="0" stop-color="#1abfff"/><stop offset="1" stop-color="#2a97ff"/></radialGradient></defs><path d="M2.286.273l47.428 27.276A5.447 5.447 0 0152 31.9v42.5c0 1.677-1.023 2.447-2.286 1.721L2.286 48.845A5.447 5.447 0 010 44.494v-42.5C0 .318 1.023-.453 2.286.273z" transform="translate(75 75)" opacity=".5" fill="url(#a)"/><path data-name="Path" d="M104.183 42.721a20.286 20.286 0 00.179-2.624c0-11.163-7.936-24.767-17.726-30.383-5.69-3.263-10.738-3.092-13.982-.2a28.354 28.354 0 00-8.176-7.453C56.154-2.718 49.409 1.1 49.409 10.6c0 .094.011.192.013.288C42.364 8.269 37 12.2 37 20.662c0 9.49 6.747 21.052 15.068 25.826l47.864 27.456C108.253 78.718 115 74.9 115 65.4c0-7.8-4.566-16.994-10.817-22.679z" fill="#120347" opacity=".2"/><path data-name="Path" d="M2.286.273l47.428 27.276A5.447 5.447 0 0152 31.9v42.5c0 1.677-1.023 2.447-2.286 1.721L2.286 48.845A5.447 5.447 0 010 44.494v-42.5C0 .318 1.023-.453 2.286.273z" transform="translate(51 75)" opacity=".12" fill="url(#b)"/><path data-name="Path" d="M2.286.273l47.428 27.276A5.447 5.447 0 0152 31.9v42.5c0 1.677-1.023 2.447-2.286 1.721L2.286 48.845A5.447 5.447 0 010 44.494v-42.5C0 .318 1.023-.453 2.286.273z" transform="translate(23 75)" opacity=".465" fill="url(#c)"/><path data-name="Path" d="M2.286.273l47.428 27.276A5.447 5.447 0 0152 31.9v42.5c0 1.677-1.023 2.447-2.286 1.721L2.286 48.845A5.447 5.447 0 010 44.494v-42.5C0 .318 1.023-.453 2.286.273z" transform="translate(0 78.858)" fill="url(#d)"/><path data-name="Path" d="M67.183 42.721a20.286 20.286 0 00.179-2.624c0-11.163-7.936-24.767-17.726-30.383-5.69-3.263-10.738-3.092-13.982-.2a28.354 28.354 0 00-8.176-7.453C19.154-2.718 12.409 1.1 12.409 10.6c0 .094.011.192.013.288C5.364 8.269 0 12.2 0 20.662c0 9.49 6.747 21.052 15.068 25.826l47.864 27.456C71.253 78.718 78 74.9 78 65.4c0-7.8-4.566-16.994-10.817-22.679z" transform="translate(30 3)" fill="url(#e)"/><path data-name="Path 56" d="M33.572 82.975v-9.449a4 4 0 015.968-3.483l8.141 4.6a3 3 0 004.476-2.612V52.975" fill="none" stroke="#896ff2" stroke-linecap="round" stroke-miterlimit="10" stroke-width="2"/><path data-name="Path 56 Copy" d="M89.584 93v-9.449a4 4 0 00-5.968-3.483l-8.141 4.6a3 3 0 01-4.476-2.612V64" fill="none" stroke="#896ff2" stroke-linecap="round" stroke-miterlimit="10" stroke-width="2"/><g data-name="Group 21"><path d="M9.584 94.1l20.432 12.639a1.279 1.279 0 01.584.951v1.179c0 .326-.261.428-.584.228L9.584 96.46A1.279 1.279 0 019 95.509V94.33c0-.33.261-.43.584-.23z" fill="#120347"/><path data-name="Rectangle" d="M15.205 103.611l21.19 12.621a1.272 1.272 0 01.605.95v1.179c0 .326-.271.428-.605.229l-21.19-12.619a1.272 1.272 0 01-.605-.951v-1.178c0-.331.271-.431.605-.231z" fill="#fff"/><path data-name="Rectangle" d="M9.576 105.89l13.248 8.311a1.282 1.282 0 01.576.951v1.178c0 .326-.258.428-.576.228L9.576 108.25a1.282 1.282 0 01-.576-.951v-1.179c0-.33.258-.43.576-.23z" fill="#ede8fe"/><path data-name="Rectangle" d="M21.56 118.998l4.48 2.9a1.29 1.29 0 01.56.951v1.174c0 .326-.251.428-.56.228l-4.48-2.893a1.29 1.29 0 01-.56-.951v-1.179c0-.33.251-.43.56-.23zM28.8 123.325l1.2.723a1.274 1.274 0 01.6.95v1.179c0 .326-.269.428-.6.229l-1.2-.721a1.274 1.274 0 01-.6-.95v-1.18c0-.33.269-.43.6-.23zM39.171 118.038l2.858 1.809a1.284 1.284 0 01.571.951v1.179c0 .326-.256.428-.571.228l-2.858-1.807a1.284 1.284 0 01-.571-.951v-1.179c0-.33.256-.43.571-.23z" fill="#fff"/></g></svg>