<svg xmlns="http://www.w3.org/2000/svg" width="494.438" height="310.365" viewBox="0 0 494.438 310.365"><defs><linearGradient id="a" x1=".421" y1="1" x2=".733" y2=".258" gradientUnits="objectBoundingBox"><stop offset="0" stop-color="#26259e"/><stop offset="1" stop-color="#5f50cc"/></linearGradient><linearGradient id="k" y1=".5" x2="1" y2=".5" gradientUnits="objectBoundingBox"><stop offset="0" stop-color="#83dde1"/><stop offset="1" stop-color="#60c1f2"/></linearGradient><linearGradient id="c" y1=".269" x2="1" y2=".88" gradientUnits="objectBoundingBox"><stop offset="0" stop-color="#dbd0ff"/><stop offset="1" stop-color="#4e3cdf"/></linearGradient><linearGradient id="d" x1="-.08" y1=".354" x2="1" y2=".742" gradientUnits="objectBoundingBox"><stop offset="0" stop-color="#5f50cc"/><stop offset="1" stop-color="#26259e"/></linearGradient><linearGradient id="j" x1="-5.605" y1="-600.03" x2="1" y2="-600.03" gradientUnits="objectBoundingBox"><stop offset="0" stop-color="#e377a6"/><stop offset="1" stop-color="#f76193"/></linearGradient><linearGradient id="b" x1="-.08" y1=".354" x2="1" y2=".742" gradientUnits="objectBoundingBox"><stop offset="0" stop-color="#5f50cc" stop-opacity=".102"/><stop offset="1" stop-color="#26259e" stop-opacity=".102"/></linearGradient><linearGradient id="i" x1=".419" y1=".798" x2="1" y2=".318" gradientUnits="objectBoundingBox"><stop offset="0" stop-color="#fbf9ff"/><stop offset="1" stop-color="#ebe5ff"/></linearGradient><linearGradient id="h" x1=".252" y1=".702" x2=".672" y2=".727" gradientUnits="objectBoundingBox"><stop offset="0" stop-color="#f6f3ff"/><stop offset="1" stop-color="#d6cafe"/></linearGradient><clipPath id="g"><path data-name="Clip 107" d="M0 0h35.552v30.789H0z" transform="translate(.277 .253)" fill="none"/></clipPath><clipPath id="e"><path d="M135.488 13.665c31.095 18.22 31.355 47.762.39 65.982s-81.315 18.22-112.41 0-31.355-47.762-.39-65.982 81.315-18.22 112.41 0z" fill="url(#a)"/></clipPath><clipPath id="f"><path data-name="Clip 102" d="M0 0h106.656v61.578H0z" transform="translate(.032 .317)" fill="none"/></clipPath></defs><g data-name="Group 37"><g data-name="Group 36"><g transform="translate(90.839 93.015)" stroke-miterlimit="10" fill="url(#b)"><path d="M266.585 26.887c61.182 35.849 61.694 93.977.768 129.826s-159.995 35.849-221.177 0-61.694-93.977-.768-129.826 159.992-35.849 221.177 0z"/><path d="M155.9.75c-9.982 0-20.003.564-29.784 1.676-9.873 1.122-19.589 2.813-28.876 5.025-9.456 2.253-18.565 5.07-27.074 8.372-8.726 3.387-16.928 7.327-24.378 11.71-7.408 4.36-14.06 9.152-19.772 14.245-5.557 4.955-10.292 10.255-14.074 15.752-3.705 5.385-6.534 11.015-8.408 16.734C1.681 79.918.744 85.71.75 91.48c.005 5.82.97 11.668 2.865 17.381 1.915 5.775 4.8 11.463 8.574 16.906 3.85 5.554 8.664 10.908 14.308 15.915 5.8 5.145 12.55 9.984 20.058 14.384 7.481 4.384 15.712 8.324 24.462 11.71 8.533 3.303 17.662 6.12 27.135 8.373 9.303 2.212 19.03 3.903 28.912 5.025a265.046 265.046 0 0029.796 1.676c9.982 0 20.003-.564 29.784-1.676 9.874-1.122 19.589-2.813 28.877-5.025 9.456-2.253 18.565-5.07 27.074-8.372 8.725-3.387 16.927-7.327 24.377-11.71 7.408-4.36 14.06-9.152 19.773-14.245 5.557-4.955 10.292-10.255 14.073-15.752 3.705-5.385 6.534-11.015 8.408-16.734 1.853-5.654 2.79-11.446 2.784-17.216-.005-5.82-.969-11.668-2.864-17.381-1.916-5.775-4.8-11.463-8.574-16.906-3.85-5.554-8.664-10.908-14.309-15.915-5.8-5.145-12.549-9.984-20.057-14.384-7.482-4.384-15.712-8.324-24.463-11.71-8.532-3.303-17.662-6.12-27.134-8.373-9.304-2.212-19.031-3.903-28.913-5.025A265.046 265.046 0 00155.9.75m0-.75c40.03 0 80.094 8.962 110.685 26.887 61.182 35.85 61.694 93.977.768 129.826C236.89 174.638 196.89 183.6 156.86 183.6c-40.03 0-80.093-8.962-110.684-26.887-61.182-35.85-61.694-93.977-.768-129.826C75.87 8.962 115.87 0 155.9 0z" fill="rgba(45,43,164,0.5)"/></g><g data-name="Group 35"><g data-name="Group 34"><path d="M212.396 205.486c-4.3-5.395-5.54-11.3-3.645-17.132 2.839-8.82 12.831-16.329 26.682-20.05 23.62-6.342 51.9-.219 62.986 13.705 4.3 5.395 5.54 11.3 3.645 17.131-2.843 8.821-12.83 16.33-26.681 20.048a76.924 76.924 0 01-19.61 2.479c-17.935.003-35.283-5.975-43.377-16.181z" fill="#bef8f9"/><g data-name="Group"><path data-name="Shape" d="M119.249 142.884a192.473 192.473 0 01-44.216-5 140.261 140.261 0 01-38.839-15.1C12.854 109.1 0 90.72 0 71.038a45.978 45.978 0 012.328-14.394A52.917 52.917 0 019.18 43.069a69.149 69.149 0 0111.18-12.4 94.7 94.7 0 0115.31-10.85A139.561 139.561 0 0174.015 4.952a195.533 195.533 0 0187.858.092 141.505 141.505 0 0138.858 15.124c23.34 13.685 36.194 32.061 36.194 51.743a45.978 45.978 0 01-2.325 14.395 52.918 52.918 0 01-6.852 13.575 69.151 69.151 0 01-11.18 12.4 94.7 94.7 0 01-15.31 10.855 140.414 140.414 0 01-38.315 14.793 190.306 190.306 0 01-43.694 4.955zm-1.4-131.805c-28.978 0-56.115 6.518-76.411 18.355-19.281 11.391-29.9 26.042-29.9 41.255 0 15.5 10.8 30.4 30.424 41.953 20.733 12.062 48.18 18.7 77.285 18.7 28.979 0 56.115-6.519 76.411-18.356 19.281-11.39 29.9-26.041 29.9-41.254 0-15.5-10.8-30.395-30.424-41.954-20.729-12.056-48.176-18.699-77.283-18.699z" transform="translate(131.186 118.152)" fill="url(#c)"/></g><g data-name="Group"><path data-name="Path" d="M182.062 18.362c41.784 24.483 42.133 64.18.524 88.663s-109.267 24.483-151.051 0-42.133-64.18-.524-88.663 109.267-24.483 151.051 0z" fill="url(#d)" transform="translate(142.85 126.9)"/><g data-name="Group 308"><path data-name="Mask" d="M135.488 13.665c31.095 18.22 31.355 47.762.39 65.982s-81.315 18.22-112.41 0-31.355-47.762-.39-65.982 81.315-18.22 112.41 0z" fill="url(#a)" transform="translate(169.823 154.602)"/><g data-name="Group 308" clip-path="url(#e)" transform="translate(169.823 154.602)"><g data-name="Group 308"><path data-name="Fill 3" d="M105.816 117.612L69.825 43.818l-40.952-2.865 35.988 73.792z" fill="#00e8cc"/><path data-name="Fill 4" d="M64.861 114.745l-5.739 8.509-35.988-73.792 5.739-8.509z" fill="#00b0b5"/><path data-name="Fill 5" d="M59.126 123.256l40.952 2.864 5.74-8.508-40.953-2.864z" fill="#00935d"/><path data-name="Fill 6" d="M72.443 112.488l-8.124-5.79L36.31 49.38l-.117-.24 3.066-5.384 22.588 1.599 8.123 5.791 28.009 57.318.117.238-3.065 5.385-22.587-1.598zm-10.95-66.15L39.82 44.803l-2.487 4.374 27.776 56.851 7.685 5.48 21.677 1.531 2.488-4.373-27.78-56.848-7.685-5.48z" fill="#00ae64"/><g data-name="Group 307"><path data-name="Fill 7" d="M79.968 98.964c2.601 1.816 3.77 4.637 2.609 6.299s-4.211 1.538-6.81-.277-3.77-4.635-2.609-6.298 4.21-1.538 6.81.276" fill="#00ae64"/><path data-name="Fill 9" d="M76.55 103.819l-.035-.024a4.59 4.59 0 01-1.591-1.83l-.6-.043-.202-.416.606.047a1.4 1.4 0 01-.004-1.312 1.059 1.059 0 01.988-.323 2.386 2.386 0 011.188.424 6.265 6.265 0 011.372 1.435l.023.032 1.688.123a2.652 2.652 0 00-.88-.955l-.034-.024.472-.579a4.554 4.554 0 011.321 1.554l.035.07.556.04.202.416-.563-.04a1.293 1.293 0 01-.027 1.221.969.969 0 01-.898.318 2.483 2.483 0 01-1.236-.439 5.958 5.958 0 01-1.287-1.31l-.03-.042-1.782-.129a3.169 3.169 0 00.946 1.009c.07.046.14.093.213.13l-.437.648zm.063-2.749a1.018 1.018 0 00-.502-.185.484.484 0 00-.433.138.68.68 0 00-.049.592l1.647.12-.034-.04a3.3 3.3 0 00-.629-.625zm3.558 1.278l-1.545-.113.11.12a2.779 2.779 0 00.474.447 1.05 1.05 0 00.537.185.431.431 0 00.387-.13.549.549 0 00.041-.506z" fill="#00e894"/><path data-name="Fill 11" d="M58.196 53.21c2.602 1.815 3.77 4.636 2.61 6.298s-4.212 1.538-6.81-.276-3.77-4.636-2.61-6.299 4.212-1.537 6.81.276" fill="#00ae64"/><path data-name="Fill 13" d="M54.778 58.064l-.034-.024a4.6 4.6 0 01-1.592-1.83l-.6-.044-.203-.415.607.047a1.4 1.4 0 01-.003-1.312 1.059 1.059 0 01.986-.322 2.39 2.39 0 011.19.423 6.255 6.255 0 011.372 1.435l.023.033 1.687.122a2.652 2.652 0 00-.879-.955l-.035-.024.474-.578a4.545 4.545 0 011.32 1.553l.035.07.556.04.202.417-.564-.04a1.293 1.293 0 01-.026 1.22.969.969 0 01-.899.318 2.482 2.482 0 01-1.235-.439 5.953 5.953 0 01-1.287-1.311l-.03-.041-1.783-.13a3.176 3.176 0 00.947 1.01c.07.047.14.094.213.13l-.437.649zm.064-2.748a1.018 1.018 0 00-.502-.186.484.484 0 00-.433.138.681.681 0 00-.049.593l1.646.12-.033-.041a3.289 3.289 0 00-.629-.624zm3.558 1.277l-1.544-.112.11.12a2.775 2.775 0 00.472.447 1.05 1.05 0 00.538.185.431.431 0 00.387-.131.549.549 0 00.04-.506z" fill="#00e894"/><path data-name="Fill 15" d="M72.5 70.18c7.252 5.068 10.51 12.933 7.272 17.572s-11.744 4.283-18.995-.78-10.515-12.929-7.279-17.566 11.743-4.287 19.001.775" fill="#00ae64"/><path data-name="Fill 17" d="M62.957 83.712l-.098-.066a12.845 12.845 0 01-4.446-5.096l-1.67-.121-.567-1.163 1.694.124c-.592-1.564-.593-2.86-.002-3.658a2.953 2.953 0 012.752-.895 6.654 6.654 0 013.306 1.178 17.488 17.488 0 013.835 4.006l.062.086 4.714.344a7.419 7.419 0 00-2.47-2.661l-.083-.056 1.317-1.626a12.684 12.684 0 013.684 4.334l.094.193 1.554.113.568 1.162-1.58-.113a3.609 3.609 0 01-.073 3.41 2.7 2.7 0 01-2.503.883 6.931 6.931 0 01-3.451-1.225A16.517 16.517 0 0166 79.2l-.075-.108-4.966-.36a8.843 8.843 0 002.639 2.817c.195.131.395.253.598.366l-1.238 1.795zm.179-7.663a2.847 2.847 0 00-1.404-.519 1.346 1.346 0 00-1.204.386 1.9 1.9 0 00-.139 1.655l4.592.333-.087-.103a9.2 9.2 0 00-1.758-1.752zm9.923 3.557l-4.309-.308.234.253.088.097a7.732 7.732 0 001.312 1.235 2.919 2.919 0 001.478.508 1.206 1.206 0 001.083-.366 1.535 1.535 0 00.112-1.417z" fill="#00e894"/><path data-name="Fill 19" d="M61.57 86.37l-.306-.206a19.344 19.344 0 01-6.88-8.135c-1.266-3.057-1.162-5.887.289-7.967s4.079-3.16 7.383-3.022a19.243 19.243 0 019.7 3.447l.304.206a19.328 19.328 0 016.88 8.138c1.266 3.054 1.163 5.884-.291 7.968-1.416 2.028-3.969 3.1-7.186 3.016a19.048 19.048 0 01-9.893-3.445zm9.893-15.49a18.684 18.684 0 00-9.428-3.351c-3.133-.128-5.605.87-6.955 2.808s-1.441 4.604-.237 7.504a18.834 18.834 0 006.71 7.918l.331.223a18.583 18.583 0 009.509 3.349c3.088.103 5.527-.897 6.867-2.816 1.355-1.941 1.44-4.605.237-7.504a18.828 18.828 0 00-6.717-7.914 25.066 25.066 0 00-.317-.217z" fill="#00e894"/><path data-name="Fill 21" d="M42.134 88.466l5.754-8.53-4.143-8.477-5.753 8.53z" fill="#a7c3cf"/><path data-name="Fill 23" d="M47.888 79.936l40.985 2.879-4.142-8.476-40.986-2.88z" fill="#d4eef9"/><path data-name="Fill 25" d="M41.434 87.043l5.755-8.532-.19-.38-5.753 8.53z" fill="#d3688c"/><path data-name="Fill 27" d="M47.188 78.51l40.985 2.88-.187-.38L47 78.131z" fill="#ff9ebd"/><path data-name="Fill 29" d="M38.578 81.26l5.755-8.532-.19-.38-5.753 8.53z" fill="#d3688c"/><path data-name="Fill 31" d="M44.332 72.727l40.986 2.878-.188-.379-40.986-2.879z" fill="#ff9ebd"/><path data-name="Fill 33" d="M113.166 106.714L77.176 32.92l-40.953-2.865 35.988 73.794z" fill="#00e8cc"/><path data-name="Fill 35" d="M72.211 103.849l-5.738 8.507-35.989-73.792 5.74-8.509z" fill="#00b0b5"/><path data-name="Fill 37" d="M66.476 112.36l40.953 2.863 5.738-8.508-40.952-2.864z" fill="#00935d"/><path data-name="Fill 39" d="M79.793 101.59L71.67 95.8 43.66 38.482l-.117-.239 3.066-5.384 22.588 1.598 8.123 5.791 28.01 57.318.116.239-3.065 5.385-22.587-1.6zm-10.95-66.15L47.17 33.906l-2.488 4.374L72.458 95.13l7.685 5.48 21.678 1.53 2.488-4.373-27.78-56.848-7.685-5.48z" fill="#00ae64"/><path data-name="Fill 41" d="M87.318 88.066c2.602 1.816 3.77 4.637 2.61 6.299s-4.211 1.537-6.81-.277-3.77-4.635-2.61-6.298 4.211-1.537 6.81.276" fill="#00ae64"/><path data-name="Fill 43" d="M83.9 92.92l-.034-.023a4.59 4.59 0 01-1.592-1.83l-.6-.043-.202-.415.606.047a1.4 1.4 0 01-.003-1.313 1.059 1.059 0 01.987-.323 2.386 2.386 0 011.188.424 6.265 6.265 0 011.373 1.435l.023.032 1.687.123a2.652 2.652 0 00-.879-.955l-.035-.023.473-.58a4.554 4.554 0 011.32 1.554l.035.07.556.04.202.416-.563-.04a1.293 1.293 0 01-.026 1.222.968.968 0 01-.898.317 2.48 2.48 0 01-1.237-.44 5.941 5.941 0 01-1.287-1.31l-.03-.041-1.78-.129a3.169 3.169 0 00.945 1.009c.07.047.14.094.213.13l-.438.648zm.064-2.747a1.018 1.018 0 00-.502-.186.483.483 0 00-.434.138.68.68 0 00-.048.593l1.646.12-.034-.041a3.3 3.3 0 00-.628-.624zm3.558 1.277l-1.545-.113.11.12a2.78 2.78 0 00.474.448 1.05 1.05 0 00.537.185.431.431 0 00.387-.131.55.55 0 00.042-.507z" fill="#00e894"/><path data-name="Fill 45" d="M65.547 42.311c2.601 1.817 3.77 4.637 2.609 6.3s-4.21 1.536-6.81-.278-3.77-4.634-2.609-6.298 4.212-1.537 6.81.276" fill="#00ae64"/><path data-name="Fill 47" d="M62.128 47.167l-.034-.024a4.606 4.606 0 01-1.591-1.831l-.6-.043-.204-.415.607.047a1.4 1.4 0 01-.003-1.312 1.058 1.058 0 01.986-.323 2.386 2.386 0 011.188.423 6.261 6.261 0 011.374 1.436l.024.032 1.687.122a2.642 2.642 0 00-.88-.955l-.034-.023.473-.578a4.545 4.545 0 011.32 1.552l.035.07.557.04.202.417-.565-.04a1.293 1.293 0 01-.026 1.22.969.969 0 01-.899.318 2.484 2.484 0 01-1.237-.439 5.945 5.945 0 01-1.287-1.31l-.028-.041-1.782-.13a3.171 3.171 0 00.944 1.009c.07.047.141.095.216.13l-.438.65zm.065-2.75a1.018 1.018 0 00-.502-.185.484.484 0 00-.433.138.681.681 0 00-.05.593l1.646.12-.033-.041a3.289 3.289 0 00-.628-.624zm3.557 1.279l-1.544-.113.11.12a2.777 2.777 0 00.475.448 1.051 1.051 0 00.535.185.433.433 0 00.388-.132.55.55 0 00.041-.506z" fill="#00e894"/><path data-name="Fill 49" d="M79.85 59.284c7.252 5.067 10.51 12.933 7.272 17.57s-11.744 4.284-18.995-.779-10.515-12.929-7.279-17.566 11.743-4.287 19.001.775" fill="#00ae64"/><path data-name="Fill 51" d="M70.307 72.815l-.098-.066a12.845 12.845 0 01-4.446-5.096l-1.67-.122-.567-1.163 1.695.124c-.593-1.563-.594-2.861-.003-3.657a2.953 2.953 0 012.752-.895 6.652 6.652 0 013.307 1.178 17.468 17.468 0 013.834 4.007l.063.085 4.713.344a7.407 7.407 0 00-2.465-2.658l-.083-.056 1.312-1.629a12.684 12.684 0 013.684 4.334l.094.193 1.555.112.567 1.163-1.58-.113a3.609 3.609 0 01-.073 3.41 2.7 2.7 0 01-2.503.883 6.931 6.931 0 01-3.451-1.225 16.517 16.517 0 01-3.594-3.663l-.075-.109-4.966-.36a8.843 8.843 0 002.639 2.817c.195.131.395.253.598.366l-1.238 1.796zm.179-7.663a2.847 2.847 0 00-1.404-.519 1.346 1.346 0 00-1.204.386 1.9 1.9 0 00-.138 1.655l4.591.333-.087-.103a9.2 9.2 0 00-1.758-1.752zm9.923 3.557l-4.309-.308.234.253.088.097a7.732 7.732 0 001.312 1.236 2.919 2.919 0 001.478.507 1.207 1.207 0 001.084-.367 1.535 1.535 0 00.11-1.416z" fill="#00e894"/><path data-name="Fill 53" d="M68.92 75.472l-.307-.206a19.335 19.335 0 01-6.878-8.134c-1.267-3.057-1.164-5.887.288-7.967s4.079-3.159 7.383-3.022a19.235 19.235 0 019.7 3.447l.305.206a19.328 19.328 0 016.878 8.138c1.267 3.054 1.164 5.884-.29 7.968-1.416 2.028-3.968 3.099-7.186 3.016a19.048 19.048 0 01-9.894-3.446zm9.893-15.489a18.684 18.684 0 00-9.428-3.35c-3.132-.13-5.604.869-6.955 2.807s-1.441 4.604-.236 7.503a18.834 18.834 0 006.709 7.919l.331.224a18.583 18.583 0 009.509 3.348c3.088.103 5.527-.897 6.867-2.816 1.355-1.941 1.44-4.605.237-7.504A18.828 18.828 0 0079.13 60.2a25.066 25.066 0 00-.317-.217z" fill="#00e894"/><path data-name="Fill 55" d="M49.485 77.568l5.753-8.529-4.142-8.477-5.753 8.53z" fill="#a7c3cf"/><path data-name="Fill 57" d="M55.238 69.038l40.985 2.879-4.141-8.476-40.986-2.88z" fill="#d4eef9"/><path data-name="Fill 59" d="M48.785 76.145l5.754-8.531-.189-.38-5.753 8.53z" fill="#d3688c"/><path data-name="Fill 61" d="M54.538 67.614l40.986 2.878-.188-.379-40.986-2.879z" fill="#ff9ebd"/><path data-name="Fill 63" d="M45.93 70.36l5.753-8.53-.188-.38-5.754 8.53z" fill="#d3688c"/><path data-name="Fill 65" d="M51.682 61.83l40.986 2.878-.188-.378-40.986-2.88z" fill="#ff9ebd"/><path data-name="Fill 67" d="M119.302 96.961l-35.99-73.794-40.953-2.864 35.988 73.792z" fill="#00e8cc"/><path data-name="Fill 69" d="M78.347 94.095l-5.739 8.509L36.62 28.81l5.739-8.508z" fill="#00b0b5"/><path data-name="Fill 71" d="M72.612 102.606l40.952 2.864 5.74-8.508-40.953-2.864z" fill="#008d93"/><path data-name="Fill 73" d="M85.93 91.837l-8.125-5.791-28.008-57.317-.118-.239 3.066-5.385 22.588 1.599 8.123 5.791 28.01 57.318.116.238-3.064 5.385-22.588-1.598zm-10.95-66.15l-21.674-1.535-2.487 4.374 27.776 56.851 7.685 5.48 21.677 1.531 2.488-4.373-27.78-56.848-7.685-5.48z" fill="#00a4a4"/><path data-name="Fill 75" d="M93.454 78.314c2.601 1.816 3.77 4.635 2.608 6.298s-4.21 1.537-6.81-.277-3.768-4.635-2.608-6.297 4.21-1.538 6.81.276" fill="#00ae64"/><path data-name="Fill 77" d="M90.036 83.168l-.032-.02a4.6 4.6 0 01-1.594-1.835l-.6-.042-.202-.416.606.047a1.4 1.4 0 01-.003-1.312 1.059 1.059 0 01.986-.323 2.386 2.386 0 011.187.424 6.27 6.27 0 011.374 1.435l.023.032 1.688.122a2.645 2.645 0 00-.879-.954l-.035-.024.473-.579a4.554 4.554 0 011.32 1.554l.035.07.556.04.202.416-.563-.04a1.293 1.293 0 01-.026 1.221.969.969 0 01-.899.318 2.484 2.484 0 01-1.237-.439 5.928 5.928 0 01-1.287-1.31l-.029-.042-1.78-.128a3.166 3.166 0 00.944 1.008c.07.048.141.095.216.131l-.442.647zm.064-2.749a1.018 1.018 0 00-.502-.185.484.484 0 00-.434.138.68.68 0 00-.048.592l1.647.12-.035-.04a3.3 3.3 0 00-.628-.625zm3.557 1.278l-1.544-.113.112.122a2.781 2.781 0 00.473.446 1.05 1.05 0 00.535.185.433.433 0 00.39-.132.548.548 0 00.034-.51z" fill="#00e894"/><path data-name="Fill 79" d="M71.682 32.558c2.6 1.817 3.77 4.637 2.608 6.299s-4.211 1.538-6.81-.277-3.769-4.634-2.609-6.297 4.211-1.538 6.81.275" fill="#00ae64"/><path data-name="Fill 81" d="M68.264 37.413l-.035-.023a4.59 4.59 0 01-1.592-1.831l-.6-.043-.202-.415.607.047a1.4 1.4 0 01-.005-1.312 1.059 1.059 0 01.988-.323 2.383 2.383 0 011.186.423 6.27 6.27 0 011.374 1.436l.024.031 1.688.123a2.652 2.652 0 00-.88-.955l-.035-.023.473-.579a4.554 4.554 0 011.321 1.553l.035.07.556.04.201.416-.563-.04a1.293 1.293 0 01-.026 1.222.969.969 0 01-.898.318 2.484 2.484 0 01-1.237-.439 5.936 5.936 0 01-1.288-1.31l-.028-.043-1.782-.128a3.169 3.169 0 00.946 1.008c.07.047.14.094.213.13l-.438.649zm.063-2.748a1.018 1.018 0 00-.502-.186.484.484 0 00-.433.139.68.68 0 00-.049.592l1.647.12-.034-.041a3.3 3.3 0 00-.629-.624zm3.558 1.278l-1.545-.113.11.12a2.78 2.78 0 00.474.447 1.05 1.05 0 00.537.185.431.431 0 00.387-.13.549.549 0 00.041-.506z" fill="#00e894"/><path data-name="Fill 83" d="M85.984 49.53c7.253 5.067 10.51 12.932 7.273 17.571s-11.742 4.288-18.998-.777-10.512-12.932-7.277-17.57 11.743-4.287 19.002.775" fill="#00ae64"/><path data-name="Fill 85" d="M76.442 63.062L76.348 63a12.852 12.852 0 01-4.449-5.1l-1.67-.12-.568-1.165 1.696.125c-.593-1.563-.594-2.861-.004-3.658a2.952 2.952 0 012.752-.895 6.656 6.656 0 013.307 1.179 17.5 17.5 0 013.834 4.006l.063.086 4.713.344a7.3 7.3 0 00-2.466-2.659l-.083-.055 1.313-1.63a12.684 12.684 0 013.684 4.334l.094.193 1.554.113.568 1.162-1.578-.112a3.609 3.609 0 01-.075 3.409 2.7 2.7 0 01-2.503.883 6.928 6.928 0 01-3.45-1.225 16.527 16.527 0 01-3.595-3.663l-.075-.11-4.966-.358a8.839 8.839 0 002.637 2.816c.196.132.396.254.598.365l-1.237 1.798zm.18-7.664a2.843 2.843 0 00-1.404-.518 1.345 1.345 0 00-1.204.385 1.9 1.9 0 00-.138 1.655l4.59.333-.087-.103a9.2 9.2 0 00-1.759-1.752zm9.923 3.557l-4.31-.308.322.349a7.732 7.732 0 001.312 1.236 2.919 2.919 0 001.478.507 1.206 1.206 0 001.084-.365 1.535 1.535 0 00.112-1.417z" fill="#00e894"/><path data-name="Fill 87" d="M75.056 65.718l-.306-.206a19.335 19.335 0 01-6.879-8.134c-1.267-3.056-1.164-5.886.289-7.967s4.078-3.16 7.381-3.022a19.251 19.251 0 019.707 3.451l.3.203a19.344 19.344 0 016.878 8.137c1.266 3.055 1.163 5.885-.291 7.969-1.416 2.027-3.968 3.098-7.186 3.016a19.05 19.05 0 01-9.893-3.447zm9.898-15.486a18.694 18.694 0 00-9.436-3.357c-3.13-.125-5.601.874-6.954 2.815s-1.441 4.604-.237 7.504a18.843 18.843 0 006.71 7.918l.331.224a18.583 18.583 0 009.508 3.348c3.088.103 5.528-.897 6.868-2.816 1.355-1.94 1.44-4.605.238-7.505a18.844 18.844 0 00-6.716-7.917q-.155-.109-.312-.214z" fill="#00e894"/><path data-name="Fill 89" d="M55.62 67.816l5.754-8.53-4.143-8.477-5.753 8.53z" fill="#a7c3cf"/><path data-name="Fill 91" d="M61.374 59.286l40.985 2.878-4.142-8.475-40.986-2.88z" fill="#d4eef9"/><path data-name="Fill 93" d="M54.92 66.392l5.754-8.531-.189-.38-5.753 8.53z" fill="#d3688c"/><path data-name="Fill 95" d="M60.674 57.86l40.986 2.879-.188-.379-40.986-2.88z" fill="#ff9ebd"/><path data-name="Fill 97" d="M52.065 60.608l5.754-8.531-.189-.38-5.753 8.53z" fill="#d3688c"/><path data-name="Fill 99" d="M57.818 52.077l40.985 2.879-.187-.38-40.986-2.879z" fill="#ff9ebd"/><g data-name="Group 103"><path data-name="Clip 102" d="M64.74-6.475l88.422 59.642-34.434 51.05-88.422-59.641z" fill="none"/><g data-name="Group 103" clip-path="url(#f)" transform="rotate(34 43.493 102.746)"><path data-name="Fill 101" d="M106.688 41.369L35.584.317.032 20.843l71.1 41.052z" fill="#00e8cc"/></g></g><path data-name="Fill 104" d="M89.25 84.335l-5.739 8.508-35.988-73.792 5.739-8.509z" fill="#00b0b5"/><g data-name="Group 108"><path data-name="Clip 107" d="M100.731 67.319l29.474 19.88-17.217 25.525-29.474-19.88z" fill="none"/><g data-name="Group 108" clip-path="url(#g)" transform="rotate(34 -59.177 198.072)"><path data-name="Fill 106" d="M.277 31.042L35.83 10.516V.253L.277 20.779z" fill="#008d93"/></g></g><path data-name="Fill 109" d="M96.832 82.076l-8.125-5.79L60.7 18.968l-.117-.239 3.066-5.385 22.588 1.599 8.123 5.79 28.01 57.319.115.238-3.063 5.386-22.588-1.6zm-10.949-66.15L64.21 14.392l-2.488 4.373 27.776 56.852 7.685 5.48 21.677 1.53 2.49-4.373-27.782-56.848-7.684-5.48z" fill="#00ae64"/><path data-name="Fill 111" d="M104.358 68.552c2.602 1.817 3.77 4.636 2.608 6.299s-4.21 1.537-6.809-.277-3.77-4.636-2.61-6.298 4.211-1.537 6.81.276" fill="#00ae64"/><path data-name="Fill 113" d="M100.938 73.407l-.031-.021a4.6 4.6 0 01-1.594-1.834l-.6-.043-.203-.415.606.047a1.4 1.4 0 01-.003-1.312 1.058 1.058 0 01.986-.323 2.386 2.386 0 011.187.423 6.261 6.261 0 011.374 1.436l.025.032 1.687.122a2.647 2.647 0 00-.88-.955l-.034-.023.473-.578a4.554 4.554 0 011.321 1.553l.034.07.556.04.202.416-.564-.04a1.294 1.294 0 01-.026 1.222.968.968 0 01-.898.317 2.487 2.487 0 01-1.238-.44 5.937 5.937 0 01-1.287-1.31l-.028-.042-1.782-.129a3.183 3.183 0 00.946 1.01c.07.046.14.093.214.13l-.442.646zm.064-2.749a1.018 1.018 0 00-.502-.185.484.484 0 00-.432.138.681.681 0 00-.05.593l1.646.119-.033-.04a3.289 3.289 0 00-.629-.625zm3.558 1.278l-1.544-.113.111.121a2.777 2.777 0 00.473.447 1.05 1.05 0 00.536.185.432.432 0 00.388-.131.549.549 0 00.04-.507z" fill="#00e894"/><path data-name="Fill 115" d="M82.586 22.797c2.602 1.817 3.77 4.637 2.609 6.3s-4.211 1.537-6.81-.277-3.77-4.635-2.609-6.299 4.21-1.537 6.81.276" fill="#00ae64"/><path data-name="Fill 117" d="M79.167 27.652l-.035-.024a4.6 4.6 0 01-1.59-1.83l-.601-.044-.203-.415.607.047a1.4 1.4 0 01-.003-1.312 1.058 1.058 0 01.986-.323 2.387 2.387 0 011.187.424 6.271 6.271 0 011.374 1.435l.023.032 1.688.122a2.647 2.647 0 00-.88-.955l-.034-.023.473-.578a4.554 4.554 0 011.322 1.553l.033.07.557.04.202.416-.564-.04a1.294 1.294 0 01-.027 1.222.968.968 0 01-.898.317 2.485 2.485 0 01-1.238-.44 5.937 5.937 0 01-1.287-1.31l-.027-.041-1.783-.13a3.183 3.183 0 00.947 1.01c.07.046.14.093.213.13l-.441.646zm.064-2.749a1.018 1.018 0 00-.502-.185.484.484 0 00-.433.139.681.681 0 00-.05.592l1.647.12-.034-.042a3.3 3.3 0 00-.628-.624zm3.558 1.278l-1.544-.112.11.12a2.781 2.781 0 00.473.447 1.05 1.05 0 00.537.184.431.431 0 00.387-.13.549.549 0 00.04-.507z" fill="#00e894"/><path data-name="Fill 119" d="M96.888 39.768c7.254 5.068 10.511 12.933 7.273 17.571s-11.744 4.284-18.996-.778-10.513-12.93-7.278-17.567 11.743-4.288 19.001.774" fill="#00ae64"/><path data-name="Fill 121" d="M87.346 53.3l-.094-.062a12.859 12.859 0 01-4.449-5.1l-1.671-.121-.567-1.163 1.694.123c-.592-1.563-.593-2.86-.002-3.657a2.953 2.953 0 012.753-.9 6.651 6.651 0 013.307 1.18 17.488 17.488 0 013.833 4.01l.062.085 4.714.344a7.3 7.3 0 00-2.466-2.658l-.087-.059 1.317-1.626a12.676 12.676 0 013.684 4.334l.095.193 1.553.113.567 1.162-1.577-.113a3.61 3.61 0 01-.076 3.41 2.7 2.7 0 01-2.502.882 6.931 6.931 0 01-3.451-1.225 16.527 16.527 0 01-3.594-3.663l-.075-.11-4.966-.358a8.844 8.844 0 002.636 2.816c.195.132.396.253.598.365L87.346 53.3zm.18-7.663a2.84 2.84 0 00-1.404-.518 1.345 1.345 0 00-1.204.384 1.9 1.9 0 00-.139 1.656l4.591.333-.087-.104a9.2 9.2 0 00-1.76-1.752zm9.924 3.557l-4.311-.308.234.253.088.097a7.732 7.732 0 001.312 1.235 2.919 2.919 0 001.478.507 1.206 1.206 0 001.083-.365 1.534 1.534 0 00.111-1.416z" fill="#00e894"/><path data-name="Fill 123" d="M85.959 55.958l-.307-.207a19.335 19.335 0 01-6.878-8.134c-1.268-3.057-1.164-5.886.288-7.967s4.079-3.16 7.382-3.021a19.251 19.251 0 019.706 3.45l.301.203a19.342 19.342 0 016.877 8.136c1.267 3.056 1.164 5.886-.29 7.97-1.417 2.027-3.969 3.098-7.187 3.015a19.048 19.048 0 01-9.892-3.445zm9.898-15.487a18.7 18.7 0 00-9.436-3.357c-3.13-.125-5.6.873-6.955 2.815s-1.44 4.604-.236 7.503a18.843 18.843 0 006.709 7.919l.327.22a18.591 18.591 0 009.51 3.35c3.089.104 5.528-.896 6.869-2.815 1.354-1.94 1.44-4.605.237-7.506a18.849 18.849 0 00-6.712-7.915q-.156-.108-.313-.214z" fill="#00e894"/><path data-name="Fill 125" d="M66.524 58.054l5.753-8.53-4.142-8.476-5.753 8.53z" fill="#a7c3cf"/><path data-name="Fill 127" d="M72.277 49.524l40.985 2.878-4.14-8.475-40.987-2.88z" fill="#d4eef9"/><path data-name="Fill 129" d="M65.824 56.631l5.754-8.53-.189-.38-5.753 8.53z" fill="#d3688c"/><path data-name="Fill 131" d="M71.577 48.1l40.985 2.877-.187-.378L71.39 47.72z" fill="#ff9ebd"/><path data-name="Fill 133" d="M62.967 50.847l5.755-8.532-.19-.38-5.753 8.53z" fill="#d3688c"/><path data-name="Fill 135" d="M68.72 42.316l40.986 2.878-.187-.379-40.986-2.88z" fill="#ff9ebd"/><path data-name="Fill 137" d="M136.039 76.686L100.048 2.892 59.095.027l35.989 73.792z" fill="#00e8cc"/><path data-name="Fill 139" d="M95.083 73.82l-5.739 8.508L53.356 8.536 59.095.027z" fill="#00b0b5"/><path data-name="Fill 141" d="M89.348 82.33l40.953 2.864 5.739-8.508-40.953-2.865z" fill="#008d93"/><path data-name="Fill 143" d="M102.665 71.561l-8.124-5.79L66.533 8.454l-.117-.24 3.066-5.383L92.07 4.428l8.123 5.792 28.009 57.317.116.238-3.064 5.385-22.584-1.603zM91.716 5.411L70.042 3.877l-2.487 4.375L95.33 65.102l7.686 5.48 21.677 1.53 2.49-4.372-27.778-56.853-7.685-5.479z" fill="#00ae64"/><path data-name="Fill 145" d="M110.19 58.037c2.602 1.816 3.77 4.637 2.61 6.299s-4.212 1.538-6.81-.276-3.77-4.635-2.61-6.299 4.212-1.537 6.81.276" fill="#00ae64"/><path data-name="Fill 147" d="M106.773 62.892l-.035-.023a4.59 4.59 0 01-1.592-1.831l-.6-.044-.202-.415.606.047a1.4 1.4 0 01-.003-1.311 1.059 1.059 0 01.986-.323 2.39 2.39 0 011.19.423 6.255 6.255 0 011.372 1.435l.024.033 1.687.122a2.652 2.652 0 00-.88-.955l-.035-.023.474-.579a4.545 4.545 0 011.32 1.553l.035.07.556.04.202.417-.564-.04a1.293 1.293 0 01-.026 1.22.969.969 0 01-.898.319 2.482 2.482 0 01-1.236-.44 5.953 5.953 0 01-1.287-1.311l-.03-.041-1.783-.129a3.176 3.176 0 00.947 1.009c.07.047.14.094.214.13l-.438.649zm.063-2.748a1.018 1.018 0 00-.502-.186.484.484 0 00-.433.139.68.68 0 00-.05.593l1.647.118-.033-.04a3.289 3.289 0 00-.629-.624zm3.558 1.278l-1.544-.113.11.12a2.775 2.775 0 00.473.447 1.05 1.05 0 00.537.185.431.431 0 00.387-.13.549.549 0 00.041-.507z" fill="#00e894"/><path data-name="Fill 149" d="M88.42 12.283c2.6 1.816 3.769 4.636 2.608 6.298s-4.21 1.538-6.81-.277-3.77-4.634-2.609-6.298 4.212-1.536 6.81.277" fill="#00ae64"/><path data-name="Fill 151" d="M85.001 17.137l-.035-.023a4.6 4.6 0 01-1.59-1.831l-.601-.043-.203-.415.606.047a1.4 1.4 0 01-.002-1.312 1.058 1.058 0 01.987-.323 2.39 2.39 0 011.188.424 6.255 6.255 0 011.373 1.434l.023.033 1.687.122a2.652 2.652 0 00-.88-.955l-.034-.023.473-.578a4.545 4.545 0 011.32 1.553l.035.07.556.04.202.416-.564-.04a1.293 1.293 0 01-.027 1.221.969.969 0 01-.898.317 2.481 2.481 0 01-1.235-.439 5.944 5.944 0 01-1.287-1.311l-.03-.04-1.782-.13a3.177 3.177 0 00.947 1.01c.07.046.139.093.213.13l-.441.645zm.064-2.748a1.018 1.018 0 00-.502-.185.482.482 0 00-.433.137.681.681 0 00-.05.594l1.646.119-.033-.04a3.289 3.289 0 00-.628-.625zm3.558 1.278l-1.544-.113.11.121a2.773 2.773 0 00.473.447 1.049 1.049 0 00.537.184.431.431 0 00.387-.13.549.549 0 00.04-.506z" fill="#00e894"/><path data-name="Fill 153" d="M102.721 29.254c7.253 5.066 10.511 12.932 7.273 17.57s-11.744 4.284-18.996-.779-10.514-12.93-7.278-17.566 11.743-4.288 19.001.775" fill="#00ae64"/><path data-name="Fill 155" d="M93.18 42.786l-.098-.066a12.851 12.851 0 01-4.446-5.097l-1.67-.122-.568-1.162 1.695.124c-.592-1.563-.593-2.86-.002-3.657a2.953 2.953 0 012.752-.895 6.65 6.65 0 013.307 1.177 17.493 17.493 0 013.834 4.007l.062.086 4.714.343a7.407 7.407 0 00-2.465-2.658l-.083-.056 1.312-1.628a12.677 12.677 0 013.683 4.333l.095.193 1.554.114.567 1.161-1.578-.113a3.609 3.609 0 01-.075 3.41 2.7 2.7 0 01-2.502.883 6.931 6.931 0 01-3.451-1.225 16.517 16.517 0 01-3.594-3.663l-.076-.109-4.966-.36a8.843 8.843 0 002.64 2.817c.195.132.395.253.597.366l-1.237 1.796zm.179-7.663a2.847 2.847 0 00-1.404-.52 1.346 1.346 0 00-1.205.386 1.9 1.9 0 00-.138 1.656l4.593.333-.088-.104a9.2 9.2 0 00-1.758-1.751zm9.923 3.557l-4.31-.309.324.35a7.737 7.737 0 001.311 1.235 2.916 2.916 0 001.477.507 1.206 1.206 0 001.084-.366 1.535 1.535 0 00.111-1.417z" fill="#00e894"/><path data-name="Fill 157" d="M91.793 45.443l-.306-.206a19.335 19.335 0 01-6.88-8.135c-1.267-3.057-1.163-5.887.289-7.966s4.079-3.16 7.383-3.022a19.235 19.235 0 019.7 3.447l.305.206a19.328 19.328 0 016.878 8.137c1.267 3.056 1.164 5.885-.29 7.968-1.416 2.028-3.969 3.1-7.186 3.016a19.048 19.048 0 01-9.893-3.445zm9.893-15.49a18.688 18.688 0 00-9.428-3.35c-3.133-.128-5.605.87-6.956 2.807s-1.441 4.604-.236 7.503a18.834 18.834 0 006.709 7.919l.331.223a18.583 18.583 0 009.508 3.349c3.089.103 5.528-.897 6.868-2.816 1.355-1.941 1.44-4.605.237-7.504a18.834 18.834 0 00-6.716-7.913 25.066 25.066 0 00-.317-.218z" fill="#00e894"/><path data-name="Fill 159" d="M72.357 47.54l5.753-8.53-4.14-8.477-5.754 8.53z" fill="#a7c3cf"/><path data-name="Fill 161" d="M78.11 39.01l40.986 2.878-4.141-8.475-40.986-2.88z" fill="#d4eef9"/><path data-name="Fill 163" d="M71.657 46.117l5.754-8.532-.189-.38-5.753 8.53z" fill="#d3688c"/><path data-name="Fill 165" d="M77.41 37.585l40.986 2.878-.188-.378-40.986-2.88z" fill="#ff9ebd"/><path data-name="Fill 167" d="M68.8 40.333l5.755-8.532-.189-.38-5.753 8.53z" fill="#d3688c"/><path data-name="Fill 169" d="M74.554 31.801l40.986 2.878-.188-.378-40.986-2.88z" fill="#ff9ebd"/><path data-name="Fill 171" d="M143.814 64.93L107.823-8.862l-40.952-2.865 35.988 73.793z" fill="#00e894"/><path data-name="Fill 173" d="M102.86 62.066l-5.74 8.508L61.133-3.218l5.74-8.509z" fill="#00a4a4"/><path data-name="Fill 175" d="M97.123 70.576l40.953 2.864 5.739-8.508-40.953-2.865z" fill="#00935d"/><path data-name="Fill 177" d="M110.44 59.808l-8.124-5.79L74.308-3.301l-.117-.239 3.065-5.384 22.588 1.598 8.124 5.792 28.008 57.317.117.238-3.064 5.386-22.584-1.604zM99.491-6.342L77.817-7.878 75.33-3.503l27.776 56.852 7.685 5.48 21.678 1.53 2.488-4.374-27.78-56.847-7.685-5.48z" fill="#00ae64"/><path data-name="Fill 179" d="M117.966 46.284c2.601 1.816 3.77 4.637 2.61 6.299s-4.212 1.538-6.81-.277-3.77-4.635-2.61-6.298 4.211-1.537 6.81.276" fill="#00ae64"/><path data-name="Fill 181" d="M114.548 51.139l-.035-.024a4.59 4.59 0 01-1.59-1.83l-.6-.043-.203-.415.606.047a1.4 1.4 0 01-.003-1.313 1.059 1.059 0 01.987-.323 2.386 2.386 0 011.188.424 6.265 6.265 0 011.373 1.435l.023.033 1.687.122a2.652 2.652 0 00-.879-.955l-.035-.024.473-.578a4.554 4.554 0 011.32 1.553l.035.07.556.04.202.416-.563-.04a1.293 1.293 0 01-.026 1.221.969.969 0 01-.899.318 2.481 2.481 0 01-1.235-.439 5.944 5.944 0 01-1.287-1.311l-.03-.041-1.782-.129a3.169 3.169 0 00.946 1.009c.07.047.14.094.212.13l-.437.648zm.064-2.749a1.018 1.018 0 00-.502-.185.484.484 0 00-.434.138.68.68 0 00-.048.592l1.647.12-.035-.04a3.3 3.3 0 00-.628-.625zm3.558 1.278l-1.545-.113.11.12a2.779 2.779 0 00.473.447 1.05 1.05 0 00.538.186.431.431 0 00.387-.131.549.549 0 00.04-.506z" fill="#00e894"/><path data-name="Fill 183" d="M96.194.529c2.601 1.816 3.77 4.636 2.609 6.298s-4.211 1.539-6.81-.277-3.77-4.634-2.609-6.297 4.212-1.537 6.81.276" fill="#00ae64"/><path data-name="Fill 185" d="M92.776 5.383l-.035-.023a4.59 4.59 0 01-1.591-1.83l-.6-.044-.203-.415.606.047a1.4 1.4 0 01-.003-1.312 1.059 1.059 0 01.987-.323 2.39 2.39 0 011.189.424 6.255 6.255 0 011.372 1.434l.024.033 1.687.123a2.652 2.652 0 00-.88-.955l-.034-.024.473-.578a4.545 4.545 0 011.32 1.553l.035.07.557.04.202.416-.564-.04a1.293 1.293 0 01-.026 1.221.969.969 0 01-.899.318 2.482 2.482 0 01-1.236-.439 5.953 5.953 0 01-1.286-1.312l-.03-.04-1.783-.13a3.176 3.176 0 00.947 1.01c.07.046.139.093.213.13l-.437.648zm.064-2.748a1.018 1.018 0 00-.502-.185.483.483 0 00-.433.137.68.68 0 00-.05.593l1.646.12-.033-.04a3.289 3.289 0 00-.628-.625zm3.557 1.278L94.853 3.8l.11.12a2.775 2.775 0 00.473.447 1.05 1.05 0 00.537.185.431.431 0 00.388-.13.549.549 0 00.04-.506z" fill="#00e894"/><path data-name="Fill 187" d="M110.496 17.5c7.254 5.067 10.512 12.933 7.274 17.571s-11.742 4.288-18.998-.777-10.513-12.931-7.277-17.569 11.744-4.287 19.001.775" fill="#00ae64"/><path data-name="Fill 189" d="M100.956 31.032l-.098-.066a12.845 12.845 0 01-4.446-5.096l-1.67-.122-.568-1.162 1.695.124c-.592-1.563-.593-2.86-.003-3.658a2.953 2.953 0 012.752-.895 6.65 6.65 0 013.307 1.178 17.493 17.493 0 013.834 4.007l.063.085 4.714.344a7.407 7.407 0 00-2.465-2.658l-.083-.056 1.312-1.629a12.684 12.684 0 013.683 4.334l.094.193 1.555.113.567 1.162-1.579-.113a3.609 3.609 0 01-.074 3.41 2.7 2.7 0 01-2.503.883 6.931 6.931 0 01-3.45-1.225 16.517 16.517 0 01-3.595-3.663l-.075-.109-4.966-.36a8.843 8.843 0 002.64 2.817c.194.131.394.253.597.366l-1.238 1.796zm.178-7.663a2.847 2.847 0 00-1.403-.518 1.346 1.346 0 00-1.205.385 1.9 1.9 0 00-.138 1.656l4.592.332-.087-.103a9.2 9.2 0 00-1.759-1.752zm9.924 3.558l-4.31-.309.235.253.088.097a7.732 7.732 0 001.311 1.236 2.919 2.919 0 001.478.507 1.207 1.207 0 001.084-.366 1.535 1.535 0 00.111-1.417z" fill="#00e894"/><path data-name="Fill 191" d="M99.567 33.689l-.306-.206a19.344 19.344 0 01-6.879-8.134c-1.267-3.058-1.163-5.888.289-7.967s4.079-3.16 7.383-3.022a19.235 19.235 0 019.7 3.447l.304.206a19.328 19.328 0 016.879 8.137c1.266 3.055 1.163 5.885-.29 7.968-1.416 2.028-3.969 3.1-7.187 3.017a19.048 19.048 0 01-9.893-3.446zm9.894-15.49a18.684 18.684 0 00-9.428-3.35c-3.133-.128-5.605.87-6.955 2.807s-1.441 4.605-.237 7.504a18.834 18.834 0 006.71 7.918l.331.224a18.583 18.583 0 009.508 3.348c3.088.104 5.527-.896 6.868-2.816 1.355-1.94 1.44-4.604.236-7.503a18.828 18.828 0 00-6.716-7.914 25.066 25.066 0 00-.317-.217z" fill="#00e894"/><path data-name="Fill 193" d="M80.133 35.785l5.753-8.529-4.142-8.477-5.753 8.53z" fill="#a7c3cf"/><path data-name="Fill 195" d="M85.886 27.256l40.985 2.879-4.141-8.476-40.986-2.88z" fill="#d4eef9"/><path data-name="Fill 197" d="M79.432 34.362l5.755-8.532-.19-.38-5.753 8.53z" fill="#d3688c"/><path data-name="Fill 199" d="M85.186 25.831l40.986 2.878-.187-.378-40.986-2.88z" fill="#ff9ebd"/><path data-name="Fill 201" d="M76.577 28.579l5.755-8.532-.19-.38-5.753 8.53z" fill="#d3688c"/><path data-name="Fill 203" d="M82.33 20.047l40.986 2.878-.187-.378-40.986-2.88z" fill="#ff9ebd"/><path data-name="Fill 205" d="M146.658 53.628l-35.992-73.795-40.951-2.864 35.988 73.793z" fill="#00e894"/><path data-name="Fill 207" d="M105.702 50.763l-5.738 8.507-35.989-73.792 5.74-8.508z" fill="#00b571"/><path data-name="Fill 209" d="M99.966 59.272l40.953 2.863 5.739-8.507-40.953-2.864z" fill="#00935d"/><path data-name="Fill 211" d="M113.284 48.503l-8.124-5.79L77.15-14.605l-.116-.239 3.065-5.385 22.589 1.6 8.123 5.79L138.82 44.48l.116.238-3.063 5.386-22.589-1.6zm-10.949-66.15l-21.673-1.535-2.489 4.375 27.777 56.852 7.684 5.48 21.678 1.53 2.488-4.374-27.78-56.848-7.685-5.48z" fill="#00ae64"/><path data-name="Fill 213" d="M120.81 34.98c2.601 1.817 3.769 4.637 2.608 6.3s-4.21 1.536-6.81-.278-3.77-4.634-2.608-6.298 4.21-1.537 6.81.276" fill="#00ae64"/><path data-name="Fill 215" d="M117.39 39.834l-.034-.023a4.6 4.6 0 01-1.592-1.83l-.6-.044-.203-.415.607.047a1.4 1.4 0 01-.003-1.312 1.058 1.058 0 01.986-.324 2.39 2.39 0 011.19.425 6.265 6.265 0 011.372 1.434l.023.033 1.687.122a2.646 2.646 0 00-.88-.955l-.034-.023.474-.578a4.554 4.554 0 011.32 1.553l.035.07.555.04.202.416-.564-.04a1.294 1.294 0 01-.026 1.221.968.968 0 01-.898.318 2.482 2.482 0 01-1.236-.44 5.944 5.944 0 01-1.287-1.311l-.029-.04-1.783-.13a3.183 3.183 0 00.947 1.01c.07.046.14.093.213.13l-.441.646zm.064-2.748a1.018 1.018 0 00-.502-.185.484.484 0 00-.433.139.681.681 0 00-.05.592l1.647.12-.033-.042a3.3 3.3 0 00-.629-.624zm3.558 1.278l-1.544-.113.11.12a2.778 2.778 0 00.473.448 1.047 1.047 0 00.537.184.431.431 0 00.388-.13.549.549 0 00.04-.507z" fill="#00e894"/><path data-name="Fill 217" d="M99.037-10.775c2.602 1.817 3.77 4.637 2.609 6.299s-4.21 1.537-6.81-.277-3.77-4.635-2.609-6.298 4.21-1.537 6.81.276" fill="#00ae64"/><path data-name="Fill 219" d="M95.618-5.92l-.035-.024a4.6 4.6 0 01-1.59-1.831l-.601-.043-.203-.416.607.048a1.4 1.4 0 01-.003-1.312 1.058 1.058 0 01.987-.323 2.39 2.39 0 011.188.423 6.265 6.265 0 011.373 1.435l.022.032 1.687.123a2.646 2.646 0 00-.879-.955l-.034-.023.473-.578a4.554 4.554 0 011.322 1.553l.033.07.556.04.202.415-.564-.039a1.293 1.293 0 01-.027 1.221.969.969 0 01-.898.318 2.482 2.482 0 01-1.236-.439 5.944 5.944 0 01-1.286-1.312l-.03-.04-1.782-.13a3.184 3.184 0 00.948 1.01c.07.047.139.094.213.13l-.441.646zm.064-2.75a1.015 1.015 0 00-.501-.184.483.483 0 00-.433.137.68.68 0 00-.05.593l1.647.12-.035-.041a3.3 3.3 0 00-.628-.624zm3.558 1.278l-1.544-.112.11.12a2.78 2.78 0 00.474.448 1.05 1.05 0 00.536.184.431.431 0 00.387-.13.55.55 0 00.041-.509z" fill="#00e894"/><path data-name="Fill 221" d="M113.34 6.196c7.253 5.067 10.51 12.933 7.272 17.571s-11.744 4.283-18.996-.78S91.102 10.06 94.338 5.422s11.743-4.287 19.001.775" fill="#00ae64"/><path data-name="Fill 223" d="M103.798 19.728l-.098-.066a12.843 12.843 0 01-4.445-5.096l-1.671-.122-.567-1.163 1.695.124c-.593-1.563-.593-2.86-.003-3.657a2.953 2.953 0 012.753-.899 6.647 6.647 0 013.307 1.178 17.5 17.5 0 013.832 4.01l.063.086 4.714.344a7.416 7.416 0 00-2.467-2.66l-.083-.055 1.314-1.628a12.675 12.675 0 013.683 4.334l.095.193 1.554.113.567 1.162-1.578-.113a3.609 3.609 0 01-.075 3.41 2.7 2.7 0 01-2.503.883 6.934 6.934 0 01-3.45-1.226 16.508 16.508 0 01-3.595-3.663l-.075-.108-4.966-.36a8.843 8.843 0 002.64 2.817c.194.131.395.253.597.366l-1.238 1.795zm.179-7.663a2.842 2.842 0 00-1.403-.518 1.347 1.347 0 00-1.206.385 1.9 1.9 0 00-.138 1.655l4.592.333-.087-.103a9.2 9.2 0 00-1.758-1.752zm9.923 3.557l-4.31-.309.204.22.12.13a7.735 7.735 0 001.31 1.235 2.916 2.916 0 001.477.507 1.208 1.208 0 001.09-.363 1.534 1.534 0 00.108-1.417z" fill="#00e894"/><path data-name="Fill 225" d="M102.41 22.385l-.307-.207a19.34 19.34 0 01-6.878-8.134c-1.267-3.055-1.164-5.886.289-7.966s4.078-3.16 7.382-3.023a19.241 19.241 0 019.7 3.448l.305.206a19.326 19.326 0 016.878 8.137c1.267 3.055 1.164 5.885-.29 7.968-1.416 2.028-3.968 3.1-7.186 3.016a19.047 19.047 0 01-9.893-3.445zm9.894-15.49a18.684 18.684 0 00-9.428-3.35c-3.133-.129-5.605.87-6.956 2.807s-1.44 4.605-.237 7.504a18.839 18.839 0 006.71 7.918l.331.224a18.584 18.584 0 009.508 3.348c3.088.104 5.528-.896 6.868-2.816 1.355-1.94 1.44-4.605.237-7.504a18.828 18.828 0 00-6.716-7.913 25.066 25.066 0 00-.317-.217z" fill="#00e894"/><path data-name="Fill 227" d="M82.976 24.481l5.753-8.529-4.142-8.477-5.753 8.53z" fill="#a7c3cf"/><path data-name="Fill 229" d="M88.73 15.952l40.983 2.879-4.14-8.476-40.986-2.88z" fill="#d4eef9"/><path data-name="Fill 231" d="M82.275 23.058l5.755-8.531-.19-.38-5.753 8.53z" fill="#d3688c"/><path data-name="Fill 233" d="M88.03 14.527l40.985 2.878-.187-.378-40.986-2.88z" fill="#ff9ebd"/><path data-name="Fill 235" d="M79.42 17.274l5.754-8.531-.19-.38-5.753 8.53z" fill="#d3688c"/><path data-name="Fill 237" d="M85.173 8.744l40.985 2.877-.187-.379-40.986-2.879z" fill="#ff9ebd"/><path data-name="Fill 239" d="M157.014 41.68l-35.99-73.793-40.953-2.865 35.989 73.792z" fill="#00e894"/><path data-name="Fill 241" d="M116.06 38.815l-5.74 8.509L74.333-26.47l5.74-8.508z" fill="#00b571"/><path data-name="Fill 243" d="M110.324 47.326l40.954 2.863 5.738-8.507-40.952-2.865z" fill="#00935d"/><path data-name="Fill 245" d="M123.641 36.556l-8.125-5.79-28.008-57.318-.117-.24 3.066-5.383 22.588 1.598 8.123 5.791 28.01 57.318.116.238-3.064 5.385-22.585-1.603zm-10.95-66.15l-21.673-1.535-2.488 4.375 27.776 56.851 7.685 5.48 21.678 1.53 2.488-4.373-27.78-56.848-7.685-5.48z" fill="#00ae64"/><path data-name="Fill 247" d="M131.167 23.033c2.601 1.816 3.769 4.636 2.608 6.298s-4.21 1.537-6.81-.277-3.768-4.634-2.608-6.297 4.21-1.538 6.81.276" fill="#00ae64"/><path data-name="Fill 249" d="M127.749 27.887l-.035-.023a4.6 4.6 0 01-1.591-1.83l-.6-.044-.202-.415.605.047a1.4 1.4 0 01-.003-1.312 1.059 1.059 0 01.987-.324 2.389 2.389 0 011.188.424 6.265 6.265 0 011.373 1.435l.023.033 1.687.122a2.645 2.645 0 00-.878-.954l-.035-.024.472-.579a4.554 4.554 0 011.322 1.554l.034.07.556.04.202.416-.563-.04a1.293 1.293 0 01-.026 1.221.969.969 0 01-.899.318 2.481 2.481 0 01-1.236-.439 5.944 5.944 0 01-1.286-1.312l-.03-.04-1.782-.129a3.17 3.17 0 00.946 1.009c.07.047.14.094.214.13l-.442.646zm.064-2.748a1.018 1.018 0 00-.502-.185.483.483 0 00-.434.138.68.68 0 00-.048.594l1.646.118-.034-.04a3.3 3.3 0 00-.628-.625zm3.557 1.278l-1.544-.113.112.121a2.778 2.778 0 00.472.446 1.049 1.049 0 00.536.185.432.432 0 00.39-.13.548.548 0 00.04-.507z" fill="#00e894"/><path data-name="Fill 251" d="M109.395-22.722c2.601 1.816 3.77 4.636 2.609 6.298s-4.21 1.538-6.81-.277-3.769-4.635-2.609-6.298 4.21-1.537 6.81.277" fill="#00ae64"/><path data-name="Fill 253" d="M105.976-17.867l-.035-.024a4.591 4.591 0 01-1.59-1.831l-.6-.043-.203-.414.606.047a1.4 1.4 0 01-.003-1.313 1.059 1.059 0 01.987-.323 2.383 2.383 0 011.187.423 6.27 6.27 0 011.374 1.436l.024.032 1.687.122a2.642 2.642 0 00-.88-.955l-.034-.023.473-.578a4.552 4.552 0 011.32 1.552l.035.07.556.04.202.416-.564-.04a1.294 1.294 0 01-.027 1.222.969.969 0 01-.898.317 2.484 2.484 0 01-1.237-.439 5.936 5.936 0 01-1.287-1.31l-.028-.041-1.781-.13a3.164 3.164 0 00.943 1.009c.07.047.141.095.216.13l-.438.65zm.065-2.75a1.018 1.018 0 00-.503-.185.484.484 0 00-.433.139.68.68 0 00-.048.592l1.646.12-.034-.041a3.3 3.3 0 00-.628-.624zm3.557 1.279l-1.545-.113.112.12a2.781 2.781 0 00.474.448 1.051 1.051 0 00.535.185.433.433 0 00.388-.132.55.55 0 00.04-.506z" fill="#00e894"/><path data-name="Fill 255" d="M123.696-5.75c7.254 5.067 10.511 12.932 7.274 17.57s-11.742 4.289-18.999-.776-10.511-12.932-7.276-17.57 11.744-4.286 19.001.775" fill="#00ae64"/><path data-name="Fill 257" d="M114.156 7.782l-.099-.067a12.843 12.843 0 01-4.445-5.096l-1.67-.121-.568-1.162 1.695.123c-.592-1.563-.593-2.862-.002-3.657a2.953 2.953 0 012.752-.895 6.652 6.652 0 013.307 1.177 17.468 17.468 0 013.833 4.007l.063.086 4.714.344a7.412 7.412 0 00-2.465-2.658l-.083-.056 1.312-1.629a12.684 12.684 0 013.683 4.334l.095.192 1.553.112.567 1.162-1.577-.111a3.608 3.608 0 01-.075 3.408 2.7 2.7 0 01-2.503.884 6.934 6.934 0 01-3.45-1.225 16.516 16.516 0 01-3.594-3.663l-.076-.108-4.966-.36a8.843 8.843 0 002.64 2.817c.195.131.395.253.597.365l-1.237 1.796zm.179-7.663A2.847 2.847 0 00112.93-.4a1.346 1.346 0 00-1.205.385 1.9 1.9 0 00-.138 1.656l4.592.333-.087-.104A9.2 9.2 0 00114.335.12zm9.923 3.557l-4.31-.308.323.348a7.732 7.732 0 001.312 1.236 2.919 2.919 0 001.478.508 1.207 1.207 0 001.084-.367 1.535 1.535 0 00.111-1.416z" fill="#00e894"/><path data-name="Fill 259" d="M112.768 10.438l-.306-.207a19.328 19.328 0 01-6.878-8.135c-1.268-3.056-1.165-5.885.287-7.966s4.08-3.159 7.384-3.022a19.235 19.235 0 019.7 3.448l.304.205a19.328 19.328 0 016.879 8.138c1.266 3.055 1.163 5.885-.29 7.968-1.417 2.028-3.969 3.099-7.187 3.016a19.048 19.048 0 01-9.893-3.445zm9.894-15.49a18.684 18.684 0 00-9.428-3.35c-3.133-.13-5.605.869-6.955 2.807s-1.442 4.604-.237 7.504a18.834 18.834 0 006.71 7.918l.33.224a18.583 18.583 0 009.509 3.348c3.088.104 5.527-.896 6.868-2.816 1.355-1.941 1.44-4.605.236-7.504a18.828 18.828 0 00-6.717-7.914 25.066 25.066 0 00-.316-.217z" fill="#00e894"/><path data-name="Fill 261" d="M93.333 12.535l5.753-8.53-4.141-8.477-5.754 8.53z" fill="#a7c3cf"/><path data-name="Fill 263" d="M99.087 4.005l40.985 2.878-4.141-8.475-40.986-2.88z" fill="#d4eef9"/><path data-name="Fill 265" d="M92.632 11.111l5.755-8.531-.189-.38-5.753 8.53z" fill="#d3688c"/><path data-name="Fill 267" d="M98.386 2.58l40.985 2.878-.187-.379L98.198 2.2z" fill="#ff9ebd"/><path data-name="Fill 269" d="M89.777 5.328l5.755-8.532-.19-.38-5.753 8.53z" fill="#d3688c"/><path data-name="Fill 271" d="M95.53-3.203l40.986 2.878-.187-.379-40.986-2.88z" fill="#ff9ebd"/><path data-name="Fill 273" d="M159.943 32.483l-35.992-73.795L83-44.175l35.99 73.792z" fill="#00e894"/><path data-name="Fill 275" d="M118.988 29.617l-5.739 8.508L77.26-35.667 83-44.175z" fill="#00b571"/><path data-name="Fill 277" d="M113.253 38.127l40.953 2.864 5.739-8.508-40.953-2.865z" fill="#00935d"/><path data-name="Fill 279" d="M126.57 27.358l-8.124-5.79-28.01-57.318-.116-.238 3.065-5.386 22.59 1.6 8.122 5.79 28.01 57.318.116.24-3.065 5.384-22.588-1.6zm-10.95-66.15l-21.674-1.534-2.488 4.374L119.235 20.9l7.684 5.48 21.678 1.53 2.488-4.374-27.78-56.847-7.684-5.48z" fill="#00ae64"/><path data-name="Fill 281" d="M134.095 13.835c2.602 1.816 3.77 4.636 2.609 6.298s-4.21 1.538-6.81-.277-3.769-4.635-2.609-6.298 4.21-1.537 6.81.277" fill="#00ae64"/><path data-name="Fill 283" d="M130.676 18.69l-.035-.024a4.59 4.59 0 01-1.59-1.832l-.601-.043-.203-.415.607.047a1.4 1.4 0 01-.003-1.312 1.058 1.058 0 01.986-.323 2.387 2.387 0 011.187.424 6.271 6.271 0 011.374 1.436l.024.031 1.687.122a2.646 2.646 0 00-.88-.955l-.034-.023.473-.578a4.554 4.554 0 011.322 1.554l.033.07.557.04.202.416-.564-.04a1.293 1.293 0 01-.026 1.22.969.969 0 01-.899.318 2.485 2.485 0 01-1.238-.439 5.937 5.937 0 01-1.287-1.31l-.028-.041-1.782-.13a3.179 3.179 0 00.945 1.008c.07.048.14.095.215.131l-.442.647zm.064-2.75a1.015 1.015 0 00-.501-.184.484.484 0 00-.434.138.68.68 0 00-.05.592l1.647.12-.034-.041a3.3 3.3 0 00-.628-.625zm3.558 1.278l-1.544-.112.111.12a2.781 2.781 0 00.474.448 1.051 1.051 0 00.534.184.432.432 0 00.388-.131.549.549 0 00.04-.506z" fill="#00e894"/><path data-name="Fill 285" d="M112.322-31.92c2.602 1.816 3.77 4.635 2.608 6.298s-4.21 1.538-6.809-.277-3.768-4.634-2.608-6.297 4.21-1.537 6.81.276" fill="#00ae64"/><path data-name="Fill 287" d="M108.904-27.065l-.031-.021a4.6 4.6 0 01-1.594-1.834l-.6-.043-.202-.415.606.047a1.4 1.4 0 01-.004-1.312 1.058 1.058 0 01.986-.323 2.387 2.387 0 011.188.423 6.271 6.271 0 011.374 1.436l.023.031 1.687.123a2.647 2.647 0 00-.88-.955l-.033-.023.472-.58a4.556 4.556 0 011.322 1.555l.034.07.557.04.202.416-.564-.04a1.293 1.293 0 01-.027 1.22.969.969 0 01-.898.319 2.485 2.485 0 01-1.238-.44 5.928 5.928 0 01-1.287-1.31l-.027-.042-1.782-.128a3.176 3.176 0 00.946 1.009c.07.047.14.093.214.13l-.442.647zm.065-2.75a1.018 1.018 0 00-.502-.185.484.484 0 00-.434.139.68.68 0 00-.048.592l1.647.119-.035-.04a3.3 3.3 0 00-.628-.624zm3.556 1.278l-1.543-.113.11.121a2.789 2.789 0 00.475.448 1.048 1.048 0 00.535.185.433.433 0 00.39-.132.548.548 0 00.039-.506z" fill="#00e894"/><path data-name="Fill 289" d="M126.624-14.949c7.254 5.068 10.512 12.932 7.273 17.571s-11.741 4.289-18.998-.776-10.511-12.932-7.276-17.57 11.743-4.287 19.001.775" fill="#00ae64"/><path data-name="Fill 291" d="M117.083-1.417l-.098-.066a12.843 12.843 0 01-4.445-5.096l-1.67-.122-.568-1.163 1.696.124c-.593-1.563-.594-2.86-.004-3.657a2.953 2.953 0 012.753-.899 6.649 6.649 0 013.307 1.178 17.494 17.494 0 013.833 4.01l.063.086 4.713.344a7.416 7.416 0 00-2.467-2.66l-.082-.055 1.313-1.628a12.675 12.675 0 013.683 4.333l.095.194 1.555.112.568 1.163-1.58-.113a3.609 3.609 0 01-.075 3.41 2.7 2.7 0 01-2.502.883 6.934 6.934 0 01-3.451-1.225 16.508 16.508 0 01-3.594-3.663l-.075-.11-4.966-.36a8.832 8.832 0 002.639 2.818c.195.131.395.253.598.366l-1.238 1.795zm.18-7.662a2.844 2.844 0 00-1.404-.52 1.346 1.346 0 00-1.205.386 1.9 1.9 0 00-.137 1.654l4.59.334-.087-.103a9.2 9.2 0 00-1.757-1.751zm9.924 3.557l-4.31-.31.288.316.033.036a7.729 7.729 0 001.31 1.235 2.915 2.915 0 001.478.507 1.207 1.207 0 001.089-.362 1.534 1.534 0 00.11-1.416z" fill="#00e894"/><path data-name="Fill 293" d="M115.697 1.24l-.306-.206a19.333 19.333 0 01-6.879-8.134c-1.268-3.056-1.165-5.886.288-7.967s4.079-3.16 7.382-3.022a19.251 19.251 0 019.706 3.45l.301.203a19.349 19.349 0 016.878 8.138c1.266 3.055 1.162 5.885-.292 7.968-1.416 2.028-3.967 3.099-7.186 3.016a19.049 19.049 0 01-9.892-3.445zm9.898-15.487a18.694 18.694 0 00-9.437-3.356c-3.129-.125-5.6.873-6.954 2.814s-1.44 4.605-.237 7.504a18.832 18.832 0 006.709 7.918l.331.223a18.584 18.584 0 009.508 3.349c3.089.103 5.528-.897 6.868-2.816 1.355-1.942 1.44-4.605.237-7.505a18.844 18.844 0 00-6.713-7.916q-.156-.109-.312-.215z" fill="#00e894"/><path data-name="Fill 295" d="M96.262 3.337l5.753-8.53-4.142-8.477-5.754 8.53z" fill="#a7c3cf"/><path data-name="Fill 297" d="M102.015-5.193L143-2.315l-4.14-8.476-40.986-2.879z" fill="#d4eef9"/><path data-name="Fill 299" d="M95.56 1.913l5.755-8.53-.189-.381-5.753 8.53z" fill="#d3688c"/><path data-name="Fill 301" d="M101.315-6.618L142.3-3.74l-.187-.378-40.986-2.88z" fill="#ff9ebd"/><path data-name="Fill 303" d="M92.705-3.87l5.754-8.531-.189-.38-5.753 8.53z" fill="#d3688c"/><path data-name="Fill 305" d="M98.459-12.401l40.985 2.877-.188-.379-40.986-2.879z" fill="#ff9ebd"/></g></g></g></g></g><g data-name="Group 135"><g data-name="Group 134"><path data-name="Fill 1" d="M233.753 137.45l38.991 79.945 44.366 3.102-38.992-79.944z" fill="#00e8cc"/><path data-name="Fill 2" d="M227.537 146.667l38.992 79.945 6.217-9.217-38.992-79.946z" fill="#00b0b5"/><path data-name="Fill 3" d="M272.745 217.395l-6.217 9.217 44.365 3.102 6.217-9.217z" fill="#008d93"/><path data-name="Fill 4" d="M280.956 214.946l-8.797-6.271-30.345-62.095-.127-.26 3.319-5.833 24.47 1.731 8.797 6.273 30.343 62.093.127.258-3.32 5.834-24.467-1.73zm-11.865-71.66l-23.478-1.665-2.694 4.739 30.094 61.585 8.326 5.937 23.479 1.66 2.694-4.736-30.093-61.586-8.328-5.934z" fill="#00ae64"/><g data-name="Group 133"><path data-name="Fill 5" d="M289.11 200.297c2.818 1.967 4.084 5.022 2.827 6.823s-4.558 1.67-7.38-.301-4.084-5.022-2.826-6.823 4.56-1.666 7.38.301" fill="#00ae64"/><path data-name="Fill 7" d="M285.406 205.554l-.04-.026a4.976 4.976 0 01-1.725-1.98l-.649-.045-.22-.455.658.047a1.515 1.515 0 01-.003-1.415 1.148 1.148 0 011.07-.35 2.588 2.588 0 011.286.457 6.8 6.8 0 011.486 1.553l.027.034 1.83.136a2.884 2.884 0 00-.957-1.032l-.033-.023.509-.632a4.93 4.93 0 011.432 1.683l.037.076.603.044.22.452-.613-.046a1.4 1.4 0 01-.028 1.324 1.05 1.05 0 01-.974.344 2.689 2.689 0 01-1.337-.475 6.429 6.429 0 01-1.397-1.424l-.029-.043-1.93-.14a3.438 3.438 0 001.024 1.094c.075.051.15.102.23.141l-.475.697zm.068-2.975a1.107 1.107 0 00-.545-.202.524.524 0 00-.466.153.737.737 0 00-.052.643l1.783.127-.033-.04a3.57 3.57 0 00-.687-.681zm3.855 1.382l-1.672-.122.12.13a3.011 3.011 0 00.516.487 1.134 1.134 0 00.577.197.468.468 0 00.42-.142.594.594 0 00.045-.548z" fill="#00e894"/><path data-name="Fill 9" d="M265.525 150.729c2.817 1.967 4.083 5.022 2.826 6.823s-4.558 1.669-7.38-.302-4.084-5.021-2.826-6.823 4.561-1.664 7.38.302" fill="#00ae64"/><path data-name="Fill 11" d="M261.82 155.987l-.04-.027a4.977 4.977 0 01-1.726-1.98l-.65-.045-.219-.455.662.053a1.515 1.515 0 01-.007-1.42 1.148 1.148 0 011.071-.351 2.588 2.588 0 011.286.458 6.8 6.8 0 011.486 1.552l.026.035 1.83.135a2.879 2.879 0 00-.957-1.033l-.034-.023.511-.63a4.922 4.922 0 011.431 1.682l.038.076.603.045.22.452-.613-.046a1.4 1.4 0 01-.029 1.323 1.05 1.05 0 01-.973.345 2.689 2.689 0 01-1.338-.476 6.429 6.429 0 01-1.396-1.424l-.03-.043-1.93-.139a3.438 3.438 0 001.025 1.094c.075.051.15.102.23.141l-.473.702zm.068-2.976a1.106 1.106 0 00-.545-.2.523.523 0 00-.465.151.737.737 0 00-.052.643l1.782.127-.038-.043a3.57 3.57 0 00-.682-.678zm3.855 1.382l-1.672-.122.119.13a3 3 0 00.516.487 1.135 1.135 0 00.576.197.467.467 0 00.42-.142.6.6 0 00.044-.548z" fill="#00e894"/><path data-name="Fill 13" d="M281.015 169.113c7.86 5.487 11.39 14.008 7.883 19.03s-12.72 4.645-20.58-.842-11.396-14.006-7.888-19.028 12.722-4.645 20.585.84" fill="#00ae64"/><path data-name="Fill 15" d="M270.68 183.773l-.105-.071a13.917 13.917 0 01-4.82-5.518l-1.808-.134-.615-1.26 1.84.136c-.645-1.696-.646-3.101-.006-3.965a3.2 3.2 0 012.983-.97 7.2 7.2 0 013.583 1.277 18.982 18.982 0 014.154 4.34l.072.097 5.1.367a8.033 8.033 0 00-2.67-2.879l-.096-.064 1.427-1.76a13.745 13.745 0 013.99 4.694l.102.208 1.683.122.613 1.258-1.708-.125a3.909 3.909 0 01-.08 3.695 2.925 2.925 0 01-2.715.958 7.509 7.509 0 01-3.737-1.328 17.891 17.891 0 01-3.893-3.968l-.082-.118-5.378-.386a9.582 9.582 0 002.857 3.05c.212.143.429.276.645.395l-1.335 1.95zm.193-8.301a3.083 3.083 0 00-1.521-.562 1.458 1.458 0 00-1.305.418 2.06 2.06 0 00-.148 1.794l4.972.358-.089-.105a9.969 9.969 0 00-1.909-1.903zm10.746 3.855l-4.664-.337.349.378a8.379 8.379 0 001.422 1.34 3.162 3.162 0 001.6.548 1.308 1.308 0 001.174-.396 1.663 1.663 0 00.12-1.533z" fill="#00e894"/><path data-name="Fill 17" d="M269.176 186.65l-.332-.223a20.963 20.963 0 01-7.454-8.81c-1.37-3.313-1.258-6.38.316-8.635s4.413-3.417 7.996-3.272a20.846 20.846 0 0110.513 3.737l.327.221a20.946 20.946 0 017.453 8.812c1.371 3.31 1.26 6.376-.315 8.632-1.534 2.197-4.299 3.357-7.785 3.267a20.636 20.636 0 01-10.72-3.728zm10.719-16.78a20.247 20.247 0 00-10.215-3.633c-3.394-.136-6.072.946-7.537 3.048s-1.562 4.989-.26 8.127a20.393 20.393 0 007.268 8.576l.357.241a20.132 20.132 0 0010.297 3.631c3.346.113 5.988-.971 7.44-3.051 1.468-2.104 1.558-4.991.259-8.127a20.393 20.393 0 00-7.267-8.577 19.14 19.14 0 00-.342-.235z" fill="#00e894"/><path data-name="Fill 19" d="M248.122 188.92l6.234-9.242-4.489-9.18-6.233 9.24z" fill="#a7c3cf"/><path data-name="Fill 21" d="M254.353 179.682l44.404 3.115-4.489-9.179-44.402-3.12z" fill="#d4eef9"/><path data-name="Fill 23" d="M247.363 187.377l6.232-9.24-.204-.41-6.233 9.24z" fill="#d3688c"/><path data-name="Fill 25" d="M253.597 178.138l44.4 3.118-.203-.41-44.401-3.12z" fill="#ff9ebd"/><path data-name="Fill 27" d="M244.27 181.112l6.232-9.24-.204-.411-6.233 9.24z" fill="#d3688c"/><path data-name="Fill 29" d="M250.503 171.872l44.4 3.118-.203-.41-44.402-3.12z" fill="#ff9ebd"/><path data-name="Fill 31" d="M320.19 208.251l-38.992-79.944-44.364-3.103 38.99 79.945z" fill="#00e8cc"/><path data-name="Fill 33" d="M275.825 205.15l-6.217 9.216-38.99-79.944 6.217-9.217z" fill="#00b0b5"/><path data-name="Fill 35" d="M269.608 214.366l44.366 3.102 6.216-9.217-44.365-3.102z" fill="#008d93"/><path data-name="Fill 37" d="M284.035 202.7l-8.797-6.272-30.344-62.095-.127-.26 3.319-5.833 24.47 1.732 8.797 6.273 30.343 62.093.127.258-3.32 5.834-24.468-1.73zm-11.863-71.66l-23.478-1.665-2.695 4.738 30.095 61.586 8.324 5.936 23.48 1.661 2.695-4.736-30.094-61.586z" fill="#00a4a4"/><path data-name="Fill 39" d="M292.19 188.05c2.819 1.968 4.084 5.023 2.827 6.824s-4.557 1.669-7.38-.301-4.084-5.022-2.826-6.823 4.561-1.666 7.38.3" fill="#00ae64"/><path data-name="Fill 41" d="M288.486 193.309l-.04-.027a4.983 4.983 0 01-1.726-1.98l-.65-.046-.219-.454.662.052a1.513 1.513 0 01-.007-1.42 1.148 1.148 0 011.071-.35 2.588 2.588 0 011.286.458 6.807 6.807 0 011.486 1.552l.025.034 1.83.136a2.874 2.874 0 00-.956-1.033l-.034-.023.511-.63a4.931 4.931 0 011.431 1.683l.038.075.603.045.22.451-.613-.045a1.4 1.4 0 01-.029 1.324 1.05 1.05 0 01-.973.344 2.69 2.69 0 01-1.337-.475 6.42 6.42 0 01-1.397-1.425l-.03-.043-1.93-.139a3.445 3.445 0 001.025 1.095c.076.05.151.101.23.14l-.475.697zm.067-2.976a1.106 1.106 0 00-.545-.202.524.524 0 00-.465.153.737.737 0 00-.054.643l1.784.127-.037-.043a3.575 3.575 0 00-.683-.678zm3.856 1.382l-1.672-.122.12.131a3.006 3.006 0 00.516.487 1.132 1.132 0 00.576.196.467.467 0 00.42-.14.6.6 0 00.045-.55z" fill="#00e894"/><path data-name="Fill 43" d="M268.604 138.483c2.818 1.967 4.084 5.022 2.827 6.823s-4.558 1.669-7.38-.3-4.084-5.022-2.827-6.824 4.561-1.665 7.38.3" fill="#00ae64"/><path data-name="Fill 45" d="M264.899 143.74l-.04-.027a4.983 4.983 0 01-1.726-1.98l-.65-.046-.219-.454.662.052a1.513 1.513 0 01-.007-1.42 1.148 1.148 0 011.071-.35 2.588 2.588 0 011.286.458 6.807 6.807 0 011.486 1.552l.025.034 1.831.136a2.874 2.874 0 00-.957-1.033l-.034-.023.511-.63a4.931 4.931 0 011.432 1.683l.037.075.603.045.22.451-.612-.045a1.4 1.4 0 01-.03 1.323 1.05 1.05 0 01-.972.345 2.69 2.69 0 01-1.338-.475 6.42 6.42 0 01-1.397-1.425l-.03-.043-1.93-.139a3.446 3.446 0 001.026 1.095c.075.05.15.101.23.14l-.475.697zm.067-2.976a1.1 1.1 0 00-.544-.201.523.523 0 00-.465.152.736.736 0 00-.054.643l1.783.127-.037-.043a3.576 3.576 0 00-.683-.678zm3.856 1.382l-1.673-.12.12.13a3.006 3.006 0 00.517.487 1.135 1.135 0 00.576.197.468.468 0 00.416-.144.6.6 0 00.044-.55z" fill="#00e894"/><path data-name="Fill 47" d="M284.094 156.866c7.859 5.49 11.389 14.01 7.882 19.032s-12.72 4.646-20.58-.84-11.394-14.009-7.886-19.03 12.722-4.646 20.584.838" fill="#00ae64"/><path data-name="Fill 49" d="M273.76 171.528l-.106-.072a13.923 13.923 0 01-4.82-5.518l-1.808-.135-.614-1.258 1.839.135c-.645-1.696-.646-3.102-.006-3.965a3.2 3.2 0 012.983-.97 7.2 7.2 0 013.584 1.278 18.992 18.992 0 014.155 4.34l.07.096 5.102.369a8.033 8.033 0 00-2.67-2.88l-.096-.064 1.425-1.762a13.739 13.739 0 013.99 4.695l.102.208 1.682.122.615 1.258-1.708-.124a3.909 3.909 0 01-.08 3.695 2.925 2.925 0 01-2.712.959 7.512 7.512 0 01-3.737-1.328 17.891 17.891 0 01-3.892-3.968l-.082-.118-5.383-.387a9.588 9.588 0 002.857 3.05c.212.143.43.275.645.394l-1.335 1.95zm.193-8.302a3.08 3.08 0 00-1.521-.561 1.459 1.459 0 00-1.306.417 2.06 2.06 0 00-.149 1.793l4.973.36-.089-.106a9.97 9.97 0 00-1.908-1.903zm10.745 3.855l-4.664-.337.349.378a8.379 8.379 0 001.422 1.34 3.162 3.162 0 001.6.548 1.308 1.308 0 001.174-.396 1.663 1.663 0 00.12-1.533z" fill="#00e894"/><path data-name="Fill 51" d="M272.256 174.405l-.332-.223a20.959 20.959 0 01-7.455-8.81c-1.37-3.313-1.257-6.379.317-8.635s4.412-3.417 7.996-3.272a20.852 20.852 0 0110.513 3.737l.327.221a20.945 20.945 0 017.452 8.812c1.372 3.31 1.26 6.376-.315 8.631-1.533 2.197-4.298 3.358-7.784 3.268a20.635 20.635 0 01-10.72-3.729zm10.719-16.78a20.247 20.247 0 00-10.215-3.633c-3.395-.136-6.072.945-7.538 3.047s-1.557 4.99-.26 8.127a20.4 20.4 0 007.268 8.577l.357.24a20.133 20.133 0 0010.3 3.628c3.347.112 5.989-.972 7.441-3.051 1.467-2.104 1.557-4.992.259-8.127a20.393 20.393 0 00-7.27-8.573 19.14 19.14 0 00-.342-.235z" fill="#00e894"/><path data-name="Fill 53" d="M251.202 176.675l6.234-9.243-4.489-9.18-6.233 9.241z" fill="#a7c3cf"/><path data-name="Fill 55" d="M257.434 167.436l44.402 3.115-4.487-9.179-44.402-3.12z" fill="#d4eef9"/><path data-name="Fill 57" d="M250.444 175.131l6.232-9.24-.204-.41-6.233 9.24z" fill="#d3688c"/><path data-name="Fill 59" d="M256.677 165.892l44.399 3.118-.203-.41-44.401-3.12z" fill="#ff9ebd"/><path data-name="Fill 61" d="M247.35 168.866l6.232-9.24-.204-.411-6.233 9.24z" fill="#d3688c"/><path data-name="Fill 63" d="M253.583 159.626l44.399 3.118-.202-.41-44.402-3.12z" fill="#ff9ebd"/><path data-name="Fill 65" d="M331.411 195.308l-38.992-79.944-44.364-3.103 38.99 79.944z" fill="#00e894"/><path data-name="Fill 67" d="M287.045 192.206l-6.217 9.217-38.99-79.944 6.216-9.217z" fill="#00b0b5"/><path data-name="Fill 69" d="M280.829 201.422l44.365 3.102 6.216-9.216-44.364-3.103z" fill="#008d93"/><path data-name="Fill 71" d="M295.256 189.758l-8.797-6.272-30.345-62.095-.127-.26 3.32-5.833 24.47 1.732 8.796 6.272 30.343 62.093.127.259-3.32 5.833-24.467-1.73zm-11.864-71.661l-23.479-1.664-2.694 4.738 30.094 61.585 8.326 5.937 23.479 1.661 2.694-4.737-30.093-61.586-8.327-5.934z" fill="#00ae64"/><path data-name="Fill 73" d="M303.412 175.109c2.817 1.967 4.083 5.022 2.826 6.823s-4.558 1.668-7.38-.301-4.084-5.022-2.826-6.824 4.56-1.665 7.38.302" fill="#00ae64"/><path data-name="Fill 75" d="M299.706 180.365l-.04-.026a4.968 4.968 0 01-1.724-1.979l-.65-.046-.22-.454.662.051a1.514 1.514 0 01-.007-1.42 1.147 1.147 0 011.07-.351 2.589 2.589 0 011.287.459 6.808 6.808 0 011.49 1.555l.025.034 1.827.133a2.877 2.877 0 00-.956-1.032l-.034-.023.51-.632a4.938 4.938 0 011.432 1.684l.037.075.602.045.22.451-.612-.045a1.4 1.4 0 01-.03 1.323 1.051 1.051 0 01-.973.344 2.687 2.687 0 01-1.338-.475 6.429 6.429 0 01-1.396-1.425l-.03-.042-1.93-.14a3.436 3.436 0 001.025 1.094c.075.051.15.102.23.141l-.474.697zm.068-2.975a1.1 1.1 0 00-.544-.201.523.523 0 00-.47.149.736.736 0 00-.053.642l1.787.13-.033-.039a3.57 3.57 0 00-.687-.681zm3.856 1.382l-1.673-.122.12.13a3.011 3.011 0 00.516.487 1.134 1.134 0 00.577.197.468.468 0 00.421-.141.594.594 0 00.044-.548z" fill="#00e894"/><path data-name="Fill 77" d="M279.824 125.54c2.818 1.968 4.084 5.023 2.827 6.824s-4.558 1.668-7.38-.302-4.084-5.022-2.827-6.823 4.561-1.665 7.38.302" fill="#00ae64"/><path data-name="Fill 79" d="M276.12 130.798l-.04-.027a4.977 4.977 0 01-1.724-1.98l-.65-.046-.22-.454.658.047a1.514 1.514 0 01-.003-1.415 1.148 1.148 0 011.07-.35 2.585 2.585 0 011.285.458 6.8 6.8 0 011.485 1.553l.027.034 1.833.135a2.875 2.875 0 00-.958-1.032l-.034-.023.512-.632a4.927 4.927 0 011.43 1.683l.038.076.602.044.22.452-.612-.046a1.4 1.4 0 01-.03 1.324 1.05 1.05 0 01-.972.344 2.692 2.692 0 01-1.34-.476 6.42 6.42 0 01-1.395-1.424l-.029-.042-1.93-.14a3.434 3.434 0 001.022 1.094c.077.052.153.103.233.142l-.475.696zm.068-2.977a1.106 1.106 0 00-.545-.201.524.524 0 00-.465.153.737.737 0 00-.053.643l1.783.126-.033-.04a3.57 3.57 0 00-.687-.68zm3.856 1.383l-1.673-.123.121.132a3.008 3.008 0 00.516.486 1.135 1.135 0 00.575.198.469.469 0 00.422-.142.6.6 0 00.044-.548z" fill="#00e894"/><path data-name="Fill 81" d="M295.315 143.924c7.858 5.49 11.388 14.01 7.883 19.033s-12.721 4.646-20.582-.841-11.393-14.01-7.885-19.031 12.722-4.645 20.584.839" fill="#00ae64"/><path data-name="Fill 83" d="M284.98 158.584l-.106-.072a13.916 13.916 0 01-4.818-5.517l-1.808-.134-.615-1.26 1.838.136c-.643-1.697-.644-3.103-.005-3.965a3.2 3.2 0 012.983-.97 7.2 7.2 0 013.584 1.278 18.957 18.957 0 014.153 4.34l.072.096 5.1.368a8.038 8.038 0 00-2.67-2.88l-.096-.064 1.427-1.76a13.745 13.745 0 013.99 4.694l.102.208 1.684.123.615 1.259-1.71-.123a3.909 3.909 0 01-.079 3.694 2.925 2.925 0 01-2.717.955 7.512 7.512 0 01-3.738-1.328 17.891 17.891 0 01-3.892-3.968l-.082-.118-5.378-.385a9.582 9.582 0 002.858 3.05c.21.143.428.275.644.394l-1.336 1.949zm.193-8.301a3.083 3.083 0 00-1.52-.562 1.458 1.458 0 00-1.306.418 2.06 2.06 0 00-.148 1.794l4.972.359-.09-.107a9.97 9.97 0 00-1.908-1.902zm10.746 3.855l-4.664-.337.314.34.033.035a8.379 8.379 0 001.423 1.342 3.162 3.162 0 001.6.55 1.308 1.308 0 001.175-.397 1.663 1.663 0 00.12-1.533z" fill="#00e894"/><path data-name="Fill 85" d="M283.477 161.462l-.332-.223a20.946 20.946 0 01-7.454-8.81c-1.37-3.314-1.258-6.379.316-8.635s4.413-3.417 7.996-3.272a20.846 20.846 0 0110.513 3.737l.327.221a20.946 20.946 0 017.453 8.812c1.371 3.31 1.26 6.376-.315 8.632-1.534 2.197-4.299 3.357-7.785 3.267a20.636 20.636 0 01-10.72-3.729zm10.719-16.78a20.247 20.247 0 00-10.215-3.634c-3.394-.135-6.072.946-7.537 3.049s-1.562 4.988-.26 8.126a20.393 20.393 0 007.268 8.577l.357.241a20.132 20.132 0 0010.297 3.63c3.346.113 5.988-.97 7.44-3.05 1.468-2.104 1.558-4.992.259-8.127a20.393 20.393 0 00-7.267-8.577 19.14 19.14 0 00-.342-.235z" fill="#00e894"/><path data-name="Fill 87" d="M262.423 163.732l6.234-9.243-4.489-9.18-6.233 9.241z" fill="#a7c3cf"/><path data-name="Fill 89" d="M268.654 154.493l44.404 3.116-4.489-9.18-44.402-3.119z" fill="#d4eef9"/><path data-name="Fill 91" d="M261.664 162.19l6.232-9.24-.204-.412-6.233 9.241z" fill="#d3688c"/><path data-name="Fill 93" d="M267.898 152.95l44.399 3.117-.202-.41-44.402-3.12z" fill="#ff9ebd"/><path data-name="Fill 95" d="M258.57 155.923l6.232-9.24-.203-.411-6.233 9.24z" fill="#d3688c"/><path data-name="Fill 97" d="M264.804 146.684l44.4 3.118-.203-.41-44.402-3.12z" fill="#ff9ebd"/><path data-name="Fill 99" d="M334.584 185.344l-38.992-79.945-44.365-3.102 38.99 79.944z" fill="#00e8cc"/><path data-name="Fill 101" d="M290.218 182.241L284 191.46l-38.991-79.944 6.217-9.218z" fill="#00b0b5"/><path data-name="Fill 103" d="M284 191.459l44.366 3.102 6.217-9.218-44.365-3.102z" fill="#008d93"/><path data-name="Fill 105" d="M298.428 179.793l-8.797-6.273-30.345-62.094-.126-.258 3.318-5.836 24.471 1.732 8.797 6.272 30.343 62.094.127.26-3.32 5.832-24.468-1.73zm-11.863-71.661l-23.479-1.664-2.695 4.737 30.095 61.586 8.325 5.936 23.48 1.662 2.694-4.737-30.094-61.585z" fill="#00a4a4"/><path data-name="Fill 107" d="M306.582 165.143c2.82 1.968 4.085 5.022 2.827 6.823s-4.557 1.67-7.38-.3-4.083-5.023-2.826-6.824 4.561-1.665 7.38.301" fill="#00a4a4"/><path data-name="Fill 109" d="M302.878 170.402l-.04-.027a4.977 4.977 0 01-1.724-1.98l-.65-.046-.22-.455.662.052a1.515 1.515 0 01-.008-1.42 1.148 1.148 0 011.07-.35 2.585 2.585 0 011.285.459 6.813 6.813 0 011.49 1.556l.027.033 1.828.132a2.874 2.874 0 00-.958-1.033l-.034-.023.512-.63a4.931 4.931 0 011.431 1.682l.037.076.603.045.22.451-.612-.045a1.4 1.4 0 01-.029 1.323 1.05 1.05 0 01-.973.345 2.693 2.693 0 01-1.34-.477 6.412 6.412 0 01-1.394-1.423l-.03-.043-1.93-.14a3.441 3.441 0 001.024 1.094c.076.051.152.102.233.14l-.477.699zm.068-2.977a1.1 1.1 0 00-.545-.201.524.524 0 00-.465.153.737.737 0 00-.053.642l1.783.127-.036-.042a3.576 3.576 0 00-.684-.68zm3.855 1.382l-1.672-.122.12.131a3.008 3.008 0 00.517.487 1.136 1.136 0 00.575.197.469.469 0 00.422-.142.594.594 0 00.043-.55z" fill="#00e894"/><path data-name="Fill 111" d="M282.997 115.576c2.818 1.967 4.083 5.021 2.826 6.823s-4.558 1.669-7.38-.301-4.083-5.022-2.826-6.823 4.56-1.666 7.38.301" fill="#00a4a4"/><path data-name="Fill 113" d="M279.291 120.834l-.035-.024a4.984 4.984 0 01-1.73-1.983l-.65-.046-.219-.455.662.052a1.516 1.516 0 01-.007-1.42 1.147 1.147 0 011.068-.35 2.585 2.585 0 011.286.458 6.813 6.813 0 011.49 1.557l.026.033 1.828.132a2.877 2.877 0 00-.955-1.032l-.034-.023.51-.631a4.938 4.938 0 011.432 1.683l.037.075.602.045.22.452-.611-.045a1.4 1.4 0 01-.03 1.323 1.05 1.05 0 01-.972.344 2.693 2.693 0 01-1.34-.476 6.412 6.412 0 01-1.395-1.423l-.029-.044-1.93-.14a3.438 3.438 0 001.024 1.094c.076.051.151.102.23.141l-.474.698zm.068-2.977a1.1 1.1 0 00-.544-.2.524.524 0 00-.465.152.737.737 0 00-.054.642l1.783.127-.037-.043a3.57 3.57 0 00-.683-.678zm3.856 1.382l-1.673-.122.12.13a3.017 3.017 0 00.517.488 1.136 1.136 0 00.575.197.469.469 0 00.42-.143.6.6 0 00.044-.549z" fill="#00e894"/><path data-name="Fill 115" d="M298.487 133.96c7.859 5.49 11.39 14.009 7.882 19.031s-12.72 4.647-20.58-.84-11.394-14.009-7.886-19.03 12.722-4.646 20.584.838" fill="#00a4a4"/><path data-name="Fill 117" d="M288.153 148.62l-.106-.072a13.923 13.923 0 01-4.82-5.518l-1.809-.135-.613-1.258 1.84.134c-.644-1.695-.647-3.101-.007-3.964a3.2 3.2 0 012.983-.97 7.2 7.2 0 013.584 1.278 18.984 18.984 0 014.154 4.34l.07.098 5.101.368a8.033 8.033 0 00-2.67-2.879l-.095-.064 1.425-1.764a13.739 13.739 0 013.991 4.695l.101.208 1.685.123.616 1.26-1.71-.124a3.909 3.909 0 01-.08 3.695 2.925 2.925 0 01-2.711.959 7.512 7.512 0 01-3.738-1.328 17.891 17.891 0 01-3.892-3.968l-.082-.118-5.384-.391a9.577 9.577 0 002.858 3.052c.211.142.429.274.645.394l-1.336 1.949zm.193-8.302a3.083 3.083 0 00-1.521-.561 1.458 1.458 0 00-1.306.417 2.059 2.059 0 00-.148 1.793l4.972.36-.09-.107a9.964 9.964 0 00-1.907-1.902zm10.745 3.855l-4.664-.337.349.378a8.372 8.372 0 001.421 1.34 3.16 3.16 0 001.602.55 1.307 1.307 0 001.173-.396 1.662 1.662 0 00.12-1.535z" fill="#00e894"/><path data-name="Fill 119" d="M286.65 151.498l-.333-.224a20.951 20.951 0 01-7.454-8.81c-1.37-3.312-1.258-6.378.316-8.635s4.412-3.417 7.996-3.27a20.862 20.862 0 0110.517 3.738l.324.219a20.96 20.96 0 017.452 8.811c1.372 3.312 1.26 6.377-.316 8.633-1.534 2.196-4.298 3.357-7.784 3.267a20.635 20.635 0 01-10.719-3.73zm10.718-16.78a20.247 20.247 0 00-10.215-3.633c-3.394-.136-6.072.945-7.538 3.048s-1.557 4.991-.26 8.127a20.392 20.392 0 007.268 8.575l.358.241a20.133 20.133 0 0010.3 3.627c3.347.113 5.988-.971 7.44-3.05 1.468-2.104 1.558-4.992.26-8.128a20.4 20.4 0 00-7.271-8.572c-.113-.08-.229-.159-.342-.235z" fill="#00e894"/><path data-name="Fill 121" d="M265.594 153.768l6.234-9.243-4.489-9.18-6.233 9.24z" fill="#a7c3cf"/><path data-name="Fill 123" d="M271.826 144.528l44.402 3.115-4.487-9.178-44.402-3.12z" fill="#d4eef9"/><path data-name="Fill 125" d="M264.837 152.225l6.232-9.24-.204-.411-6.233 9.241z" fill="#d3688c"/><path data-name="Fill 127" d="M271.07 142.986l44.399 3.117-.202-.41-44.402-3.12z" fill="#ff9ebd"/><path data-name="Fill 129" d="M261.744 145.959l6.232-9.24-.205-.412-6.233 9.242z" fill="#d3688c"/><path data-name="Fill 131" d="M267.976 136.72l44.399 3.117-.202-.41-44.402-3.12z" fill="#ff9ebd"/></g></g></g></g></g><g data-name="Group 19 Copy"><path data-name="Path" d="M8.4 33.782L64.921 1.148c4.674-2.7 8.4-.464 8.4 4.849V31.52c0 5.4-3.8 11.89-8.4 14.546L8.4 78.7c-4.676 2.7-8.4.463-8.4-4.849V48.327c0-5.312 3.724-11.847 8.4-14.545z" transform="translate(130.81 3.533)" fill="url(#h)"/><path data-name="$" d="M191.518 42.355a.5.5 0 00.236-.419l-.026-1.943a.238.238 0 01.094-.2 9.567 9.567 0 003.516-7.19c0-3.047-1.817-3.173-4.27-3.4l-.81-.035c-1.655-.1-2.351-.415-2.351-1.922a4.72 4.72 0 012.383-4.1c1.746-1.034 2.76-.321 2.76 1.468v.589c0 .168.094.224.236.14l1.7-1.006a.5.5 0 00.232-.418v-.643c0-2.684-1.345-3.816-3.468-3.117-.071.014-.094 0-.094-.084l.025-2.194c0-.168-.094-.224-.236-.14l-1.368.811a.5.5 0 00-.236.419l.024 2.032a.192.192 0 01-.094.168 9.135 9.135 0 00-4.035 7.389c0 2.857 1.547 3.3 3.449 3.418l1.268.066c1.806.123 2.691.412 2.691 1.995a5.078 5.078 0 01-2.526 4.29c-1.769 1.048-2.855.433-2.855-1.356v-.615c0-.168-.094-.224-.236-.14l-1.675.992a.5.5 0 00-.234.421v.755c0 2.879 1.6 3.914 4.2 2.712.071-.042.094 0 .094.056l-.024 1.886c0 .168.094.224.236.14z" fill="#132172"/><path data-name="Path" d="M141.326 47.053l26.655-15.389c.548-.316 1.031-.077 1.09.51l.006.122a2.5 2.5 0 01-1.1 1.9l-26.719 15.428c-.548.316-1.031.077-1.09-.51l-.01-.121a2.815 2.815 0 011.168-1.94zM141.331 62.485l13-7.5c.548-.316 1.031-.077 1.09.51l.006.122a2.5 2.5 0 01-1.1 1.9l-13 7.5c-.548.316-1.031.077-1.09-.51l-.006-.125a2.5 2.5 0 011.1-1.897zM141.326 54.642l26.655-15.389c.548-.316 1.031-.077 1.09.51l.006.122a2.5 2.5 0 01-1.1 1.9l-26.719 15.428c-.548.316-1.031.077-1.09-.51l-.01-.121a2.815 2.815 0 011.168-1.94z" fill="#5347c2"/></g><g data-name="Group 19 Copy 2" opacity=".664"><path data-name="Path" d="M8.4 33.782L64.921 1.148c4.674-2.7 8.4-.464 8.4 4.849V31.52c0 5.4-3.8 11.89-8.4 14.546L8.4 78.7c-4.676 2.7-8.4.463-8.4-4.849V48.327c0-5.312 3.724-11.847 8.4-14.545z" transform="translate(130.81 59.423)" fill="url(#h)"/><path data-name="$" d="M191.518 98.245a.5.5 0 00.236-.419l-.026-1.943a.238.238 0 01.094-.2 9.567 9.567 0 003.516-7.19c0-3.047-1.817-3.173-4.27-3.4l-.81-.035c-1.655-.1-2.351-.415-2.351-1.922a4.72 4.72 0 012.383-4.1c1.746-1.034 2.76-.321 2.76 1.468v.589c0 .168.094.224.236.14l1.7-1.006a.5.5 0 00.232-.418v-.643c0-2.684-1.345-3.816-3.468-3.117-.071.014-.094 0-.094-.084l.025-2.194c0-.168-.094-.224-.236-.14l-1.368.811a.5.5 0 00-.236.419l.024 2.032a.192.192 0 01-.094.168 9.135 9.135 0 00-4.035 7.389c0 2.857 1.547 3.3 3.449 3.418l1.268.066c1.806.123 2.691.412 2.691 1.995a5.078 5.078 0 01-2.526 4.29c-1.769 1.048-2.855.433-2.855-1.356v-.615c0-.168-.094-.224-.236-.14l-1.675.992a.5.5 0 00-.234.421v.755c0 2.879 1.6 3.914 4.2 2.712.071-.042.094 0 .094.056l-.024 1.886c0 .168.094.224.236.14z" fill="#132172"/><path data-name="Path" d="M141.326 102.943l26.655-15.389c.548-.316 1.031-.077 1.09.51l.006.122a2.5 2.5 0 01-1.1 1.9l-26.719 15.428c-.548.316-1.031.077-1.09-.51l-.01-.121a2.815 2.815 0 011.168-1.94zM141.331 118.375l13-7.5c.548-.316 1.031-.077 1.09.51l.006.122a2.5 2.5 0 01-1.1 1.9l-13 7.5c-.548.316-1.031.077-1.09-.51l-.006-.125a2.5 2.5 0 011.1-1.897zM141.326 110.532l26.655-15.389c.548-.316 1.031-.077 1.09.51l.006.122a2.5 2.5 0 01-1.1 1.9l-26.719 15.428c-.548.316-1.031.077-1.09-.51l-.01-.121a2.815 2.815 0 011.168-1.94z" fill="#5347c2"/></g><g data-name="Path" fill="none" stroke-miterlimit="10" opacity=".4"><path d="M390.16 90.899c79.357 46.5 80.021 121.893 1 168.392s-207.523 46.5-286.879 0-80.021-121.893-1-168.392 207.522-46.499 286.879 0z"/><path d="M246.596 56.775c-12.956 0-25.962.732-38.657 2.175-12.815 1.457-25.426 3.651-37.48 6.523-12.276 2.924-24.1 6.58-35.146 10.868-11.33 4.397-21.979 9.513-31.652 15.204-9.621 5.662-18.262 11.887-25.681 18.503-7.221 6.438-13.375 13.326-18.29 20.47-4.818 7.003-8.496 14.324-10.934 21.762-2.41 7.356-3.629 14.892-3.622 22.4.007 7.573 1.26 15.181 3.727 22.614 2.491 7.51 6.243 14.908 11.15 21.986 5.003 7.217 11.259 14.176 18.594 20.681 7.534 6.683 16.3 12.969 26.05 18.683 9.715 5.692 20.401 10.808 31.762 15.205 11.077 4.287 22.928 7.944 35.224 10.868 12.076 2.872 24.702 5.066 37.528 6.523a344.002 344.002 0 0038.672 2.175c12.956 0 25.961-.732 38.656-2.175 12.816-1.457 25.426-3.651 37.481-6.523 12.276-2.924 24.1-6.58 35.146-10.868 11.33-4.397 21.978-9.513 31.652-15.204 9.621-5.662 18.262-11.887 25.681-18.503 7.221-6.438 13.375-13.326 18.29-20.47 4.817-7.003 8.496-14.324 10.933-21.762 2.41-7.356 3.63-14.892 3.623-22.4-.007-7.573-1.261-15.181-3.727-22.614-2.492-7.51-6.243-14.908-11.15-21.986-5.003-7.217-11.26-14.176-18.594-20.681-7.535-6.683-16.3-12.969-26.051-18.683-9.714-5.692-20.4-10.808-31.761-15.205-11.077-4.287-22.928-7.944-35.224-10.868-12.076-2.872-24.702-5.066-37.528-6.523a344.002 344.002 0 00-38.672-2.175m0-.75c51.922 0 103.886 11.625 143.564 34.874 79.357 46.499 80.02 121.893.996 168.392-39.512 23.25-91.393 34.874-143.315 34.874s-103.886-11.625-143.564-34.874c-79.357-46.499-80.021-121.893-.996-168.392 39.512-23.25 91.393-34.874 143.315-34.874z" fill="#2d2ba4"/></g><g data-name="Path" fill="none" stroke-miterlimit="10" opacity=".2"><path d="M421.439 62.62c96.722 56.674 97.531 148.566 1.214 205.24S169.72 324.533 73 267.86s-97.533-148.566-1.216-205.24 252.933-56.673 349.655 0z"/><path d="M246.46 20.865c-15.797 0-31.655.892-47.134 2.652-15.626 1.776-31.003 4.452-45.702 7.954-14.968 3.566-29.388 8.024-42.858 13.252-13.816 5.363-26.804 11.602-38.601 18.544-11.736 6.905-22.276 14.499-31.327 22.57-8.811 7.856-16.32 16.26-22.318 24.979-5.88 8.548-10.371 17.486-13.347 26.566C2.23 146.364.742 155.566.75 164.734c.008 9.248 1.54 18.539 4.55 27.615 3.042 9.168 7.622 18.198 13.61 26.838 6.107 8.807 13.74 17.298 22.69 25.236 9.191 8.152 19.883 15.82 31.778 22.79 11.847 6.942 24.88 13.18 38.735 18.543 13.507 5.228 27.958 9.687 42.952 13.253 14.725 3.502 30.12 6.178 45.76 7.954a419.441 419.441 0 0047.153 2.652c15.796 0 31.654-.892 47.133-2.652 15.627-1.776 31.003-4.452 45.703-7.954 14.968-3.566 29.387-8.024 42.857-13.252 13.817-5.363 26.804-11.602 38.602-18.544 11.736-6.905 22.276-14.499 31.327-22.57 8.81-7.856 16.32-16.26 22.318-24.979 5.88-8.548 10.37-17.485 13.346-26.566 2.944-8.982 4.432-18.184 4.423-27.352-.008-9.248-1.54-18.539-4.55-27.615-3.042-9.168-7.621-18.198-13.61-26.838-6.106-8.807-13.74-17.298-22.69-25.236-9.19-8.152-19.882-15.82-31.777-22.79-11.848-6.942-24.88-13.18-38.735-18.543-13.507-5.229-27.959-9.687-42.953-13.253-14.724-3.502-30.12-6.178-45.759-7.954a419.441 419.441 0 00-47.153-2.652m0-.75c63.284 0 126.618 14.168 174.979 42.505 96.722 56.674 97.531 148.566 1.214 205.24-48.158 28.337-111.392 42.505-174.675 42.505-63.284 0-126.619-14.168-174.98-42.505-96.721-56.674-97.53-148.566-1.214-205.24 48.159-28.337 111.392-42.505 174.676-42.505z" fill="#2d2ba4"/></g></g><path d="M0 0l98.6 57v121.2L0 121.2z" transform="translate(324.064)" fill="url(#i)"/><path data-name="Path" d="M59.8 33.529L2.3.331C1.03-.4 0 .123 0 1.5a4.941 4.941 0 002.3 3.834l57.5 33.2c1.27.733 2.3.208 2.3-1.174a4.941 4.941 0 00-2.3-3.831z" transform="translate(349.714 43.654)" fill="url(#j)"/><path data-name="Path Copy" d="M59.8 33.529L2.3.331C1.03-.4 0 .123 0 1.5a4.941 4.941 0 002.3 3.834l57.5 33.2c1.27.733 2.3.208 2.3-1.174a4.941 4.941 0 00-2.3-3.831z" transform="translate(349.714 59.85)" fill="url(#j)"/><path data-name="Path Copy 2" d="M59.8 33.529L2.3.331C1.03-.4 0 .123 0 1.5a4.941 4.941 0 002.3 3.834l57.5 33.2c1.27.733 2.3.208 2.3-1.174a4.941 4.941 0 00-2.3-3.831z" transform="translate(349.714 76.5)" fill="url(#j)"/><path data-name="Path" d="M47.627 26.33L2.323.316C1.04-.421 0 .176 0 1.65a5.1 5.1 0 002.323 4l45.3 26.015c1.283.737 2.323.14 2.323-1.334a5.1 5.1 0 00-2.319-4.001z" transform="translate(349.714 101.169)" fill="url(#k)"/><path data-name="Path Copy 3" d="M47.627 26.33L2.323.316C1.04-.421 0 .176 0 1.65a5.1 5.1 0 002.323 4l45.3 26.015c1.283.737 2.323.14 2.323-1.334a5.1 5.1 0 00-2.319-4.001z" transform="translate(349.714 113.4)" fill="url(#k)"/><path data-name="Combined Shape" d="M335.137 32.427c.364-.134.955.248 1.319.853l3.133 5.207 3.133-1.154c.364-.134.955.248 1.319.853s.364 1.2 0 1.339l-3.134 1.153 3.134 5.207c.336.559.362 1.112.078 1.3l-.078.039c-.364.134-.955-.248-1.319-.853l-3.133-5.208-3.133 1.154c-.364.134-.955-.248-1.319-.853s-.364-1.2 0-1.339l3.134-1.153-3.134-5.206c-.336-.559-.362-1.113-.073-1.3z" fill="#f56294"/><path data-name="Combined Shape Copy 2" d="M335.137 47.729c.364-.146.955.271 1.319.931l3.133 5.68 3.133-1.258c.364-.146.955.27 1.319.931s.364 1.314 0 1.46l-3.134 1.257 3.134 5.68c.336.61.362 1.214.078 1.418l-.078.043c-.364.146-.955-.27-1.319-.931l-3.133-5.68-3.133 1.258c-.364.146-.955-.27-1.319-.931s-.364-1.314 0-1.46l3.134-1.257-3.134-5.68c-.336-.61-.362-1.214-.073-1.418z" fill="#f56294"/><path data-name="Combined Shape Copy 3" d="M335.137 64.377c.364-.134.955.248 1.319.853l3.133 5.207 3.133-1.154c.364-.134.955.248 1.319.853s.364 1.2 0 1.339l-3.134 1.153 3.134 5.207c.336.559.362 1.112.078 1.3l-.078.039c-.364.134-.955-.248-1.319-.853l-3.133-5.208-3.133 1.154c-.364.134-.955-.248-1.319-.853s-.364-1.2 0-1.339l3.134-1.153-3.134-5.206c-.336-.559-.362-1.113-.073-1.3z" fill="#f56294"/><path data-name="Path 107" d="M334.864 95.85l4.05 5.4 6.75-4.05" fill="none" stroke="#6bcaec" stroke-linecap="round" stroke-miterlimit="10" stroke-width="2.025"/><path data-name="Path 107 Copy" d="M334.864 109.35l4.05 5.4 6.75-4.05" fill="none" stroke="#6bcaec" stroke-linecap="round" stroke-miterlimit="10" stroke-width="2.025"/></g></svg>