<svg xmlns="http://www.w3.org/2000/svg" xmlns:xlink="http://www.w3.org/1999/xlink" width="203.64" height="227.167" viewBox="0 0 203.64 227.167"><defs><linearGradient id="a" x1=".252" y1=".702" x2=".672" y2=".727" gradientUnits="objectBoundingBox"><stop offset="0" stop-color="#f6f3ff"/><stop offset="1" stop-color="#d6cafe"/></linearGradient><linearGradient id="b" x1="-.098" y1=".206" x2="1.104" y2=".837" xlink:href="#a"/><linearGradient id="c" y1=".269" x2="1" y2=".88" gradientUnits="objectBoundingBox"><stop offset="0" stop-color="#6e3cdf"/><stop offset="1" stop-color="#d4a8ff"/></linearGradient></defs><g data-name="Group 42"><g data-name="Group 402 Copy"><path data-name="Fill 1" d="M64.468 138.771l78.692 45.416V73.348L64.468 27.934z" fill="#132172"/><path data-name="Fill 3" d="M64.468 136.175l78.692 45.414v-1.15l-78.692-45.414z" fill="#524554"/><path data-name="Fill 4" d="M112.851 0L64.469 27.934l78.692 45.412 48.382-27.932z" fill="#344292"/><path data-name="Fill 5" d="M0 27.934v110.837l48.382-27.934V0z" transform="translate(155.258 52.395)" fill="url(#a)"/><path data-name="Fill 6" d="M201.011 161.729l-43.123 24.9v-104.8l43.123-24.9z" fill="#beb4df"/><path data-name="Fill 7" d="M42.188 103.462L0 127.82V24.358L42.188 0z" transform="translate(158.357 57.87)" fill="url(#b)"/><path data-name="Fill 8" d="M200.545 95.721l-42.188 24.358v.554l42.188-24.358z" fill="#beb4df"/><path data-name="Fill 9" d="M200.545 82.881l-42.188 24.358v.553l42.188-24.358z" fill="#beb4df"/><path data-name="Fill 10" d="M200.545 70.041l-42.188 24.358v.553l42.188-24.358z" fill="#beb4df"/><path data-name="Fill 11" d="M194.855 104.162l-30.809 17.788v14.583l30.809-17.787z" fill="#beb4df"/><path data-name="Fill 12" d="M194.371 104.842l-29.844 17.231v13.779l29.844-17.231z" fill="#e3def3"/><path data-name="Fill 13" d="M198.045 92.792l-38.858 22.436v-5.859l.891-1.539 38.858-17.138z" fill="#8981a2" opacity=".606"/><path data-name="Fill 15" d="M199.719 85.845l-39.64 27.281v-5.3l38.857-22.431z" fill="#fff"/><path data-name="Fill 16" d="M199.718 91.145l-38.858 22.433v-5.3l38.858-22.433z" fill="#e3def3"/><path data-name="Fill 17" d="M192.941 98.18l-1.973 1.137v-.954l1.973-1.139z" fill="#abdf66"/><g data-name="Group 401"><path data-name="Fill 20" d="M182.919 143.931a8.2 8.2 0 01-3.718 6.415c-2.056 1.186-3.721.237-3.721-2.121a8.192 8.192 0 013.721-6.415c2.053-1.186 3.718-.237 3.718 2.121" fill="#4a416a"/><path data-name="Fill 26" d="M181.415 154.468a5.047 5.047 0 01-2.292 3.952c-1.267.733-2.293.146-2.293-1.306a5.05 5.05 0 012.293-3.953c1.266-.731 2.292-.146 2.292 1.307" fill="#4a416a"/><path data-name="Fill 28" d="M173.488 150.542l-1.381.8v-1.584l1.381-.8z" fill="#abdf66"/><path data-name="Fill 30" d="M173.488 160.21l-1.381.8v-1.584l1.381-.8z" fill="#f4988b"/><path data-name="Fill 32" d="M200.545 156.571l-42.188 24.358v-1.609l42.188-24.358z" fill="#c8bcae"/><path data-name="Fill 34" d="M200.545 159.915l-42.188 24.358v-1.609l42.188-24.358z" fill="#c8bcae"/><path data-name="Fill 36" d="M200.545 153.227l-42.188 24.358v-1.609l42.188-24.358z" fill="#c8bcae"/><path data-name="Fill 38" d="M194.371 111.455l-29.844 17.23v.554l29.844-17.231z" fill="#beb4df"/><path data-name="Fill 42" d="M155.258 191.166l-12.713-7.338V72.991l12.713 7.337z" fill="#c7bee3"/><path data-name="Fill 44" d="M160.861 113.577l-.783-.447v-5.3l.783.45z" fill="#d6cafe"/><path data-name="Fill 46" d="M183.701 144.382a8.2 8.2 0 01-3.718 6.415c-2.056 1.186-3.721.237-3.721-2.121a8.194 8.194 0 013.721-6.415c2.052-1.186 3.718-.237 3.718 2.121" fill="#c5bae6"/><path data-name="Fill 48" d="M183.493 145.155a6.748 6.748 0 01-3.062 5.281c-1.692.978-3.062.195-3.062-1.747a6.743 6.743 0 013.062-5.28c1.69-.975 3.062-.194 3.062 1.746" fill="#fff"/><path data-name="Fill 50" d="M182.197 154.919a5.047 5.047 0 01-2.292 3.952c-1.267.733-2.293.146-2.293-1.305a5.05 5.05 0 012.293-3.954c1.266-.731 2.292-.146 2.292 1.307" fill="#c5bae6"/><g data-name="Group 54"><path data-name="Fill 52" d="M155.258 80.328l-12.713-7.337 48.38-27.934 12.72 7.337z" fill="#ede8fe"/></g><path data-name="Fill 57" d="M197.675 95.027a3.263 3.263 0 01-1.484 2.552c-.817.478-1.481.1-1.481-.84a3.266 3.266 0 011.481-2.56c.819-.473 1.483-.1 1.483.844" fill="#beb4df"/><path data-name="Fill 59" d="M197.727 94.36l-.567-.322-2.063 3.623.493.3z" fill="#bdb1a4"/><path data-name="Fill 61" d="M198.116 95.284a3.261 3.261 0 01-1.482 2.551c-.819.478-1.481.1-1.481-.839a3.267 3.267 0 011.481-2.561c.819-.469 1.482-.091 1.482.849" fill="#fff"/><path data-name="Fill 63" d="M191.865 111.7l-1.755 1.012v.715l1.755-1.014z" fill="#abdf66"/><path data-name="Fill 65" d="M183.807 114.663c0 .761-1.4 2.1-3.132 3s-3.141 1.005-3.141.243 1.4-2.1 3.132-3 3.139-1 3.141-.245" fill="#c8bcae"/><path data-name="Fill 67" d="M190.652 110.489l-20.725 11.96v-.538l20.725-11.962z" fill="#151411"/><path data-name="Fill 69" d="M182.965 114.882c0 .446-1.154 1.406-2.581 2.144s-2.585.974-2.585.53 1.154-1.409 2.579-2.148 2.587-.972 2.587-.526" fill="#151411"/><path data-name="Fill 383" d="M182.119 155.304a4.3 4.3 0 01-1.949 3.367c-1.078.621-1.951.123-1.951-1.114a4.3 4.3 0 011.951-3.366c1.078-.623 1.949-.124 1.949 1.113" fill="#faf2eb"/><path data-name="Fill 385" d="M195.391 97.048a3.019 3.019 0 011.374-2.365c.657-.382 1.208-.166 1.339.47-.061-.839-.693-1.163-1.471-.717a3.267 3.267 0 00-1.481 2.56c0 .758.434 1.14 1.03 1.017-.464.016-.79-.335-.79-.965" fill="#faf2eb"/><path data-name="Fill 387" d="M142.544 72.991l12.713 6.282 46.363-26.877-10.694-7.339 12.718 7.339-48.387 27.932z" fill="#fffaf5"/><path data-name="Fill 389" d="M200.545 153.223l-1.388-.8-40.8 23.553v1.609z" fill="#faf2eb"/><path data-name="Fill 391" d="M200.545 153.223l-.513-.3-.875-.5-40.8 23.553v1.017l41.162-23.77z" fill="#a6a7ab"/><path data-name="Fill 393" d="M200.545 156.567l-1.388-.8-40.8 23.553v1.609z" fill="#faf2eb"/><path data-name="Fill 395" d="M200.545 156.567l-.513-.3-.875-.5-40.8 23.553v1.017l41.162-23.77z" fill="#a6a7ab"/><path data-name="Fill 397" d="M200.545 159.911l-1.388-.8-40.8 23.553v1.609z" fill="#faf2eb"/><path data-name="Fill 399" d="M200.545 159.911l-.513-.3-.875-.5-40.8 23.553v1.017l41.162-23.77z" fill="#a6a7ab"/></g></g><g data-name="Group 402"><path data-name="Fill 1" d="M1.468 174.771l78.692 45.416V109.348L1.468 63.934z" fill="#132172"/><path data-name="Fill 3" d="M1.468 172.175l78.692 45.414v-1.15L1.468 171.025z" fill="#524554"/><path data-name="Fill 4" d="M49.851 36L1.469 63.934l78.692 45.412 48.382-27.932z" fill="#344292"/><path data-name="Fill 5" d="M0 27.934v110.837l48.382-27.934V0z" transform="translate(92.258 88.395)" fill="url(#a)"/><path data-name="Fill 6" d="M138.011 197.729l-43.123 24.9v-104.8l43.123-24.9z" fill="#beb4df"/><path data-name="Fill 7" d="M42.188 103.462L0 127.82V24.358L42.188 0z" transform="translate(95.357 93.87)" fill="url(#b)"/><path data-name="Fill 8" d="M137.545 131.721l-42.188 24.358v.554l42.188-24.358z" fill="#beb4df"/><path data-name="Fill 9" d="M137.545 118.881l-42.188 24.358v.553l42.188-24.358z" fill="#beb4df"/><path data-name="Fill 10" d="M137.545 106.041l-42.188 24.358v.553l42.188-24.358z" fill="#beb4df"/><path data-name="Fill 11" d="M131.855 140.162l-30.809 17.788v14.583l30.809-17.787z" fill="#beb4df"/><path data-name="Fill 12" d="M131.371 140.842l-29.844 17.231v13.779l29.844-17.231z" fill="#e3def3"/><path data-name="Fill 13" d="M135.045 128.792l-38.858 22.436v-5.859l.891-1.539 38.858-17.138z" fill="#8981a2" opacity=".606"/><path data-name="Fill 15" d="M136.719 121.845l-39.64 27.281v-5.3l38.857-22.431z" fill="#fff"/><path data-name="Fill 16" d="M136.718 127.145L97.86 149.578v-5.3l38.858-22.433z" fill="#e3def3"/><path data-name="Fill 17" d="M129.941 134.18l-1.973 1.137v-.954l1.973-1.139z" fill="#abdf66"/><g data-name="Group 401"><path data-name="Fill 20" d="M119.919 179.931a8.2 8.2 0 01-3.718 6.415c-2.056 1.186-3.721.237-3.721-2.121a8.192 8.192 0 013.721-6.415c2.053-1.186 3.718-.237 3.718 2.121" fill="#4a416a"/><path data-name="Fill 26" d="M118.415 190.468a5.047 5.047 0 01-2.292 3.952c-1.267.733-2.293.146-2.293-1.306a5.05 5.05 0 012.293-3.953c1.266-.731 2.292-.146 2.292 1.307" fill="#4a416a"/><path data-name="Fill 28" d="M110.488 186.542l-1.381.8v-1.584l1.381-.8z" fill="#abdf66"/><path data-name="Fill 30" d="M110.488 196.21l-1.381.8v-1.584l1.381-.8z" fill="#f4988b"/><path data-name="Fill 32" d="M137.545 192.571l-42.188 24.358v-1.609l42.188-24.358z" fill="#c8bcae"/><path data-name="Fill 34" d="M137.545 195.915l-42.188 24.358v-1.609l42.188-24.358z" fill="#c8bcae"/><path data-name="Fill 36" d="M137.545 189.227l-42.188 24.358v-1.609l42.188-24.358z" fill="#c8bcae"/><path data-name="Fill 38" d="M131.371 147.455l-29.844 17.23v.554l29.844-17.231z" fill="#beb4df"/><path data-name="Fill 42" d="M92.258 227.166l-12.713-7.338V108.991l12.713 7.337z" fill="#c7bee3"/><path data-name="Fill 44" d="M97.861 149.577l-.783-.447v-5.3l.783.45z" fill="#d6cafe"/><path data-name="Fill 46" d="M120.701 180.382a8.2 8.2 0 01-3.718 6.415c-2.056 1.186-3.721.237-3.721-2.121a8.194 8.194 0 013.721-6.415c2.052-1.186 3.718-.237 3.718 2.121" fill="#c5bae6"/><path data-name="Fill 48" d="M120.493 181.155a6.748 6.748 0 01-3.062 5.281c-1.692.978-3.062.195-3.062-1.747a6.743 6.743 0 013.062-5.28c1.69-.975 3.062-.194 3.062 1.746" fill="#fff"/><path data-name="Fill 50" d="M119.197 190.919a5.047 5.047 0 01-2.292 3.952c-1.267.733-2.293.146-2.293-1.305a5.05 5.05 0 012.293-3.954c1.266-.731 2.292-.146 2.292 1.307" fill="#c5bae6"/><g data-name="Group 54"><path data-name="Fill 52" d="M92.258 116.328l-12.713-7.337 48.38-27.934 12.72 7.337z" fill="#ede8fe"/></g><path data-name="Fill 57" d="M134.675 131.027a3.263 3.263 0 01-1.484 2.552c-.817.478-1.481.1-1.481-.84a3.266 3.266 0 011.481-2.56c.819-.473 1.483-.1 1.483.844" fill="#beb4df"/><path data-name="Fill 59" d="M134.727 130.36l-.567-.322-2.063 3.623.493.3z" fill="#bdb1a4"/><path data-name="Fill 61" d="M135.116 131.284a3.261 3.261 0 01-1.482 2.551c-.819.478-1.481.1-1.481-.839a3.267 3.267 0 011.481-2.561c.819-.469 1.482-.091 1.482.849" fill="#fff"/><path data-name="Fill 63" d="M128.865 147.7l-1.755 1.012v.715l1.755-1.014z" fill="#abdf66"/><path data-name="Fill 65" d="M120.807 150.663c0 .761-1.4 2.1-3.132 3s-3.141 1.005-3.141.243 1.4-2.1 3.132-3 3.139-1 3.141-.245" fill="#c8bcae"/><path data-name="Fill 67" d="M127.652 146.489l-20.725 11.96v-.538l20.725-11.962z" fill="#151411"/><path data-name="Fill 69" d="M119.965 150.882c0 .446-1.154 1.406-2.581 2.144s-2.585.974-2.585.53 1.154-1.409 2.579-2.148 2.587-.972 2.587-.526" fill="#151411"/><path data-name="Fill 383" d="M119.119 191.304a4.3 4.3 0 01-1.949 3.367c-1.078.621-1.951.123-1.951-1.114a4.3 4.3 0 011.951-3.366c1.078-.623 1.949-.124 1.949 1.113" fill="#faf2eb"/><path data-name="Fill 385" d="M132.391 133.048a3.019 3.019 0 011.374-2.365c.657-.382 1.208-.166 1.339.47-.061-.839-.693-1.163-1.471-.717a3.267 3.267 0 00-1.481 2.56c0 .758.434 1.14 1.03 1.017-.464.016-.79-.335-.79-.965" fill="#faf2eb"/><path data-name="Fill 387" d="M79.544 108.991l12.713 6.282 46.363-26.877-10.694-7.339 12.718 7.339-48.387 27.932z" fill="#fffaf5"/><path data-name="Fill 389" d="M137.545 189.223l-1.388-.8-40.8 23.553v1.609z" fill="#faf2eb"/><path data-name="Fill 391" d="M137.545 189.223l-.513-.3-.875-.5-40.8 23.553v1.017l41.162-23.77z" fill="#a6a7ab"/><path data-name="Fill 393" d="M137.545 192.567l-1.388-.8-40.8 23.553v1.609z" fill="#faf2eb"/><path data-name="Fill 395" d="M137.545 192.567l-.513-.3-.875-.5-40.8 23.553v1.017l41.162-23.77z" fill="#a6a7ab"/><path data-name="Fill 397" d="M137.545 195.911l-1.388-.8-40.8 23.553v1.609z" fill="#faf2eb"/><path data-name="Fill 399" d="M137.545 195.911l-.513-.3-.875-.5-40.8 23.553v1.017l41.162-23.77z" fill="#a6a7ab"/></g></g><path data-name="Fill 25" d="M26.113 87.208l-6.84 48.665c-1.122 7.986-8.131 16.905-15.66 19.915l41.21 32.002c7.53-3.013 14.54-11.933 15.662-19.92l6.839-48.665z" fill="#fff"/><path d="M34.453 21.923a10.416 10.416 0 00.092-1.346c0-5.728-4.07-12.709-9.09-15.591-2.918-1.676-5.507-1.586-7.171-.106a14.544 14.544 0 00-4.193-3.825C9.823-1.395 6.364.566 6.364 5.44c0 .048.006.1.006.148C2.751 4.243 0 6.263 0 10.6c0 4.87 3.46 10.8 7.727 13.253l24.546 14.092C36.54 40.395 40 38.434 40 33.56c0-4-2.342-8.72-5.547-11.637z" transform="rotate(8 -784.394 230.006)" fill="url(#c)"/><path d="M46.943 109.735c1.069.617 1.936.117 1.936-1.118a4.279 4.279 0 00-1.936-3.354c-1.069-.617-1.936-.116-1.936 1.118a4.279 4.279 0 001.936 3.354z" fill="#d7ddfd"/></g></svg>