<svg xmlns="http://www.w3.org/2000/svg" width="329.625" height="206.91" viewBox="0 0 329.625 206.91"><defs><linearGradient id="a" x1=".421" y1="1" x2=".733" y2=".258" gradientUnits="objectBoundingBox"><stop offset="0" stop-color="#26259e"/><stop offset="1" stop-color="#5f50cc"/></linearGradient><linearGradient id="k" y1=".5" x2="1" y2=".5" gradientUnits="objectBoundingBox"><stop offset="0" stop-color="#83dde1"/><stop offset="1" stop-color="#60c1f2"/></linearGradient><linearGradient id="c" y1=".269" x2="1" y2=".88" gradientUnits="objectBoundingBox"><stop offset="0" stop-color="#dbd0ff"/><stop offset="1" stop-color="#4e3cdf"/></linearGradient><linearGradient id="d" x1="-.08" y1=".354" x2="1" y2=".742" gradientUnits="objectBoundingBox"><stop offset="0" stop-color="#5f50cc"/><stop offset="1" stop-color="#26259e"/></linearGradient><linearGradient id="j" x1="-5.605" y1="-600.03" x2="1" y2="-600.03" gradientUnits="objectBoundingBox"><stop offset="0" stop-color="#e377a6"/><stop offset="1" stop-color="#f76193"/></linearGradient><linearGradient id="b" x1="-.08" y1=".354" x2="1" y2=".742" gradientUnits="objectBoundingBox"><stop offset="0" stop-color="#5f50cc" stop-opacity=".102"/><stop offset="1" stop-color="#26259e" stop-opacity=".102"/></linearGradient><linearGradient id="i" x1=".419" y1=".798" x2="1" y2=".318" gradientUnits="objectBoundingBox"><stop offset="0" stop-color="#fbf9ff"/><stop offset="1" stop-color="#ebe5ff"/></linearGradient><linearGradient id="h" x1=".252" y1=".702" x2=".672" y2=".727" gradientUnits="objectBoundingBox"><stop offset="0" stop-color="#f6f3ff"/><stop offset="1" stop-color="#d6cafe"/></linearGradient><clipPath id="g"><path data-name="Clip 107" d="M0 0h23.7v20.526H0z" transform="translate(.185 .169)" fill="none"/></clipPath><clipPath id="e"><path d="M90.325 9.11c20.73 12.147 20.9 31.841.26 43.988s-54.21 12.147-74.94 0-20.9-31.841-.26-43.988 54.215-12.147 74.94 0z" fill="url(#a)"/></clipPath><clipPath id="f"><path data-name="Clip 102" d="M0 0h71.1v41.052H0z" transform="translate(.021 .211)" fill="none"/></clipPath></defs><g data-name="Group 37"><g data-name="Group 36"><g transform="translate(60.559 62.01)" stroke-miterlimit="10" fill="url(#b)"><path d="M177.723 17.925c40.788 23.9 41.129 62.651.512 86.551s-106.663 23.9-147.451 0-41.129-62.651-.512-86.551 106.663-23.9 147.451 0z"/><path d="M103.933.5C97.28.5 90.598.876 84.078 1.617a162.7 162.7 0 00-19.251 3.35C51.95 8.036 40.41 12.54 30.525 18.357c-4.938 2.906-9.373 6.1-13.181 9.496-3.705 3.303-6.861 6.837-9.383 10.501-2.47 3.59-4.356 7.344-5.605 11.156C1.121 53.28.496 57.14.5 60.986c.004 3.88.646 7.78 1.91 11.588 1.277 3.85 3.2 7.642 5.716 11.27 2.566 3.703 5.776 7.273 9.539 10.61 3.867 3.43 8.366 6.657 13.372 9.59 9.927 5.817 21.5 10.321 34.397 13.388a163.289 163.289 0 0019.276 3.35c6.526.742 13.209 1.118 19.863 1.118 6.655 0 13.336-.376 19.856-1.117a162.698 162.698 0 0019.251-3.35c12.876-3.068 24.416-7.572 34.302-13.389 4.938-2.906 9.373-6.1 13.181-9.496 3.705-3.304 6.861-6.837 9.383-10.501 2.47-3.59 4.355-7.344 5.605-11.156 1.235-3.77 1.86-7.63 1.856-11.477-.004-3.88-.646-7.78-1.91-11.588-1.277-3.85-3.2-7.642-5.716-11.27-2.566-3.703-5.776-7.273-9.539-10.61-3.867-3.43-8.366-6.657-13.372-9.59-9.927-5.817-21.5-10.321-34.397-13.388a163.287 163.287 0 00-19.276-3.35A176.7 176.7 0 00103.933.5m0-.5c26.688 0 53.396 5.975 73.79 17.925 40.788 23.9 41.13 62.65.512 86.55-20.309 11.95-46.974 17.925-73.662 17.925-26.687 0-53.395-5.975-73.79-17.925-40.787-23.9-41.128-62.65-.511-86.55C50.58 5.975 77.246 0 103.933 0z" fill="rgba(45,43,164,0.5)"/></g><g data-name="Group 35"><g data-name="Group 34"><path d="M141.594 136.991c-2.863-3.597-3.689-7.533-2.426-11.421 1.896-5.881 8.554-10.887 17.788-13.365 15.746-4.228 34.6-.146 41.99 9.137 2.867 3.6 3.694 7.533 2.43 11.421-1.9 5.881-8.554 10.886-17.788 13.365a51.283 51.283 0 01-13.073 1.652c-11.955 0-23.521-3.985-28.921-10.789z" fill="#bef8f9"/><g data-name="Group"><path data-name="Shape" d="M79.5 95.256a128.316 128.316 0 01-29.478-3.336A93.513 93.513 0 0124.13 81.854C8.569 72.731 0 60.48 0 47.359a32.323 32.323 0 016.12-18.647c4.087-5.892 10.029-11.107 17.66-15.5A93.043 93.043 0 0149.343 3.3a130.354 130.354 0 0158.572.061 94.333 94.333 0 0125.905 10.085c15.56 9.123 24.13 21.374 24.13 34.5a32.323 32.323 0 01-6.12 18.646c-4.087 5.892-10.029 11.107-17.66 15.5a93.614 93.614 0 01-25.543 9.862A126.867 126.867 0 0179.5 95.256zm-.932-87.87c-19.319 0-37.41 4.346-50.941 12.236C14.772 27.216 7.693 36.983 7.693 47.126c0 10.33 7.2 20.264 20.283 27.969C41.8 83.136 60.1 87.565 79.5 87.565c19.319 0 37.41-4.346 50.94-12.236 12.854-7.594 19.933-17.362 19.933-27.5 0-10.331-7.2-20.264-20.282-27.969C116.27 11.815 97.972 7.386 78.567 7.386z" transform="translate(87.458 78.768)" fill="url(#c)"/></g><g data-name="Group"><path data-name="Path" d="M121.374 12.242c27.856 16.322 28.089 42.787.35 59.109s-72.845 16.322-100.7 0-28.089-42.787-.35-59.109 72.845-16.323 100.7 0z" fill="url(#d)" transform="translate(95.234 84.6)"/><g data-name="Group 308"><path data-name="Mask" d="M90.325 9.11c20.73 12.147 20.9 31.841.26 43.988s-54.21 12.147-74.94 0-20.9-31.841-.26-43.988 54.215-12.147 74.94 0z" fill="url(#a)" transform="translate(113.216 103.068)"/><g data-name="Group 308" clip-path="url(#e)" transform="translate(113.216 103.068)"><g data-name="Group 308"><path data-name="Fill 3" d="M70.54 78.406L46.548 29.211l-27.3-1.908L43.24 76.497z" fill="#00e8cc"/><path data-name="Fill 4" d="M43.241 76.498l-3.826 5.673-23.992-49.195 3.826-5.673z" fill="#00b0b5"/><path data-name="Fill 5" d="M39.417 82.172l27.3 1.908 3.826-5.672-27.3-1.909z" fill="#00935d"/><path data-name="Fill 6" d="M48.296 74.993l-5.416-3.86L24.21 32.92l-.079-.159 2.043-3.59 15.059 1.066 5.415 3.861L65.32 72.31l.08.16-2.044 3.589zm-7.3-44.1l-14.45-1.024-1.656 2.916 18.516 37.897 5.123 3.654 14.449 1.022 1.662-2.916-18.52-37.896-5.123-3.654z" fill="#00ae64"/><g data-name="Group 307"><path data-name="Fill 7" d="M53.314 65.978c1.734 1.211 2.513 3.091 1.74 4.199s-2.809 1.026-4.543-.185-2.513-3.09-1.74-4.2 2.808-1.024 4.543.186" fill="#00ae64"/><path data-name="Fill 9" d="M51.034 69.214l-.024-.017a3.054 3.054 0 01-1.06-1.22l-.405-.032-.132-.273.404.031a.933.933 0 010-.875.706.706 0 01.658-.216 1.592 1.592 0 01.791.283 4.177 4.177 0 01.92.96l.016.02 1.122.08a1.79 1.79 0 00-.592-.635l-.02-.013.316-.39a3.026 3.026 0 01.881 1.036l.024.046.37.026.135.278-.377-.027a.863.863 0 01-.018.816.646.646 0 01-.598.211 1.653 1.653 0 01-.824-.293 3.96 3.96 0 01-.858-.874l-.017-.027-1.19-.085a2.113 2.113 0 00.63.674c.047.03.093.062.143.086l-.291.432zm.042-1.833a.68.68 0 00-.335-.124.322.322 0 00-.289.094.454.454 0 00-.032.396l1.096.08-.022-.026a2.2 2.2 0 00-.418-.42zm2.375.854l-1.033-.077.077.084a1.853 1.853 0 00.313.294.7.7 0 00.355.119.288.288 0 00.26-.088.365.365 0 00.028-.332z" fill="#00e894"/><path data-name="Fill 11" d="M38.799 35.475c1.734 1.21 2.513 3.09 1.74 4.198s-2.808 1.027-4.543-.184-2.513-3.09-1.74-4.2 2.808-1.024 4.543.186" fill="#00ae64"/><path data-name="Fill 13" d="M36.52 38.71l-.024-.016a3.062 3.062 0 01-1.062-1.221l-.404-.031-.132-.274.404.031a.933.933 0 010-.875.706.706 0 01.658-.215 1.593 1.593 0 01.792.283 4.168 4.168 0 01.916.957l.017.02 1.124.082a1.79 1.79 0 00-.592-.634l-.02-.014.317-.39a3.018 3.018 0 01.88 1.036l.023.046.371.027.135.278-.377-.027a.863.863 0 01-.018.815.646.646 0 01-.598.211 1.653 1.653 0 01-.823-.292 3.946 3.946 0 01-.858-.875l-.017-.026-1.192-.086a2.113 2.113 0 00.631.674c.047.031.093.063.143.087l-.291.432zm.042-1.832a.68.68 0 00-.336-.124.322.322 0 00-.29.093.455.455 0 00-.032.395l1.097.081-.022-.025a2.2 2.2 0 00-.418-.421zm2.374.853l-1.033-.077.077.084a1.853 1.853 0 00.313.294.7.7 0 00.355.12.288.288 0 00.26-.089.365.365 0 00.028-.332z" fill="#00e894"/><path data-name="Fill 15" d="M48.331 46.787c4.84 3.377 7.01 8.62 4.849 11.714s-7.828 2.859-12.666-.518-7.007-8.62-4.85-11.712 7.83-2.858 12.667.516" fill="#00ae64"/><path data-name="Fill 17" d="M41.972 55.81l-.067-.046a8.559 8.559 0 01-2.96-3.396l-1.114-.08-.38-.777 1.13.084a2.6 2.6 0 01-.002-2.44 1.969 1.969 0 011.834-.597 4.436 4.436 0 012.204.789 11.682 11.682 0 012.557 2.67l.043.06 3.141.225a4.955 4.955 0 00-1.648-1.775l-.054-.036.878-1.085a8.451 8.451 0 012.455 2.889l.063.129 1.035.074.378.774-1.052-.076a2.407 2.407 0 01-.05 2.273 1.8 1.8 0 01-1.67.59 4.624 4.624 0 01-2.298-.817 11 11 0 01-2.396-2.443l-.052-.072-3.309-.237a5.9 5.9 0 001.76 1.878c.129.088.263.17.396.242l-.821 1.199zm.117-5.108a1.9 1.9 0 00-.936-.345.9.9 0 00-.803.256 1.269 1.269 0 00-.091 1.105l3.06.22-.057-.07a6.135 6.135 0 00-1.174-1.17zm6.615 2.375l-2.871-.21.217.234a5.149 5.149 0 00.872.822 1.943 1.943 0 00.985.338.8.8 0 00.723-.244 1.023 1.023 0 00.076-.943z" fill="#00e894"/><path data-name="Fill 19" d="M41.047 57.58l-.204-.138a12.9 12.9 0 01-4.588-5.42 5.445 5.445 0 01.195-5.315 5.444 5.444 0 014.92-2.013 12.833 12.833 0 016.467 2.298l.202.136a12.888 12.888 0 014.587 5.422 5.442 5.442 0 01-.193 5.312 5.4 5.4 0 01-4.79 2.011 12.7 12.7 0 01-6.596-2.293zm6.598-10.326a12.462 12.462 0 00-6.287-2.235 5.138 5.138 0 00-4.641 1.874 5.138 5.138 0 00-.16 5.001 12.558 12.558 0 004.473 5.28l.218.146a12.4 12.4 0 006.34 2.233 5.114 5.114 0 004.58-1.877 5.133 5.133 0 00.16-5.002 12.55 12.55 0 00-4.474-5.275z" fill="#00e894"/><path data-name="Fill 21" d="M28.089 58.978l3.835-5.686-2.76-5.652-3.836 5.687z" fill="#a7c3cf"/><path data-name="Fill 23" d="M31.924 53.292l27.324 1.92-2.76-5.652-27.325-1.92z" fill="#d4eef9"/><path data-name="Fill 25" d="M27.622 58.028l3.836-5.688-.125-.252-3.836 5.687z" fill="#d3688c"/><path data-name="Fill 27" d="M31.459 52.342l27.323 1.919-.125-.253-27.324-1.92z" fill="#ff9ebd"/><path data-name="Fill 29" d="M25.718 54.173l3.837-5.688-.125-.252-3.836 5.686z" fill="#d3688c"/><path data-name="Fill 31" d="M29.555 48.486l27.324 1.918-.125-.252-27.324-1.92z" fill="#ff9ebd"/><path data-name="Fill 33" d="M75.44 71.141L51.449 21.946l-27.3-1.908L48.14 69.233z" fill="#00e8cc"/><path data-name="Fill 35" d="M48.142 69.233l-3.826 5.672L20.323 25.71l3.826-5.672z" fill="#00b0b5"/><path data-name="Fill 37" d="M44.317 74.907l27.3 1.908 3.826-5.672-27.3-1.909z" fill="#00935d"/><path data-name="Fill 39" d="M53.196 67.728l-5.415-3.86-18.672-38.213-.08-.158 2.044-3.59 15.059 1.065 5.415 3.861L70.22 65.044l.08.16-2.044 3.589zm-7.299-44.1l-14.45-1.024-1.657 2.916 18.517 37.898 5.123 3.653 14.448 1.022 1.662-2.916L51.02 27.28l-5.123-3.653z" fill="#00ae64"/><path data-name="Fill 41" d="M58.214 58.713c1.734 1.211 2.513 3.091 1.74 4.199s-2.808 1.025-4.542-.185-2.513-3.09-1.74-4.199 2.807-1.025 4.542.185" fill="#00ae64"/><path data-name="Fill 43" d="M55.934 61.949l-.024-.017a3.054 3.054 0 01-1.06-1.22l-.4-.029-.137-.276.405.031a.931.931 0 01-.001-.875.706.706 0 01.658-.216 1.592 1.592 0 01.791.283 4.177 4.177 0 01.92.96l.016.02 1.122.08a1.79 1.79 0 00-.592-.635l-.02-.012.316-.39a3.026 3.026 0 01.88 1.035l.024.045.37.027.136.278-.376-.027a.863.863 0 01-.018.816.645.645 0 01-.598.21 1.651 1.651 0 01-.825-.292 3.943 3.943 0 01-.857-.875l-.018-.026-1.19-.085a2.113 2.113 0 00.63.674c.047.031.093.062.144.087l-.292.431zm.042-1.833a.68.68 0 00-.335-.124.321.321 0 00-.289.094.454.454 0 00-.032.397l1.096.079-.022-.025a2.2 2.2 0 00-.418-.421zm2.376.853l-1.034-.076.077.084a1.853 1.853 0 00.313.294.7.7 0 00.356.119.289.289 0 00.258-.087.366.366 0 00.03-.334z" fill="#00e894"/><path data-name="Fill 45" d="M43.699 28.21c1.734 1.21 2.513 3.09 1.74 4.198s-2.807 1.026-4.542-.185-2.513-3.09-1.74-4.199S41.964 27 43.7 28.21" fill="#00ae64"/><path data-name="Fill 47" d="M41.42 31.446l-.025-.016a3.072 3.072 0 01-1.06-1.222l-.404-.031-.133-.273.404.031a.933.933 0 010-.876.706.706 0 01.658-.215 1.591 1.591 0 01.791.282 4.193 4.193 0 01.92.96l.017.02 1.118.085a1.755 1.755 0 00-.59-.64l-.019-.013.317-.389a3.018 3.018 0 01.88 1.035l.023.046.371.027.135.278-.376-.027a.863.863 0 01-.018.815.646.646 0 01-.599.212 1.655 1.655 0 01-.824-.293 3.938 3.938 0 01-.858-.875l-.017-.026-1.19-.086a2.109 2.109 0 00.63.674c.048.032.095.064.145.088l-.292.433zm.042-1.833a.68.68 0 00-.335-.124.322.322 0 00-.29.093.455.455 0 00-.033.396l1.097.08-.022-.025a2.2 2.2 0 00-.418-.42zm2.374.853l-1.033-.077.077.084a1.853 1.853 0 00.313.294.7.7 0 00.355.12.288.288 0 00.26-.088.366.366 0 00.028-.333z" fill="#00e894"/><path data-name="Fill 49" d="M53.232 39.522c4.838 3.378 7.009 8.62 4.848 11.714s-7.828 2.86-12.665-.518-7.008-8.62-4.85-11.712 7.828-2.858 12.667.516" fill="#00ae64"/><path data-name="Fill 51" d="M46.872 48.545l-.067-.046a8.559 8.559 0 01-2.96-3.395l-1.114-.08-.38-.777 1.13.083a2.6 2.6 0 01-.002-2.44 1.969 1.969 0 011.835-.596 4.438 4.438 0 012.204.788 11.656 11.656 0 012.556 2.67l.044.06 3.14.225a4.942 4.942 0 00-1.644-1.772l-.058-.04.879-1.083a8.451 8.451 0 012.455 2.889l.063.129 1.035.073.378.775-1.051-.076a2.407 2.407 0 01-.052 2.272 1.8 1.8 0 01-1.67.59 4.624 4.624 0 01-2.298-.817 11 11 0 01-2.396-2.442l-.052-.073-3.309-.237a5.9 5.9 0 001.76 1.878c.13.088.263.17.396.242l-.821 1.199zm.117-5.108a1.9 1.9 0 00-.936-.345.9.9 0 00-.802.257 1.267 1.267 0 00-.091 1.104l3.059.221-.056-.07a6.135 6.135 0 00-1.174-1.171zm6.615 2.375l-2.871-.21.217.234a5.149 5.149 0 00.873.823 1.943 1.943 0 00.985.337.805.805 0 00.723-.244 1.023 1.023 0 00.075-.942z" fill="#00e894"/><path data-name="Fill 53" d="M45.947 50.315l-.204-.137a12.9 12.9 0 01-4.588-5.422 5.445 5.445 0 01.195-5.313 5.444 5.444 0 014.921-2.014 12.825 12.825 0 016.467 2.298l.201.136a12.888 12.888 0 014.587 5.422 5.443 5.443 0 01-.193 5.312 5.4 5.4 0 01-4.79 2.011 12.7 12.7 0 01-6.596-2.293zm6.598-10.326a12.462 12.462 0 00-6.287-2.234 5.136 5.136 0 00-4.64 1.873 5.135 5.135 0 00-.16 5 12.55 12.55 0 004.473 5.28l.217.147a12.4 12.4 0 006.34 2.233 5.114 5.114 0 004.58-1.877 5.133 5.133 0 00.16-5.001 12.55 12.55 0 00-4.474-5.276z" fill="#00e894"/><path data-name="Fill 55" d="M32.99 51.712l3.835-5.686-2.761-5.651-3.835 5.686z" fill="#a7c3cf"/><path data-name="Fill 57" d="M36.824 46.027l27.324 1.92-2.76-5.652-27.325-1.92z" fill="#d4eef9"/><path data-name="Fill 59" d="M32.522 50.764l3.837-5.688-.126-.253-3.835 5.687z" fill="#d3688c"/><path data-name="Fill 61" d="M36.359 45.077l27.324 1.918-.126-.252-27.324-1.92z" fill="#ff9ebd"/><path data-name="Fill 63" d="M30.619 46.908l3.836-5.687-.125-.253-3.836 5.687z" fill="#d3688c"/><path data-name="Fill 65" d="M34.456 41.221l27.323 1.919-.125-.253-27.324-1.92z" fill="#ff9ebd"/><path data-name="Fill 67" d="M79.53 64.639L55.54 15.444l-27.3-1.908L52.23 62.73z" fill="#00e8cc"/><path data-name="Fill 69" d="M52.232 62.731l-3.826 5.672-23.993-49.195 3.826-5.672z" fill="#00b0b5"/><path data-name="Fill 71" d="M48.407 68.404l27.3 1.909 3.826-5.673-27.3-1.908z" fill="#008d93"/><path data-name="Fill 73" d="M57.286 61.226l-5.416-3.859L33.2 19.154l-.08-.158 2.044-3.59 15.059 1.064 5.415 3.862 18.672 38.21.08.16-2.044 3.59zm-7.3-44.1l-14.45-1.023-1.656 2.916 18.516 37.897 5.123 3.653 14.449 1.023 1.662-2.917L55.11 20.78l-5.123-3.653z" fill="#00a4a4"/><path data-name="Fill 75" d="M62.304 52.211c1.734 1.212 2.513 3.09 1.74 4.2s-2.808 1.024-4.542-.187-2.512-3.09-1.74-4.198 2.807-1.025 4.542.185" fill="#00ae64"/><path data-name="Fill 77" d="M60.024 55.447l-.02-.013a3.063 3.063 0 01-1.064-1.225l-.4-.028-.136-.277.404.032a.933.933 0 010-.875.706.706 0 01.657-.216 1.591 1.591 0 01.79.282 4.2 4.2 0 01.921.96l.017.02 1.12.08a1.778 1.778 0 00-.59-.634l-.02-.013.316-.39a3.019 3.019 0 01.88 1.036l.024.046.37.026.135.278-.376-.027a.864.864 0 01-.018.815.646.646 0 01-.598.212 1.658 1.658 0 01-.825-.294 3.938 3.938 0 01-.858-.874l-.018-.026-1.189-.086a2.109 2.109 0 00.631.674c.047.032.094.064.145.088l-.292.433zm.043-1.833a.677.677 0 00-.335-.124.323.323 0 00-.29.094.454.454 0 00-.032.395l1.096.08-.021-.025a2.2 2.2 0 00-.418-.42zm2.375.854l-1.034-.077.077.083a1.854 1.854 0 00.314.295.7.7 0 00.355.119.288.288 0 00.259-.089.365.365 0 00.029-.331z" fill="#00e894"/><path data-name="Fill 79" d="M47.79 21.708c1.734 1.21 2.513 3.09 1.74 4.199s-2.808 1.026-4.543-.185-2.512-3.09-1.74-4.199 2.808-1.025 4.543.185" fill="#00ae64"/><path data-name="Fill 81" d="M45.51 24.943l-.025-.017a3.054 3.054 0 01-1.06-1.22l-.404-.031-.133-.274.405.031a.933.933 0 010-.875.706.706 0 01.657-.216 1.591 1.591 0 01.79.283 4.2 4.2 0 01.921.96l.016.02 1.123.08a1.79 1.79 0 00-.593-.635l-.02-.013.316-.39a3.026 3.026 0 01.882 1.036l.023.046.37.026.135.278-.376-.027a.863.863 0 01-.018.816.646.646 0 01-.599.211 1.655 1.655 0 01-.824-.293 3.938 3.938 0 01-.858-.874l-.016-.027-1.191-.085a2.113 2.113 0 00.63.674c.047.031.094.062.144.086l-.292.432zm.041-1.833a.68.68 0 00-.335-.124.322.322 0 00-.288.094.454.454 0 00-.032.396l1.095.08-.021-.025a2.2 2.2 0 00-.419-.421zm2.376.854l-1.034-.077.078.084a1.853 1.853 0 00.313.294.7.7 0 00.355.119.288.288 0 00.26-.088.365.365 0 00.028-.332z" fill="#00e894"/><path data-name="Fill 83" d="M57.322 33.02c4.839 3.377 7.009 8.62 4.85 11.715s-7.829 2.859-12.666-.519-7.009-8.62-4.85-11.712 7.828-2.858 12.666.516" fill="#00ae64"/><path data-name="Fill 85" d="M50.962 42.043l-.063-.042a8.567 8.567 0 01-2.963-3.4l-1.114-.08-.38-.776 1.13.083a2.6 2.6 0 01-.003-2.44 1.969 1.969 0 011.836-.596 4.433 4.433 0 012.203.787 11.682 11.682 0 012.556 2.672l.044.058 3.141.225a4.876 4.876 0 00-1.644-1.771l-.058-.04.878-1.084a8.459 8.459 0 012.456 2.89l.063.129 1.035.074.379.775-1.051-.076a2.408 2.408 0 01-.054 2.271 1.8 1.8 0 01-1.669.59 4.62 4.62 0 01-2.3-.817 11.028 11.028 0 01-2.396-2.441l-.05-.073-3.309-.239a5.9 5.9 0 001.758 1.877c.13.088.264.17.398.243l-.822 1.2zm.118-5.107a1.9 1.9 0 00-.937-.346.9.9 0 00-.802.256 1.269 1.269 0 00-.092 1.104l3.062.22-.058-.069a6.132 6.132 0 00-1.174-1.169zm6.614 2.375l-2.87-.212.216.235a5.149 5.149 0 00.873.822 1.943 1.943 0 00.984.337.8.8 0 00.723-.243 1.023 1.023 0 00.076-.943z" fill="#00e894"/><path data-name="Fill 87" d="M50.037 43.814l-.204-.138a12.889 12.889 0 01-4.588-5.421 5.443 5.443 0 01.195-5.315 5.442 5.442 0 014.92-2.014 12.84 12.84 0 016.468 2.299l.201.136a12.9 12.9 0 014.588 5.422 5.445 5.445 0 01-.194 5.313 5.4 5.4 0 01-4.79 2.01 12.7 12.7 0 01-6.596-2.292zm6.598-10.326a12.462 12.462 0 00-6.287-2.235 5.135 5.135 0 00-4.64 1.872 5.136 5.136 0 00-.16 5.002 12.557 12.557 0 004.473 5.28l.22.147a12.39 12.39 0 006.336 2.23 5.114 5.114 0 004.579-1.872 5.136 5.136 0 00.162-5.005 12.551 12.551 0 00-4.474-5.275z" fill="#00e894"/><path data-name="Fill 89" d="M37.08 45.21l3.835-5.686-2.761-5.65-3.836 5.686z" fill="#a7c3cf"/><path data-name="Fill 91" d="M40.915 39.524l27.324 1.92-2.761-5.651-27.324-1.92z" fill="#d4eef9"/><path data-name="Fill 93" d="M36.612 44.261l3.836-5.687-.124-.253-3.836 5.687z" fill="#d3688c"/><path data-name="Fill 95" d="M40.45 38.575l27.323 1.918-.125-.252-27.324-1.92z" fill="#ff9ebd"/><path data-name="Fill 97" d="M34.709 40.406l3.837-5.688-.126-.253-3.836 5.688z" fill="#d3688c"/><path data-name="Fill 99" d="M38.546 34.72l27.323 1.918-.125-.253-27.324-1.92z" fill="#ff9ebd"/><g data-name="Group 103"><path data-name="Clip 102" d="M43.16-4.317l58.944 39.759-22.956 34.033-58.945-39.758z" fill="none"/><g data-name="Group 103" clip-path="url(#f)" transform="rotate(34 28.995 68.496)"><path data-name="Fill 101" d="M71.121 27.579L23.721.211.021 13.895l47.4 27.368z" fill="#00e8cc"/></g></g><path data-name="Fill 104" d="M59.5 56.224l-3.826 5.672L31.68 12.701l3.826-5.672z" fill="#00b0b5"/><g data-name="Group 108"><path data-name="Clip 107" d="M67.154 44.881l19.649 13.253L75.325 75.15 55.676 61.898z" fill="none"/><g data-name="Group 108" clip-path="url(#g)" transform="rotate(34 -39.454 132.048)"><path data-name="Fill 106" d="M.185 20.695l23.7-13.684V.169L.185 13.853z" fill="#008d93"/></g></g><path data-name="Fill 109" d="M64.556 54.718l-5.417-3.859-18.671-38.213-.08-.158 2.044-3.59 15.06 1.065 5.414 3.86 18.673 38.212.078.16-2.042 3.589zm-7.3-44.1l-14.45-1.023-1.658 2.915 18.517 37.898 5.122 3.653 14.449 1.022 1.663-2.915-18.52-37.897-5.123-3.652z" fill="#00ae64"/><path data-name="Fill 111" d="M69.573 45.703c1.734 1.212 2.513 3.09 1.74 4.2s-2.808 1.024-4.542-.187-2.513-3.09-1.74-4.198 2.807-1.025 4.542.185" fill="#00ae64"/><path data-name="Fill 113" d="M67.293 48.94l-.02-.013a3.07 3.07 0 01-1.065-1.225l-.404-.03-.132-.275.404.032a.933.933 0 010-.875.706.706 0 01.658-.216 1.591 1.591 0 01.79.283 4.193 4.193 0 01.922.96l.016.02 1.121.08a1.785 1.785 0 00-.592-.635l-.02-.013.317-.39a3.027 3.027 0 01.881 1.036l.023.046.37.026.135.278-.377-.027a.864.864 0 01-.018.815.645.645 0 01-.598.212 1.658 1.658 0 01-.825-.294 3.929 3.929 0 01-.858-.874l-.018-.027-1.189-.085a2.113 2.113 0 00.631.674c.047.032.093.063.143.087l-.292.433zm.043-1.833a.68.68 0 00-.336-.124.322.322 0 00-.29.093.455.455 0 00-.032.396l1.096.08-.021-.025a2.2 2.2 0 00-.418-.42zm2.374.854l-1.033-.077.078.084a1.853 1.853 0 00.312.294.7.7 0 00.354.118.288.288 0 00.26-.087.365.365 0 00.03-.332z" fill="#00e894"/><path data-name="Fill 115" d="M55.059 15.2c1.734 1.212 2.512 3.091 1.739 4.2s-2.807 1.025-4.542-.186-2.512-3.09-1.739-4.2 2.807-1.024 4.542.186" fill="#00ae64"/><path data-name="Fill 117" d="M52.778 18.436l-.024-.016a3.062 3.062 0 01-1.061-1.222l-.404-.03-.132-.274.404.031a.933.933 0 010-.875.706.706 0 01.658-.216 1.591 1.591 0 01.79.283 4.2 4.2 0 01.921.96l.016.02 1.122.08a1.785 1.785 0 00-.592-.635l-.02-.013.317-.39a3.027 3.027 0 01.881 1.037l.022.045.37.027.136.277-.377-.027a.864.864 0 01-.018.816.645.645 0 01-.598.211 1.656 1.656 0 01-.825-.293 3.93 3.93 0 01-.858-.874l-.018-.028-1.189-.084a2.113 2.113 0 00.631.674c.047.03.093.062.143.086l-.291.432zm.043-1.833a.68.68 0 00-.336-.123.322.322 0 00-.29.093.455.455 0 00-.032.395l1.096.08-.021-.024a2.2 2.2 0 00-.418-.421zm2.374.854l-1.033-.077.078.084a1.854 1.854 0 00.312.294.7.7 0 00.355.119.288.288 0 00.26-.087.365.365 0 00.028-.333z" fill="#00e894"/><path data-name="Fill 119" d="M64.59 26.512c4.84 3.377 7.01 8.62 4.85 11.714s-7.829 2.86-12.666-.518-7.008-8.62-4.85-11.712 7.829-2.858 12.667.516" fill="#00ae64"/><path data-name="Fill 121" d="M58.23 35.536l-.063-.042a8.573 8.573 0 01-2.963-3.4l-1.114-.082-.38-.774 1.13.083a2.6 2.6 0 01-.002-2.44 1.969 1.969 0 011.835-.596 4.433 4.433 0 012.203.787 11.682 11.682 0 012.557 2.671l.043.059 3.142.225a4.876 4.876 0 00-1.645-1.772l-.058-.039.878-1.084a8.451 8.451 0 012.456 2.89l.063.129 1.035.074.38.775-1.052-.076a2.409 2.409 0 01-.053 2.271 1.8 1.8 0 01-1.666.592 4.624 4.624 0 01-2.3-.817 11.029 11.029 0 01-2.397-2.442l-.05-.072-3.31-.24a5.893 5.893 0 001.757 1.876c.13.088.264.17.398.243l-.823 1.2zm.118-5.107a1.893 1.893 0 00-.936-.345.9.9 0 00-.803.255 1.268 1.268 0 00-.093 1.104l3.063.22-.058-.069a6.131 6.131 0 00-1.173-1.17zm6.613 2.374l-2.87-.21.218.234a5.149 5.149 0 00.873.822 1.943 1.943 0 00.985.338.8.8 0 00.722-.244 1.022 1.022 0 00.076-.943z" fill="#00e894"/><path data-name="Fill 123" d="M57.306 37.307l-.205-.138a12.889 12.889 0 01-4.588-5.421 5.443 5.443 0 01.196-5.315 5.446 5.446 0 014.92-2.013 12.835 12.835 0 016.467 2.298l.202.136a12.9 12.9 0 014.586 5.421 5.441 5.441 0 01-.194 5.313 5.405 5.405 0 01-4.79 2.011 12.7 12.7 0 01-6.594-2.292zm6.598-10.326a12.468 12.468 0 00-6.288-2.235 5.135 5.135 0 00-4.64 1.872 5.136 5.136 0 00-.16 5.002 12.558 12.558 0 004.473 5.279l.218.146a12.4 12.4 0 006.34 2.234 5.115 5.115 0 004.578-1.874 5.136 5.136 0 00.161-5.005 12.555 12.555 0 00-4.473-5.274z" fill="#00e894"/><path data-name="Fill 125" d="M44.349 38.703l3.836-5.686-2.761-5.651-3.836 5.686z" fill="#a7c3cf"/><path data-name="Fill 127" d="M48.185 33.017l27.323 1.919-2.76-5.65-27.324-1.92z" fill="#d4eef9"/><path data-name="Fill 129" d="M43.882 37.755l3.836-5.687-.125-.254-3.836 5.688z" fill="#d3688c"/><path data-name="Fill 131" d="M47.718 32.068l27.323 1.918-.124-.252-27.324-1.92z" fill="#ff9ebd"/><path data-name="Fill 133" d="M41.978 33.898l3.836-5.688-.125-.252-3.836 5.687z" fill="#d3688c"/><path data-name="Fill 135" d="M45.815 28.211l27.323 1.918-.125-.252-27.324-1.92z" fill="#ff9ebd"/><path data-name="Fill 137" d="M90.69 51.122L66.696 1.927 39.397.018 63.39 49.212z" fill="#00e8cc"/><path data-name="Fill 139" d="M63.39 49.213l-3.827 5.672L35.571 5.691 39.397.018z" fill="#00b0b5"/><path data-name="Fill 141" d="M59.566 54.887l27.3 1.908 3.826-5.672-27.3-1.908z" fill="#008d93"/><path data-name="Fill 143" d="M68.444 47.708l-5.416-3.859L44.356 5.636l-.078-.159 2.042-3.59 15.06 1.065 5.415 3.862 18.672 38.21.079.16-2.043 3.59zm-7.3-44.1l-14.45-1.023L45.037 5.5l18.517 37.897 5.123 3.654 14.448 1.022 1.663-2.916-18.52-37.896-5.124-3.654z" fill="#00ae64"/><path data-name="Fill 145" d="M73.463 38.694c1.734 1.21 2.513 3.09 1.74 4.198s-2.808 1.027-4.543-.184-2.513-3.09-1.74-4.2 2.808-1.024 4.543.186" fill="#00ae64"/><path data-name="Fill 147" d="M71.182 41.93l-.024-.016a3.056 3.056 0 01-1.061-1.222l-.404-.03-.132-.275.404.032a.933.933 0 010-.875.706.706 0 01.657-.216 1.593 1.593 0 01.792.283 4.168 4.168 0 01.917.957l.016.021 1.125.082a1.79 1.79 0 00-.593-.635l-.02-.013.317-.39a3.018 3.018 0 01.88 1.035l.023.046.372.027.134.278-.376-.027a.863.863 0 01-.018.816.646.646 0 01-.598.21 1.653 1.653 0 01-.824-.291 3.946 3.946 0 01-.857-.875l-.017-.027-1.192-.086a2.113 2.113 0 00.631.674c.046.032.093.063.143.087l-.291.432zm.042-1.833a.68.68 0 00-.335-.123.322.322 0 00-.29.093.454.454 0 00-.031.395l1.095.08-.021-.025a2.2 2.2 0 00-.418-.42zm2.375.854l-1.034-.077.078.083a1.853 1.853 0 00.313.295.7.7 0 00.355.119.288.288 0 00.26-.088.365.365 0 00.028-.332z" fill="#00e894"/><path data-name="Fill 149" d="M58.948 8.19c1.734 1.211 2.513 3.091 1.74 4.199s-2.807 1.026-4.543-.186-2.513-3.09-1.74-4.198 2.808-1.025 4.543.185" fill="#00ae64"/><path data-name="Fill 151" d="M56.668 11.427l-.024-.016a3.062 3.062 0 01-1.062-1.222l-.399-.028-.137-.277.405.032a.931.931 0 01-.001-.875.706.706 0 01.658-.216 1.593 1.593 0 01.792.283 4.168 4.168 0 01.917.957l.016.02 1.124.083a1.79 1.79 0 00-.592-.635l-.019-.013.316-.39a3.018 3.018 0 01.88 1.035l.023.046.371.027.135.278-.376-.027a.863.863 0 01-.018.815.646.646 0 01-.6.211 1.652 1.652 0 01-.823-.292 3.937 3.937 0 01-.857-.875l-.018-.027-1.19-.085a2.113 2.113 0 00.63.674c.047.032.094.063.144.087l-.292.432zm.042-1.833a.68.68 0 00-.335-.124.321.321 0 00-.29.093.455.455 0 00-.033.397l1.097.08-.022-.026a2.2 2.2 0 00-.418-.42zm2.375.854l-1.034-.077.078.084a1.853 1.853 0 00.312.294.7.7 0 00.355.118.288.288 0 00.26-.088.365.365 0 00.029-.331z" fill="#00e894"/><path data-name="Fill 153" d="M68.48 19.503c4.84 3.377 7.01 8.62 4.849 11.714s-7.828 2.86-12.666-.518-7.007-8.62-4.85-11.713 7.83-2.858 12.667.517" fill="#00ae64"/><path data-name="Fill 155" d="M62.12 28.525l-.068-.045a8.565 8.565 0 01-2.96-3.396l-1.113-.08-.38-.777 1.13.084a2.6 2.6 0 01-.003-2.44 1.969 1.969 0 011.835-.597 4.436 4.436 0 012.204.788 11.682 11.682 0 012.556 2.672l.044.058 3.14.226a4.942 4.942 0 00-1.643-1.772l-.058-.04.877-1.084a8.451 8.451 0 012.456 2.889l.062.129 1.035.074.378.774-1.05-.076a2.407 2.407 0 01-.051 2.272 1.8 1.8 0 01-1.67.59 4.624 4.624 0 01-2.299-.817 11 11 0 01-2.396-2.442l-.051-.072-3.31-.237a5.9 5.9 0 001.76 1.878c.13.087.264.17.397.242l-.822 1.199zm.117-5.107a1.9 1.9 0 00-.936-.346.9.9 0 00-.803.257 1.269 1.269 0 00-.091 1.105l3.06.22-.057-.07a6.135 6.135 0 00-1.174-1.17zm6.615 2.375l-2.872-.21.217.234a5.149 5.149 0 00.873.822 1.943 1.943 0 00.984.337.8.8 0 00.723-.243 1.023 1.023 0 00.076-.943z" fill="#00e894"/><path data-name="Fill 157" d="M61.194 30.296l-.204-.138a12.9 12.9 0 01-4.587-5.421 5.445 5.445 0 01.194-5.314 5.444 5.444 0 014.921-2.013 12.825 12.825 0 016.467 2.298l.201.136a12.888 12.888 0 014.588 5.422 5.44 5.44 0 01-.194 5.312 5.4 5.4 0 01-4.79 2.01 12.7 12.7 0 01-6.596-2.292zm6.599-10.326a12.466 12.466 0 00-6.288-2.235 5.138 5.138 0 00-4.64 1.873 5.135 5.135 0 00-.16 5.001 12.55 12.55 0 004.473 5.28l.217.147a12.4 12.4 0 006.34 2.233 5.114 5.114 0 004.58-1.877 5.134 5.134 0 00.16-5.002 12.557 12.557 0 00-4.474-5.275z" fill="#00e894"/><path data-name="Fill 159" d="M48.238 31.693l3.835-5.686-2.76-5.651-3.836 5.686z" fill="#a7c3cf"/><path data-name="Fill 161" d="M52.073 26.007l27.323 1.92-2.76-5.651-27.324-1.92z" fill="#d4eef9"/><path data-name="Fill 163" d="M47.77 30.745l3.837-5.688-.125-.252-3.837 5.687z" fill="#d3688c"/><path data-name="Fill 165" d="M51.608 25.057l27.323 1.919-.125-.253-27.324-1.92z" fill="#ff9ebd"/><path data-name="Fill 167" d="M45.866 26.889l3.837-5.688-.126-.252-3.835 5.686z" fill="#d3688c"/><path data-name="Fill 169" d="M49.703 21.201l27.324 1.918-.125-.252-27.324-1.92z" fill="#ff9ebd"/><path data-name="Fill 171" d="M95.873 43.286L71.881-5.91l-27.3-1.908 23.992 49.194z" fill="#00e894"/><path data-name="Fill 173" d="M68.573 41.377l-3.826 5.673L40.755-2.145l3.826-5.672z" fill="#00a4a4"/><path data-name="Fill 175" d="M64.749 47.05l27.3 1.91 3.826-5.673-27.3-1.908z" fill="#00935d"/><path data-name="Fill 177" d="M73.628 39.872l-5.416-3.859L49.54-2.2l-.078-.159 2.042-3.59 15.06 1.066 5.415 3.861L90.65 37.19l.079.16-2.043 3.589zm-7.3-44.1L51.878-5.25l-1.657 2.916 18.517 37.897 5.123 3.654 14.448 1.022 1.662-2.916L71.451-.574l-5.123-3.654z" fill="#00ae64"/><path data-name="Fill 179" d="M78.646 30.858c1.734 1.21 2.513 3.09 1.74 4.198s-2.808 1.027-4.542-.185-2.513-3.09-1.74-4.199 2.807-1.025 4.542.186" fill="#00ae64"/><path data-name="Fill 181" d="M76.365 34.094l-.024-.017a3.054 3.054 0 01-1.06-1.22l-.404-.032-.132-.273.404.031a.933.933 0 010-.875.706.706 0 01.657-.216 1.592 1.592 0 01.792.283 4.177 4.177 0 01.92.96l.016.02 1.122.08a1.79 1.79 0 00-.593-.635l-.02-.013.317-.39a3.026 3.026 0 01.88 1.036l.024.046.37.026.135.278-.376-.027a.863.863 0 01-.018.816.646.646 0 01-.598.211 1.653 1.653 0 01-.824-.292 3.946 3.946 0 01-.857-.875l-.017-.026-1.192-.086a2.113 2.113 0 00.631.674c.046.031.093.062.143.086l-.291.432zm.042-1.833a.68.68 0 00-.335-.124.322.322 0 00-.288.094.454.454 0 00-.032.396l1.095.08-.021-.025a2.2 2.2 0 00-.419-.421zm2.376.854l-1.034-.077.078.084a1.853 1.853 0 00.313.294.7.7 0 00.355.119.288.288 0 00.26-.088.365.365 0 00.028-.332z" fill="#00e894"/><path data-name="Fill 183" d="M64.132.354c1.734 1.211 2.513 3.091 1.74 4.199s-2.808 1.027-4.543-.185-2.513-3.09-1.74-4.2 2.808-1.024 4.543.186" fill="#00ae64"/><path data-name="Fill 185" d="M61.851 3.59l-.024-.016a3.056 3.056 0 01-1.061-1.221l-.404-.031-.133-.274.405.031a.933.933 0 010-.875.706.706 0 01.657-.215 1.593 1.593 0 01.792.283 4.168 4.168 0 01.917.957l.016.02 1.125.082a1.79 1.79 0 00-.593-.634l-.02-.014.317-.39a3.018 3.018 0 01.88 1.036l.023.046.372.027.134.278-.376-.027a.863.863 0 01-.018.815.646.646 0 01-.599.211 1.653 1.653 0 01-.823-.292 3.946 3.946 0 01-.857-.875l-.017-.026-1.192-.086a2.113 2.113 0 00.63.674c.047.031.094.063.144.087l-.292.432zm.042-1.832a.68.68 0 00-.335-.124.321.321 0 00-.29.093.454.454 0 00-.032.397l1.096.08-.021-.026a2.2 2.2 0 00-.419-.421zm2.375.853l-1.034-.077.078.084a1.853 1.853 0 00.313.294.7.7 0 00.355.12.288.288 0 00.26-.089.365.365 0 00.028-.332z" fill="#00e894"/><path data-name="Fill 187" d="M73.664 11.667c4.84 3.377 7.01 8.62 4.849 11.714s-7.828 2.859-12.666-.518-7.008-8.621-4.85-11.713 7.828-2.858 12.667.517" fill="#00ae64"/><path data-name="Fill 189" d="M67.304 20.69l-.068-.046a8.559 8.559 0 01-2.96-3.395l-1.113-.08-.381-.778 1.13.084a2.6 2.6 0 01-.002-2.44 1.969 1.969 0 011.835-.597 4.436 4.436 0 012.204.789 11.682 11.682 0 012.556 2.67l.044.06 3.14.225a4.942 4.942 0 00-1.643-1.772l-.058-.04.877-1.084a8.451 8.451 0 012.456 2.889l.062.129 1.035.075.378.773-1.05-.076a2.407 2.407 0 01-.051 2.273 1.8 1.8 0 01-1.67.59 4.624 4.624 0 01-2.299-.817 11 11 0 01-2.396-2.443l-.051-.072-3.31-.237a5.9 5.9 0 001.76 1.878c.13.088.264.17.397.242l-.822 1.199zm.117-5.108a1.9 1.9 0 00-.936-.345.9.9 0 00-.803.257 1.269 1.269 0 00-.091 1.104l3.06.221-.057-.07a6.135 6.135 0 00-1.174-1.171zm6.615 2.375l-2.872-.21.217.234a5.149 5.149 0 00.873.822 1.943 1.943 0 00.984.338.805.805 0 00.724-.245 1.023 1.023 0 00.076-.942z" fill="#00e894"/><path data-name="Fill 191" d="M66.378 22.46l-.204-.138a12.9 12.9 0 01-4.587-5.42 5.445 5.445 0 01.194-5.314 5.444 5.444 0 014.921-2.014 12.825 12.825 0 016.467 2.298l.201.136a12.888 12.888 0 014.588 5.422 5.443 5.443 0 01-.194 5.312 5.4 5.4 0 01-4.79 2.011 12.7 12.7 0 01-6.596-2.293zm6.598-10.326A12.462 12.462 0 0066.69 9.9a5.138 5.138 0 00-4.64 1.874 5.135 5.135 0 00-.16 5 12.55 12.55 0 004.473 5.28l.217.147a12.4 12.4 0 006.34 2.233 5.114 5.114 0 004.58-1.877 5.133 5.133 0 00.16-5.002 12.55 12.55 0 00-4.474-5.275z" fill="#00e894"/><path data-name="Fill 193" d="M53.422 23.858l3.835-5.687-2.76-5.65-3.836 5.686z" fill="#a7c3cf"/><path data-name="Fill 195" d="M57.257 18.171l27.324 1.92-2.76-5.651-27.325-1.92z" fill="#d4eef9"/><path data-name="Fill 197" d="M52.954 22.91l3.837-5.689-.126-.252-3.836 5.687z" fill="#d3688c"/><path data-name="Fill 199" d="M56.79 17.221l27.325 1.918-.126-.252-27.324-1.92z" fill="#ff9ebd"/><path data-name="Fill 201" d="M51.05 19.053l3.837-5.688-.126-.252-3.836 5.687z" fill="#d3688c"/><path data-name="Fill 203" d="M54.887 13.366l27.324 1.918-.125-.253-27.324-1.92z" fill="#ff9ebd"/><path data-name="Fill 205" d="M97.768 35.75L73.776-13.445l-27.3-1.908 23.992 49.195z" fill="#00e894"/><path data-name="Fill 207" d="M70.468 33.842l-3.826 5.672L42.65-9.681l3.826-5.672z" fill="#00b571"/><path data-name="Fill 209" d="M66.644 39.516l27.3 1.908 3.827-5.672-27.3-1.909z" fill="#00935d"/><path data-name="Fill 211" d="M75.523 32.336l-5.416-3.858L51.435-9.735l-.078-.16 2.042-3.589 15.06 1.065 5.415 3.861 18.672 38.212.079.159-2.043 3.59zm-7.299-44.099l-14.451-1.024-1.658 2.916 18.518 37.898 5.122 3.652 14.448 1.023 1.664-2.915L73.347-8.11l-5.123-3.653z" fill="#00ae64"/><path data-name="Fill 213" d="M80.542 23.322c1.733 1.212 2.511 3.091 1.739 4.2s-2.807 1.024-4.542-.187-2.513-3.089-1.74-4.198 2.808-1.025 4.543.185" fill="#00ae64"/><path data-name="Fill 215" d="M78.262 26.558l-.024-.017a3.062 3.062 0 01-1.062-1.221l-.4-.028-.136-.277.404.032a.931.931 0 010-.875.706.706 0 01.658-.216 1.593 1.593 0 01.792.283 4.178 4.178 0 01.92.96l.016.02 1.121.08a1.785 1.785 0 00-.592-.635l-.02-.013.317-.39a3.027 3.027 0 01.88 1.035l.023.046.371.027.135.278-.376-.027a.864.864 0 01-.018.815.645.645 0 01-.6.212 1.653 1.653 0 01-.822-.293 3.937 3.937 0 01-.858-.875l-.018-.026-1.19-.086a2.113 2.113 0 00.63.674c.047.031.093.063.143.087l-.291.432zm.042-1.833a.68.68 0 00-.335-.124.322.322 0 00-.29.093.455.455 0 00-.033.396l1.097.08-.022-.025a2.2 2.2 0 00-.418-.42zm2.374.854l-1.033-.078.078.085a1.853 1.853 0 00.312.293.7.7 0 00.354.119.288.288 0 00.26-.087.365.365 0 00.03-.332z" fill="#00e894"/><path data-name="Fill 217" d="M66.026-7.181c1.734 1.211 2.512 3.09 1.74 4.199s-2.807 1.025-4.542-.186-2.513-3.09-1.74-4.199 2.808-1.024 4.542.186" fill="#00ae64"/><path data-name="Fill 219" d="M63.747-3.946l-.024-.016a3.062 3.062 0 01-1.062-1.222l-.404-.03-.132-.275.404.032a.931.931 0 010-.875.706.706 0 01.658-.216 1.593 1.593 0 01.792.283 4.178 4.178 0 01.92.96l.016.02 1.121.08a1.785 1.785 0 00-.592-.635l-.02-.013.317-.39a3.027 3.027 0 01.881 1.036l.023.046.37.026.135.278-.376-.026a.864.864 0 01-.019.814.646.646 0 01-.598.212 1.653 1.653 0 01-.823-.292 3.937 3.937 0 01-.858-.875l-.018-.027-1.19-.086a2.114 2.114 0 00.63.674c.047.032.093.063.143.087l-.291.432zm.042-1.833a.677.677 0 00-.336-.124.322.322 0 00-.288.094.454.454 0 00-.033.396l1.096.08-.022-.026a2.2 2.2 0 00-.417-.42zm2.375.853l-1.034-.076.078.084a1.854 1.854 0 00.312.294.7.7 0 00.355.119.288.288 0 00.26-.088.366.366 0 00.029-.333z" fill="#00e894"/><path data-name="Fill 221" d="M75.56 4.131c4.838 3.378 7.008 8.62 4.848 11.714s-7.828 2.86-12.665-.517-7.008-8.621-4.85-11.713S70.72.757 75.558 4.13" fill="#00ae64"/><path data-name="Fill 223" d="M69.199 13.153l-.067-.045a8.564 8.564 0 01-2.96-3.396l-1.115-.08-.379-.777 1.13.083a2.6 2.6 0 01-.002-2.439 1.969 1.969 0 011.835-.597 4.433 4.433 0 012.203.788 11.682 11.682 0 012.557 2.671l.044.059 3.14.226a4.947 4.947 0 00-1.644-1.773l-.058-.039.879-1.084a8.45 8.45 0 012.455 2.889l.063.13 1.035.074.38.774-1.052-.076a2.407 2.407 0 01-.053 2.271 1.8 1.8 0 01-1.67.59 4.623 4.623 0 01-2.298-.817 11.009 11.009 0 01-2.396-2.442l-.05-.072-3.31-.237a5.9 5.9 0 001.759 1.878c.13.087.263.169.396.242l-.821 1.198zm.117-5.108a1.894 1.894 0 00-.935-.344.9.9 0 00-.804.256 1.269 1.269 0 00-.092 1.104l3.062.219-.058-.068a6.135 6.135 0 00-1.174-1.17zm6.614 2.375l-2.87-.21.217.234a5.149 5.149 0 00.873.823 1.943 1.943 0 00.985.338.8.8 0 00.723-.245 1.022 1.022 0 00.074-.943z" fill="#00e894"/><path data-name="Fill 225" d="M68.273 14.924l-.204-.138a12.9 12.9 0 01-4.586-5.422 5.445 5.445 0 01.193-5.312 5.442 5.442 0 014.92-2.014 12.832 12.832 0 016.468 2.298l.201.136a12.887 12.887 0 014.587 5.422 5.438 5.438 0 01-.194 5.312 5.4 5.4 0 01-4.79 2.011 12.7 12.7 0 01-6.595-2.293zM74.871 4.6a12.462 12.462 0 00-6.287-2.235 5.137 5.137 0 00-4.64 1.873 5.136 5.136 0 00-.16 5.002 12.557 12.557 0 004.472 5.28l.218.146a12.4 12.4 0 006.336 2.23 5.116 5.116 0 004.58-1.877 5.133 5.133 0 00.164-5 12.55 12.55 0 00-4.474-5.275z" fill="#00e894"/><path data-name="Fill 227" d="M55.317 16.322l3.835-5.686-2.76-5.651-3.836 5.686z" fill="#a7c3cf"/><path data-name="Fill 229" d="M59.152 10.636l27.323 1.919-2.76-5.65-27.324-1.92z" fill="#d4eef9"/><path data-name="Fill 231" d="M54.85 15.373l3.836-5.688-.125-.253-3.836 5.687z" fill="#d3688c"/><path data-name="Fill 233" d="M58.687 9.686l27.323 1.918-.125-.252-27.324-1.92z" fill="#ff9ebd"/><path data-name="Fill 235" d="M52.946 11.517l3.837-5.688-.126-.253-3.836 5.687z" fill="#d3688c"/><path data-name="Fill 237" d="M56.782 5.83l27.324 1.918-.125-.252-27.324-1.92z" fill="#ff9ebd"/><path data-name="Fill 239" d="M104.673 27.786L80.681-21.41l-27.3-1.908 23.993 49.194z" fill="#00e894"/><path data-name="Fill 241" d="M77.373 25.877l-3.826 5.673-23.992-49.195 3.826-5.672z" fill="#00b571"/><path data-name="Fill 243" d="M73.549 31.55l27.3 1.91 3.826-5.673-27.3-1.908z" fill="#00935d"/><path data-name="Fill 245" d="M82.429 24.371l-5.417-3.858-18.671-38.214-.079-.159 2.043-3.59 15.059 1.066 5.415 3.861 18.672 38.211.08.16-2.044 3.589zm-7.3-44.1l-14.45-1.023-1.657 2.916 18.517 37.898 5.122 3.653 14.449 1.022 1.662-2.916-18.52-37.896-5.123-3.653z" fill="#00ae64"/><path data-name="Fill 247" d="M87.446 15.357c1.734 1.211 2.512 3.09 1.74 4.2s-2.807 1.024-4.542-.187-2.513-3.09-1.74-4.199 2.807-1.024 4.542.186" fill="#00ae64"/><path data-name="Fill 249" d="M85.166 18.593l-.024-.017a3.054 3.054 0 01-1.06-1.22l-.4-.029-.137-.276.405.031a.931.931 0 01-.001-.875.706.706 0 01.658-.216 1.592 1.592 0 01.791.283 4.177 4.177 0 01.92.96l.017.02 1.12.08a1.778 1.778 0 00-.591-.634l-.02-.013.316-.39a3.019 3.019 0 01.881 1.035l.024.046.37.026.135.279-.376-.027a.864.864 0 01-.018.815.646.646 0 01-.599.211 1.655 1.655 0 01-.823-.292 3.954 3.954 0 01-.858-.875l-.017-.026-1.191-.086a2.113 2.113 0 00.63.674c.047.031.093.062.143.087l-.29.431zm.043-1.833a.677.677 0 00-.335-.123.322.322 0 00-.29.093.454.454 0 00-.033.395l1.097.081-.022-.025a2.2 2.2 0 00-.417-.42zm2.374.854l-1.033-.077.076.083a1.854 1.854 0 00.314.295.7.7 0 00.355.119.288.288 0 00.26-.088.365.365 0 00.028-.332z" fill="#00e894"/><path data-name="Fill 251" d="M72.932-15.146c1.735 1.21 2.513 3.09 1.74 4.198s-2.808 1.026-4.542-.185-2.513-3.09-1.74-4.199 2.807-1.025 4.542.186" fill="#00ae64"/><path data-name="Fill 253" d="M70.65-11.91l-.024-.016a3.056 3.056 0 01-1.06-1.222l-.4-.028-.137-.276.405.031a.933.933 0 010-.875.706.706 0 01.658-.216 1.591 1.591 0 01.79.282 4.2 4.2 0 01.92.96l.017.02 1.12.085a1.755 1.755 0 00-.59-.64l-.02-.013.317-.389a3.025 3.025 0 01.88 1.035l.023.046.37.026.136.279-.376-.027a.864.864 0 01-.018.815.646.646 0 01-.599.212 1.655 1.655 0 01-.824-.293 3.938 3.938 0 01-.858-.874l-.017-.027-1.19-.086a2.109 2.109 0 00.63.674c.048.032.095.064.145.088l-.292.433zm.043-1.834a.68.68 0 00-.335-.123.322.322 0 00-.289.093.454.454 0 00-.032.396l1.096.08-.022-.025a2.2 2.2 0 00-.418-.42zm2.375.855l-1.033-.078.077.084a1.853 1.853 0 00.313.294.7.7 0 00.355.12.288.288 0 00.26-.088.366.366 0 00.028-.332z" fill="#00e894"/><path data-name="Fill 255" d="M82.464-3.834c4.838 3.378 7.008 8.62 4.849 11.715s-7.828 2.86-12.666-.518-7.008-8.621-4.85-11.713 7.828-2.858 12.667.516" fill="#00ae64"/><path data-name="Fill 257" d="M76.104 5.189l-.067-.046a8.559 8.559 0 01-2.96-3.395l-1.114-.08-.38-.777 1.13.083a2.6 2.6 0 01-.002-2.44 1.969 1.969 0 011.834-.596 4.438 4.438 0 012.205.788 11.656 11.656 0 012.556 2.67l.044.06 3.14.225A4.947 4.947 0 0080.846-.09l-.058-.04.878-1.084a8.451 8.451 0 012.455 2.889l.063.129 1.035.074.38.774-1.053-.075a2.406 2.406 0 01-.05 2.272 1.8 1.8 0 01-1.67.59 4.624 4.624 0 01-2.3-.817 11 11 0 01-2.395-2.442l-.052-.073-3.309-.237a5.9 5.9 0 001.76 1.878c.13.088.263.17.396.243l-.821 1.198zM76.221.08a1.9 1.9 0 00-.936-.345.9.9 0 00-.803.257 1.269 1.269 0 00-.09 1.104l3.059.221-.056-.07A6.135 6.135 0 0076.22.077zm6.615 2.375l-2.871-.21.217.234a5.149 5.149 0 00.873.823 1.943 1.943 0 00.985.337.805.805 0 00.723-.244 1.023 1.023 0 00.076-.943z" fill="#00e894"/><path data-name="Fill 259" d="M75.179 6.96l-.204-.138a12.888 12.888 0 01-4.587-5.423 5.442 5.442 0 01.194-5.312 5.444 5.444 0 014.921-2.014 12.825 12.825 0 016.467 2.298l.201.136a12.888 12.888 0 014.587 5.422 5.443 5.443 0 01-.193 5.312 5.4 5.4 0 01-4.79 2.011 12.7 12.7 0 01-6.596-2.293zm6.598-10.327A12.462 12.462 0 0075.49-5.6a5.136 5.136 0 00-4.641 1.873 5.135 5.135 0 00-.16 5 12.55 12.55 0 004.474 5.28l.217.147a12.4 12.4 0 006.34 2.233 5.114 5.114 0 004.58-1.877 5.133 5.133 0 00.16-5.001 12.55 12.55 0 00-4.474-5.276z" fill="#00e894"/><path data-name="Fill 261" d="M62.222 8.357l3.836-5.687-2.761-5.65-3.836 5.686z" fill="#a7c3cf"/><path data-name="Fill 263" d="M66.058 2.67l27.324 1.92-2.761-5.651-27.324-1.92z" fill="#d4eef9"/><path data-name="Fill 265" d="M61.754 7.408l3.837-5.688-.126-.253-3.836 5.688z" fill="#d3688c"/><path data-name="Fill 267" d="M65.59 1.721l27.325 1.918-.126-.252-27.324-1.92z" fill="#ff9ebd"/><path data-name="Fill 269" d="M59.85 3.552l3.837-5.688-.125-.252-3.836 5.686z" fill="#d3688c"/><path data-name="Fill 271" d="M63.687-2.135L91.011-.216l-.125-.253-27.324-1.92z" fill="#ff9ebd"/><path data-name="Fill 273" d="M106.625 21.653L82.633-27.542l-27.3-1.908 23.992 49.195z" fill="#00e894"/><path data-name="Fill 275" d="M79.325 19.745l-3.826 5.673-23.993-49.195 3.826-5.672z" fill="#00b571"/><path data-name="Fill 277" d="M75.502 25.419l27.3 1.908 3.826-5.672-27.3-1.909z" fill="#00935d"/><path data-name="Fill 279" d="M84.38 18.24l-5.416-3.86-18.672-38.213-.079-.158 2.043-3.59 15.06 1.065 5.415 3.861 18.673 38.212.078.159-2.042 3.59zm-7.299-44.1l-14.45-1.024-1.658 2.916L79.49 13.93l5.122 3.652 14.45 1.023 1.662-2.916-18.52-37.896-5.123-3.653z" fill="#00ae64"/><path data-name="Fill 281" d="M89.399 9.225c1.734 1.212 2.512 3.09 1.739 4.2s-2.807 1.024-4.541-.187-2.513-3.09-1.74-4.198 2.807-1.025 4.542.185" fill="#00ae64"/><path data-name="Fill 283" d="M87.118 12.462l-.024-.016a3.056 3.056 0 01-1.06-1.222l-.4-.029-.137-.276.404.031a.933.933 0 010-.875.706.706 0 01.658-.216 1.591 1.591 0 01.79.283 4.2 4.2 0 01.921.96l.016.02 1.122.08a1.785 1.785 0 00-.592-.634l-.02-.013.317-.39a3.027 3.027 0 01.88 1.035l.023.045.37.028.135.278-.375-.027a.864.864 0 01-.019.815.646.646 0 01-.598.211 1.656 1.656 0 01-.825-.293 3.93 3.93 0 01-.858-.874l-.018-.027-1.189-.085a2.109 2.109 0 00.631.674c.047.032.095.064.145.088l-.292.432zm.042-1.834a.677.677 0 00-.335-.123.323.323 0 00-.288.093.454.454 0 00-.033.396l1.095.08-.021-.025a2.2 2.2 0 00-.418-.42zm2.375.854l-1.034-.077.079.084a1.854 1.854 0 00.312.294.7.7 0 00.355.119.288.288 0 00.26-.088.365.365 0 00.028-.332z" fill="#00e894"/><path data-name="Fill 285" d="M74.884-21.279c1.734 1.212 2.512 3.09 1.739 4.2s-2.807 1.025-4.541-.186-2.513-3.09-1.74-4.199 2.807-1.025 4.542.185" fill="#00ae64"/><path data-name="Fill 287" d="M72.603-18.042l-.02-.013a3.063 3.063 0 01-1.064-1.225l-.4-.028-.137-.276.405.031a.933.933 0 010-.875.706.706 0 01.657-.215 1.591 1.591 0 01.792.282 4.213 4.213 0 01.92.96l.016.02 1.12.08a1.776 1.776 0 00-.59-.634l-.02-.014.316-.39a3.018 3.018 0 01.88 1.035l.023.046.372.028.134.277-.376-.027a.864.864 0 01-.018.816.645.645 0 01-.599.211 1.658 1.658 0 01-.824-.293 3.938 3.938 0 01-.858-.874l-.018-.028-1.19-.084a2.114 2.114 0 00.632.674c.046.031.093.062.143.086l-.292.433zm.043-1.833a.68.68 0 00-.335-.123.323.323 0 00-.29.093.454.454 0 00-.032.395l1.096.08-.022-.026a2.194 2.194 0 00-.417-.419zm2.375.854l-1.034-.077.077.083a1.855 1.855 0 00.314.295.7.7 0 00.355.119.288.288 0 00.259-.087.365.365 0 00.029-.333z" fill="#00e894"/><path data-name="Fill 289" d="M84.416-9.965c4.839 3.377 7.01 8.62 4.849 11.714s-7.829 2.86-12.665-.518-7.009-8.62-4.85-11.712 7.828-2.858 12.666.516" fill="#00ae64"/><path data-name="Fill 291" d="M78.056-.943l-.067-.046a8.564 8.564 0 01-2.96-3.395l-1.115-.081-.379-.776 1.13.082a2.6 2.6 0 01-.003-2.438 1.969 1.969 0 011.836-.597 4.435 4.435 0 012.204.788 11.656 11.656 0 012.555 2.67l.044.06 3.14.225a4.947 4.947 0 00-1.643-1.772l-.058-.04.878-1.083a8.45 8.45 0 012.456 2.889l.063.13 1.036.073.379.774-1.052-.075a2.407 2.407 0 01-.053 2.27 1.8 1.8 0 01-1.67.591 4.623 4.623 0 01-2.299-.817 11.009 11.009 0 01-2.395-2.442l-.051-.072-3.309-.238a5.887 5.887 0 001.758 1.878c.13.088.264.17.397.243l-.822 1.198zm.117-5.108a1.9 1.9 0 00-.935-.345.9.9 0 00-.803.257 1.268 1.268 0 00-.093 1.103l3.062.22-.058-.068a6.13 6.13 0 00-1.174-1.17zm6.614 2.375l-2.87-.21.213.23a5.165 5.165 0 00.875.826 1.942 1.942 0 00.986.338.8.8 0 00.722-.244 1.022 1.022 0 00.076-.942z" fill="#00e894"/><path data-name="Fill 293" d="M77.13.828L76.925.69a12.887 12.887 0 01-4.587-5.42 5.441 5.441 0 01.195-5.315 5.442 5.442 0 014.92-2.014 12.839 12.839 0 016.468 2.298l.202.136a12.9 12.9 0 014.587 5.422 5.442 5.442 0 01-.193 5.315 5.4 5.4 0 01-4.79 2.012A12.7 12.7 0 0177.13.828zm6.598-10.326a12.462 12.462 0 00-6.287-2.235A5.135 5.135 0 0072.8-9.86a5.136 5.136 0 00-.16 5.001 12.557 12.557 0 004.473 5.28l.22.148a12.389 12.389 0 006.336 2.23A5.116 5.116 0 0088.249.926a5.136 5.136 0 00.162-5.004 12.557 12.557 0 00-4.474-5.275z" fill="#00e894"/><path data-name="Fill 295" d="M64.174 2.225l3.835-5.687-2.76-5.65-3.836 5.686z" fill="#a7c3cf"/><path data-name="Fill 297" d="M68.01-3.462l27.323 1.92-2.76-5.651-27.325-1.92z" fill="#d4eef9"/><path data-name="Fill 299" d="M63.707 1.275l3.836-5.687-.125-.253-3.836 5.687z" fill="#d3688c"/><path data-name="Fill 301" d="M67.543-4.41l27.324 1.918-.125-.253-27.324-1.92z" fill="#ff9ebd"/><path data-name="Fill 303" d="M61.804-2.58l3.836-5.687-.126-.254-3.836 5.687z" fill="#d3688c"/><path data-name="Fill 305" d="M65.639-8.267l27.324 1.919-.126-.253-27.324-1.92z" fill="#ff9ebd"/></g></g></g></g></g><g data-name="Group 135"><g data-name="Group 134"><path data-name="Fill 1" d="M155.836 91.634l25.995 53.297 29.577 2.068-25.995-53.296z" fill="#00e8cc"/><path data-name="Fill 2" d="M151.692 97.778l25.995 53.297 4.145-6.144-25.995-53.297z" fill="#00b0b5"/><path data-name="Fill 3" d="M181.83 144.93l-4.144 6.146 29.576 2.067 4.145-6.145z" fill="#008d93"/><path data-name="Fill 4" d="M187.305 143.298l-5.866-4.179-20.23-41.398-.082-.177 2.21-3.885 16.315 1.154 5.864 4.181 20.23 41.397.083.177-2.213 3.889zm-7.909-47.774l-15.653-1.109-1.796 3.159 20.062 41.057 5.551 3.957 15.656 1.11 1.797-3.157-20.067-41.06-5.55-3.957z" fill="#00ae64"/><g data-name="Group 133"><path data-name="Fill 5" d="M192.742 133.533c1.878 1.31 2.722 3.348 1.886 4.55s-3.042 1.111-4.921-.205-2.724-3.346-1.886-4.546 3.04-1.11 4.92.2" fill="#00ae64"/><path data-name="Fill 7" d="M190.27 137.037l-.023-.016a3.314 3.314 0 01-1.152-1.322l-.433-.032-.147-.3.439.031a1.009 1.009 0 01-.001-.946.764.764 0 01.712-.234 1.727 1.727 0 01.858.306 4.542 4.542 0 01.993 1.032l.017.023 1.219.094a1.916 1.916 0 00-.637-.687l-.024-.016.34-.421a3.272 3.272 0 01.952 1.124l.023.046.402.03.147.3-.406-.032a.935.935 0 01-.02.882.7.7 0 01-.65.23 1.789 1.789 0 01-.892-.317 4.291 4.291 0 01-.93-.947l-.018-.029-1.285-.09a2.289 2.289 0 00.683.73c.051.033.1.067.154.093l-.316.468zm.047-1.984a.733.733 0 00-.363-.134.35.35 0 00-.31.102.49.49 0 00-.035.427l1.186.084-.024-.029a2.375 2.375 0 00-.454-.45zm2.57.92l-1.116-.08.083.09a2 2 0 00.34.32.753.753 0 00.383.13.312.312 0 00.28-.094.4.4 0 00.03-.366z" fill="#00e894"/><path data-name="Fill 9" d="M177.017 100.487c1.878 1.311 2.722 3.349 1.886 4.55s-3.041 1.112-4.92-.204-2.724-3.346-1.887-4.547 3.041-1.11 4.921.201" fill="#00ae64"/><path data-name="Fill 11" d="M174.547 103.993l-.025-.016a3.315 3.315 0 01-1.152-1.323l-.433-.032-.147-.3.44.032a1.01 1.01 0 01-.002-.947.764.764 0 01.712-.233 1.727 1.727 0 01.858.306 4.543 4.543 0 01.993 1.031l.016.024 1.22.093a1.916 1.916 0 00-.637-.686l-.025-.017.342-.42a3.271 3.271 0 01.951 1.124l.025.05.401.03.147.3-.406-.032a.935.935 0 01-.02.882.7.7 0 01-.649.23 1.789 1.789 0 01-.893-.317 4.29 4.29 0 01-.929-.947l-.018-.028-1.287-.095a2.289 2.289 0 00.683.728c.05.034.102.069.154.094l-.316.469zm.045-1.985a.733.733 0 00-.363-.134.348.348 0 00-.31.101.49.49 0 00-.035.429l1.186.083-.024-.028a2.374 2.374 0 00-.454-.451zm2.57.921l-1.115-.08.083.089a2 2 0 00.34.32.753.753 0 00.383.131.312.312 0 00.28-.094.4.4 0 00.03-.366z" fill="#00e894"/><path data-name="Fill 13" d="M187.344 112.742c5.242 3.656 7.59 9.342 5.255 12.689s-8.481 3.095-13.72-.562-7.594-9.338-5.258-12.687 8.481-3.096 13.723.56" fill="#00ae64"/><path data-name="Fill 15" d="M180.453 122.516l-.07-.047a9.273 9.273 0 01-3.21-3.683l-1.206-.09-.412-.835 1.225.089a2.817 2.817 0 01-.002-2.642 2.132 2.132 0 011.987-.65 4.8 4.8 0 012.39.852 12.618 12.618 0 012.768 2.894l.049.063 3.401.244a5.353 5.353 0 00-1.778-1.924l-.062-.041.95-1.164a9.164 9.164 0 012.66 3.13l.068.138 1.123.082.41.839-1.14-.083a2.605 2.605 0 01-.056 2.46 1.951 1.951 0 01-1.81.64 5 5 0 01-2.49-.884 11.924 11.924 0 01-2.597-2.646l-.054-.08-3.587-.259a6.381 6.381 0 001.906 2.035c.14.095.285.183.427.26l-.89 1.302zm.13-5.536a2.056 2.056 0 00-1.014-.374.972.972 0 00-.87.278 1.372 1.372 0 00-.1 1.197l3.316.24-.061-.072a6.642 6.642 0 00-1.271-1.268zm7.166 2.572l-3.112-.225.232.251a5.581 5.581 0 00.947.894 2.109 2.109 0 001.068.367.871.871 0 00.781-.265 1.109 1.109 0 00.085-1.02z" fill="#00e894"/><path data-name="Fill 17" d="M179.451 124.434l-.22-.149a13.974 13.974 0 01-4.966-5.871c-.917-2.211-.843-4.255.207-5.76s2.944-2.277 5.33-2.18a13.9 13.9 0 017.006 2.49l.22.148a13.963 13.963 0 014.965 5.872c.915 2.206.84 4.25-.21 5.754a5.857 5.857 0 01-5.19 2.178 13.757 13.757 0 01-7.142-2.482zm7.148-11.185a13.5 13.5 0 00-6.81-2.422c-2.265-.091-4.05.63-5.026 2.03s-1.038 3.328-.174 5.418a13.611 13.611 0 004.845 5.718l.236.16a13.423 13.423 0 006.868 2.418 5.543 5.543 0 004.96-2.034c.978-1.401 1.038-3.327.173-5.417a13.593 13.593 0 00-4.846-5.715z" fill="#00e894"/><path data-name="Fill 19" d="M165.412 125.946l4.156-6.162-2.99-6.118-4.155 6.16z" fill="#a7c3cf"/><path data-name="Fill 21" d="M169.567 119.785l29.605 2.08-2.995-6.122-29.598-2.078z" fill="#d4eef9"/><path data-name="Fill 23" d="M164.909 124.92l4.155-6.161-.136-.274-4.155 6.16z" fill="#d3688c"/><path data-name="Fill 25" d="M169.064 118.759l29.6 2.078-.137-.275-29.599-2.077z" fill="#ff9ebd"/><path data-name="Fill 27" d="M162.847 120.742l4.156-6.16-.136-.274-4.156 6.16z" fill="#d3688c"/><path data-name="Fill 29" d="M167.003 114.582l29.6 2.078-.138-.275-29.598-2.077z" fill="#ff9ebd"/><path data-name="Fill 31" d="M213.461 138.834l-25.995-53.296-29.576-2.068 25.994 53.296z" fill="#00e8cc"/><path data-name="Fill 33" d="M183.884 136.766l-4.145 6.145-25.994-53.296 4.145-6.145z" fill="#00b0b5"/><path data-name="Fill 35" d="M179.74 142.911l29.576 2.069 4.145-6.145-29.577-2.068z" fill="#008d93"/><path data-name="Fill 37" d="M189.358 135.133l-5.866-4.179-20.23-41.398-.082-.177 2.21-3.885 16.314 1.154 5.865 4.181 20.231 41.398.082.176-2.212 3.89zM181.45 87.36l-15.653-1.108L164 89.409l20.063 41.057 5.55 3.957 15.655 1.11 1.798-3.157L187 91.316l-5.551-3.957z" fill="#00a4a4"/><path data-name="Fill 39" d="M194.795 125.368c1.878 1.311 2.721 3.348 1.886 4.55s-3.04 1.111-4.92-.204-2.724-3.346-1.886-4.547 3.04-1.11 4.92.2" fill="#00ae64"/><path data-name="Fill 41" d="M192.324 128.873l-.024-.016a3.321 3.321 0 01-1.153-1.322l-.433-.032-.147-.3.44.032a1.01 1.01 0 01-.002-.947.764.764 0 01.712-.234 1.727 1.727 0 01.858.306 4.552 4.552 0 01.993 1.032l.016.023 1.22.094a1.916 1.916 0 00-.637-.687l-.024-.016.341-.42a3.28 3.28 0 01.952 1.124l.025.05.402.03.147.3-.407-.032a.935.935 0 01-.02.882.7.7 0 01-.647.23 1.789 1.789 0 01-.893-.317 4.282 4.282 0 01-.93-.948l-.018-.028-1.289-.095a2.3 2.3 0 00.684.729c.05.034.1.068.154.094l-.316.469zm.045-1.984a.733.733 0 00-.363-.134.349.349 0 00-.31.102.491.491 0 00-.035.427l1.186.084-.024-.029a2.375 2.375 0 00-.454-.45zm2.57.92l-1.115-.08.083.09a2 2 0 00.34.32.753.753 0 00.383.13.312.312 0 00.28-.094.4.4 0 00.03-.366z" fill="#00e894"/><path data-name="Fill 43" d="M179.07 92.322c1.879 1.312 2.722 3.349 1.887 4.551s-3.041 1.11-4.921-.205-2.724-3.346-1.886-4.546 3.04-1.11 4.92.2" fill="#00ae64"/><path data-name="Fill 45" d="M176.6 95.828l-.024-.016a3.321 3.321 0 01-1.152-1.322l-.434-.032-.147-.3.44.032a1.01 1.01 0 01-.002-.947.764.764 0 01.713-.234 1.727 1.727 0 01.857.306 4.552 4.552 0 01.993 1.032l.016.023 1.22.094a1.916 1.916 0 00-.637-.687l-.024-.016.341-.421a3.28 3.28 0 01.953 1.125l.025.05.4.03.148.3-.405-.032a.934.934 0 01-.02.882.7.7 0 01-.648.23 1.789 1.789 0 01-.893-.317 4.282 4.282 0 01-.929-.947l-.02-.029-1.288-.095a2.3 2.3 0 00.683.729c.05.034.101.068.154.094l-.316.468zm.046-1.984a.733.733 0 00-.363-.134.348.348 0 00-.31.1.491.491 0 00-.035.43l1.186.083-.025-.029a2.375 2.375 0 00-.453-.45zm2.57.92l-1.115-.08.083.09a2 2 0 00.339.32.756.756 0 00.383.13.312.312 0 00.28-.094.4.4 0 00.029-.367z" fill="#00e894"/><path data-name="Fill 47" d="M189.397 104.578c5.242 3.656 7.59 9.342 5.256 12.686s-8.482 3.096-13.72-.56-7.595-9.336-5.26-12.685 8.482-3.097 13.724.56" fill="#00ae64"/><path data-name="Fill 49" d="M182.507 114.352l-.07-.048a9.272 9.272 0 01-3.211-3.681l-1.206-.09-.411-.837 1.226.089a2.817 2.817 0 01-.004-2.642 2.132 2.132 0 011.988-.649 4.8 4.8 0 012.39.852 12.637 12.637 0 012.768 2.894l.049.063 3.402.244a5.36 5.36 0 00-1.78-1.924l-.061-.042.946-1.166a9.158 9.158 0 012.66 3.13l.07.14 1.122.08.41.839-1.14-.082a2.607 2.607 0 01-.054 2.462 1.95 1.95 0 01-1.807.64 5.009 5.009 0 01-2.493-.886 11.932 11.932 0 01-2.596-2.645l-.054-.079-3.588-.26a6.381 6.381 0 001.906 2.036c.141.095.286.183.428.26l-.89 1.301zm.13-5.537a2.051 2.051 0 00-1.013-.373.973.973 0 00-.871.279 1.371 1.371 0 00-.1 1.195l3.316.24-.06-.07a6.647 6.647 0 00-1.273-1.269zm7.165 2.573l-3.111-.226.23.251a5.585 5.585 0 00.949.895 2.1 2.1 0 001.066.366.871.871 0 00.782-.265 1.108 1.108 0 00.085-1.02z" fill="#00e894"/><path data-name="Fill 51" d="M181.504 116.27l-.221-.149a13.97 13.97 0 01-4.966-5.87c-.916-2.212-.842-4.255.208-5.76s2.943-2.277 5.33-2.18a13.9 13.9 0 017.006 2.49l.22.148a13.961 13.961 0 014.965 5.871c.916 2.207.842 4.25-.21 5.755a5.855 5.855 0 01-5.189 2.178 13.756 13.756 0 01-7.143-2.482zm7.148-11.185a13.5 13.5 0 00-6.81-2.422c-2.264-.092-4.049.63-5.026 2.03s-1.038 3.328-.175 5.418a13.615 13.615 0 004.845 5.718l.237.16a13.425 13.425 0 006.868 2.419 5.543 5.543 0 004.96-2.034c.978-1.402 1.038-3.328.173-5.418a13.593 13.593 0 00-4.846-5.714z" fill="#00e894"/><path data-name="Fill 53" d="M167.466 117.783l4.156-6.162-2.99-6.118-4.155 6.16z" fill="#a7c3cf"/><path data-name="Fill 55" d="M171.621 111.622l29.604 2.079-2.994-6.121-29.598-2.078z" fill="#d4eef9"/><path data-name="Fill 57" d="M166.963 116.755l4.156-6.16-.136-.274-4.156 6.16z" fill="#d3688c"/><path data-name="Fill 59" d="M171.118 110.595l29.6 2.08-.137-.276-29.599-2.077z" fill="#ff9ebd"/><path data-name="Fill 61" d="M164.9 112.578l4.156-6.16-.136-.274-4.156 6.16z" fill="#d3688c"/><path data-name="Fill 63" d="M169.056 106.418l29.599 2.078-.138-.275-29.598-2.078z" fill="#ff9ebd"/><path data-name="Fill 65" d="M220.941 130.206L194.947 76.91l-29.577-2.069 25.994 53.296z" fill="#00e894"/><path data-name="Fill 67" d="M191.365 128.138l-4.144 6.144-25.995-53.295 4.145-6.145z" fill="#00b0b5"/><path data-name="Fill 69" d="M187.22 134.282l29.576 2.069 4.145-6.145-29.577-2.069z" fill="#008d93"/><path data-name="Fill 71" d="M196.839 126.505l-5.866-4.178-20.23-41.4-.082-.176 2.21-3.885 16.314 1.154 5.864 4.181 20.231 41.397.083.177-2.214 3.89zm-7.91-47.774l-15.652-1.109-1.797 3.159 20.062 41.057 5.551 3.957 15.656 1.11 1.797-3.157-20.066-41.06-5.55-3.957z" fill="#00ae64"/><path data-name="Fill 73" d="M202.275 116.74c1.878 1.31 2.721 3.348 1.886 4.55s-3.04 1.11-4.92-.205-2.724-3.346-1.887-4.546 3.041-1.11 4.921.2" fill="#00ae64"/><path data-name="Fill 75" d="M199.804 120.245l-.025-.016a3.314 3.314 0 01-1.151-1.322l-.434-.032-.147-.3.44.031a1.009 1.009 0 01-.001-.946.764.764 0 01.712-.234 1.724 1.724 0 01.858.306 4.542 4.542 0 01.993 1.032l.015.023 1.22.094a1.916 1.916 0 00-.637-.687l-.024-.016.341-.421a3.272 3.272 0 01.952 1.124l.023.046.402.03.148.3-.407-.033a.935.935 0 01-.02.883.7.7 0 01-.65.23 1.789 1.789 0 01-.892-.317 4.291 4.291 0 01-.93-.948l-.019-.028-1.284-.09a2.289 2.289 0 00.683.729c.05.034.1.068.154.094l-.316.468zm.046-1.984a.733.733 0 00-.363-.134.348.348 0 00-.31.1.491.491 0 00-.035.43l1.186.083-.024-.029a2.375 2.375 0 00-.454-.45zm2.57.92l-1.116-.08.083.089a2 2 0 00.34.32.753.753 0 00.383.132.312.312 0 00.28-.095.4.4 0 00.03-.365z" fill="#00e894"/><path data-name="Fill 77" d="M186.551 83.695c1.878 1.31 2.722 3.348 1.886 4.55s-3.04 1.11-4.92-.205-2.724-3.346-1.886-4.546 3.04-1.11 4.92.2" fill="#00ae64"/><path data-name="Fill 79" d="M184.08 87.2l-.025-.016a3.315 3.315 0 01-1.15-1.322l-.434-.032-.148-.3.44.031a1.01 1.01 0 01-.002-.945.765.765 0 01.713-.235 1.726 1.726 0 01.858.306 4.526 4.526 0 01.99 1.036l.017.022 1.222.09a1.916 1.916 0 00-.637-.686l-.024-.016.341-.42a3.271 3.271 0 01.952 1.123l.022.046.402.03.147.3-.406-.033a.936.936 0 01-.02.883.7.7 0 01-.649.228 1.791 1.791 0 01-.893-.316 4.283 4.283 0 01-.93-.948l-.019-.029-1.284-.088a2.285 2.285 0 00.681.729c.052.034.102.068.156.095l-.317.469zm.046-1.984a.733.733 0 00-.363-.134.35.35 0 00-.31.102.49.49 0 00-.035.427l1.186.084-.02-.027a2.375 2.375 0 00-.458-.452zm2.57.92l-1.116-.08.084.09a2 2 0 00.34.32.754.754 0 00.38.135.313.313 0 00.279-.094.4.4 0 00.03-.366z" fill="#00e894"/><path data-name="Fill 81" d="M196.878 95.95c5.241 3.656 7.59 9.342 5.256 12.687s-8.481 3.096-13.721-.561-7.595-9.336-5.259-12.685 8.482-3.097 13.724.56" fill="#00ae64"/><path data-name="Fill 83" d="M189.987 105.724l-.07-.048a9.273 9.273 0 01-3.21-3.682l-1.206-.09-.412-.836 1.225.09a2.817 2.817 0 01-.002-2.643 2.132 2.132 0 011.987-.65 4.8 4.8 0 012.39.853 12.618 12.618 0 012.768 2.893l.05.064 3.4.243a5.353 5.353 0 00-1.778-1.923l-.061-.042.95-1.163a9.164 9.164 0 012.66 3.13l.068.138 1.122.081.41.84-1.139-.083a2.605 2.605 0 01-.057 2.46 1.951 1.951 0 01-1.81.64 5.006 5.006 0 01-2.491-.885 11.924 11.924 0 01-2.595-2.645l-.054-.08-3.588-.259a6.381 6.381 0 001.906 2.035c.14.095.285.183.427.26l-.89 1.301zm.13-5.537a2.056 2.056 0 00-1.014-.374.972.972 0 00-.87.279 1.372 1.372 0 00-.1 1.196l3.316.24-.063-.072a6.642 6.642 0 00-1.269-1.268zm7.166 2.573l-3.112-.226.232.252a5.581 5.581 0 00.947.894 2.109 2.109 0 001.068.366.871.871 0 00.781-.264 1.109 1.109 0 00.085-1.02z" fill="#00e894"/><path data-name="Fill 85" d="M188.985 107.641l-.22-.149a13.966 13.966 0 01-4.967-5.87c-.917-2.212-.842-4.256.207-5.76s2.945-2.278 5.331-2.18a13.9 13.9 0 017.005 2.49l.22.147a13.963 13.963 0 014.966 5.872c.914 2.206.84 4.25-.21 5.754a5.857 5.857 0 01-5.19 2.178 13.757 13.757 0 01-7.142-2.482zm7.147-11.185a13.5 13.5 0 00-6.81-2.422c-2.263-.092-4.044.631-5.024 2.031s-1.038 3.328-.175 5.418a13.611 13.611 0 004.845 5.718l.236.16a13.423 13.423 0 006.868 2.418 5.543 5.543 0 004.96-2.034c.978-1.402 1.039-3.327.173-5.418a13.593 13.593 0 00-4.846-5.715z" fill="#00e894"/><path data-name="Fill 87" d="M174.946 109.153l4.156-6.162-2.99-6.118-4.155 6.16z" fill="#a7c3cf"/><path data-name="Fill 89" d="M179.1 102.994l29.605 2.079-2.995-6.121-29.598-2.079z" fill="#d4eef9"/><path data-name="Fill 91" d="M174.443 108.127l4.156-6.16-.137-.275-4.155 6.16z" fill="#d3688c"/><path data-name="Fill 93" d="M178.599 101.966l29.6 2.079-.138-.275-29.599-2.078z" fill="#ff9ebd"/><path data-name="Fill 95" d="M172.381 103.95l4.156-6.16-.136-.275-4.156 6.16z" fill="#d3688c"/><path data-name="Fill 97" d="M176.535 97.79l29.6 2.078-.137-.275-29.599-2.078z" fill="#ff9ebd"/><path data-name="Fill 99" d="M223.056 123.563l-25.995-53.296-29.576-2.068 25.994 53.296z" fill="#00e8cc"/><path data-name="Fill 101" d="M193.48 121.494l-4.145 6.145-25.995-53.296 4.145-6.144z" fill="#00b0b5"/><path data-name="Fill 103" d="M189.334 127.64l29.578 2.068 4.144-6.145-29.577-2.068z" fill="#008d93"/><path data-name="Fill 105" d="M198.953 119.863l-5.866-4.18-20.23-41.399-.082-.176 2.21-3.885 16.314 1.154 5.865 4.18 20.231 41.399.083.176-2.213 3.888zm-7.908-47.775l-15.653-1.109-1.797 3.158 20.063 41.058 5.55 3.957 15.655 1.11 1.797-3.158-20.065-41.059-5.55-3.957z" fill="#00a4a4"/><path data-name="Fill 107" d="M204.39 110.096c1.878 1.312 2.721 3.349 1.886 4.551s-3.04 1.11-4.92-.204-2.724-3.346-1.886-4.547 3.04-1.11 4.92.2" fill="#00a4a4"/><path data-name="Fill 109" d="M201.918 113.603l-.024-.016a3.322 3.322 0 01-1.152-1.324l-.432-.031-.148-.302.44.033a1.01 1.01 0 01-.002-.946.765.765 0 01.712-.234 1.726 1.726 0 01.858.306 4.536 4.536 0 01.99 1.036l.017.022 1.222.09a1.916 1.916 0 00-.637-.686l-.024-.016.34-.422a3.28 3.28 0 01.953 1.125l.025.051.402.03.147.3-.406-.032a.934.934 0 01-.02.882.7.7 0 01-.648.23 1.792 1.792 0 01-.893-.317 4.275 4.275 0 01-.93-.948l-.018-.029-1.289-.094a2.292 2.292 0 00.681.728c.052.035.102.069.156.095l-.317.47zm.046-1.986a.733.733 0 00-.363-.134.349.349 0 00-.31.102.491.491 0 00-.035.428l1.186.083-.02-.026a2.375 2.375 0 00-.458-.453zm2.57.921l-1.115-.08.084.09a2 2 0 00.339.32.757.757 0 00.38.136.313.313 0 00.28-.096.4.4 0 00.032-.37z" fill="#00e894"/><path data-name="Fill 111" d="M188.666 77.051c1.878 1.311 2.721 3.348 1.886 4.55s-3.041 1.111-4.921-.204-2.724-3.346-1.886-4.547 3.04-1.11 4.92.201" fill="#00a4a4"/><path data-name="Fill 113" d="M186.194 80.557l-.02-.013a3.323 3.323 0 01-1.157-1.326l-.432-.03-.145-.302.437.032a1.01 1.01 0 01-.001-.946.765.765 0 01.713-.234 1.723 1.723 0 01.857.305 4.526 4.526 0 01.99 1.036l.017.023 1.222.09a1.914 1.914 0 00-.636-.686l-.024-.016.34-.421a3.28 3.28 0 01.953 1.124l.025.051.4.03.148.3-.406-.033a.935.935 0 01-.02.883.7.7 0 01-.65.23 1.792 1.792 0 01-.893-.318 4.275 4.275 0 01-.929-.947l-.018-.028-1.287-.095a2.291 2.291 0 00.683.729c.05.034.101.068.154.094l-.317.469zm.047-1.985a.735.735 0 00-.363-.134.349.349 0 00-.31.102.491.491 0 00-.035.428l1.186.083-.027-.03a2.333 2.333 0 00-.45-.45zm2.569.921l-1.115-.081.084.09a2 2 0 00.34.32.754.754 0 00.379.136.313.313 0 00.28-.095.4.4 0 00.032-.37z" fill="#00e894"/><path data-name="Fill 115" d="M198.993 89.307c5.242 3.656 7.59 9.342 5.256 12.686s-8.482 3.097-13.72-.56-7.596-9.336-5.26-12.685 8.482-3.097 13.724.56" fill="#00a4a4"/><path data-name="Fill 117" d="M192.102 99.08l-.07-.047a9.272 9.272 0 01-3.211-3.681l-1.206-.09-.411-.837 1.226.088a2.815 2.815 0 01-.004-2.641 2.132 2.132 0 011.988-.65 4.8 4.8 0 012.39.852 12.654 12.654 0 012.769 2.894l.048.063 3.402.244a5.36 5.36 0 00-1.78-1.924l-.061-.041.946-1.166a9.159 9.159 0 012.66 3.13l.07.139 1.122.081.41.84-1.14-.083a2.607 2.607 0 01-.054 2.461 1.95 1.95 0 01-1.807.64 5.009 5.009 0 01-2.493-.885 11.932 11.932 0 01-2.595-2.645l-.055-.079-3.588-.26a6.381 6.381 0 001.906 2.035c.141.095.286.183.428.26l-.89 1.302zm.13-5.536a2.053 2.053 0 00-1.013-.374.973.973 0 00-.87.278 1.373 1.373 0 00-.1 1.197l3.315.24-.062-.072a6.642 6.642 0 00-1.27-1.268zm7.165 2.572l-3.111-.225.23.251a5.581 5.581 0 00.948.894 2.1 2.1 0 001.068.365.87.87 0 00.78-.263 1.108 1.108 0 00.086-1.02z" fill="#00e894"/><path data-name="Fill 119" d="M191.1 100.998l-.221-.149a13.957 13.957 0 01-4.966-5.871c-.917-2.21-.843-4.254.207-5.758s2.943-2.279 5.33-2.18a13.9 13.9 0 017.013 2.492l.215.146a13.991 13.991 0 014.966 5.87c.914 2.209.839 4.252-.211 5.756a5.855 5.855 0 01-5.19 2.178 13.757 13.757 0 01-7.143-2.484zm7.148-11.185a13.5 13.5 0 00-6.81-2.422c-2.265-.092-4.05.63-5.027 2.031s-1.038 3.327-.173 5.418a13.593 13.593 0 004.845 5.717l.237.16a13.427 13.427 0 006.868 2.42 5.542 5.542 0 004.96-2.034c.979-1.402 1.039-3.328.174-5.419a13.609 13.609 0 00-4.848-5.715z" fill="#00e894"/><path data-name="Fill 121" d="M177.06 102.511l4.157-6.162-2.99-6.118-4.155 6.16z" fill="#a7c3cf"/><path data-name="Fill 123" d="M181.216 96.35l29.604 2.08-2.994-6.121-29.599-2.078z" fill="#d4eef9"/><path data-name="Fill 125" d="M176.558 101.484l4.155-6.16-.135-.275-4.156 6.16z" fill="#d3688c"/><path data-name="Fill 127" d="M180.713 95.324l29.6 2.079-.137-.275-29.599-2.078z" fill="#ff9ebd"/><path data-name="Fill 129" d="M174.496 97.306l4.155-6.16-.136-.274-4.155 6.16z" fill="#d3688c"/><path data-name="Fill 131" d="M178.65 91.147l29.6 2.078-.138-.275-29.598-2.078z" fill="#ff9ebd"/></g></g></g></g></g><g data-name="Group 19 Copy"><path data-name="Path" d="M5.6 22.521L43.28.765c3.116-1.8 5.6-.309 5.6 3.232v17.017a12.377 12.377 0 01-5.6 9.7L5.6 52.466c-3.116 1.8-5.6.309-5.6-3.232V32.218a12.377 12.377 0 015.6-9.697z" transform="translate(87.208 2.355)" fill="url(#h)"/><path data-name="$" d="M127.678 28.237a.333.333 0 00.157-.28l-.016-1.3a.158.158 0 01.063-.13 6.378 6.378 0 002.343-4.8c0-2.031-1.211-2.115-2.847-2.264l-.54-.023c-1.1-.068-1.567-.276-1.567-1.281a3.147 3.147 0 011.589-2.73c1.164-.69 1.84-.214 1.84.978v.395c0 .112.063.149.157.093l1.132-.671a.333.333 0 00.157-.28v-.426c0-1.789-.9-2.544-2.312-2.078-.047.009-.063 0-.063-.056l.017-1.463c0-.112-.063-.149-.157-.093l-.912.54a.333.333 0 00-.157.28l.015 1.354a.128.128 0 01-.063.112 6.09 6.09 0 00-2.689 4.926c0 1.9 1.031 2.2 2.3 2.278l.846.044c1.2.082 1.794.275 1.794 1.33a3.385 3.385 0 01-1.683 2.861c-1.18.7-1.9.289-1.9-.9v-.41c0-.112-.063-.149-.157-.093l-1.117.662a.333.333 0 00-.157.28v.5c-.005 1.918 1.065 2.61 2.795 1.81.047-.028.063 0 .063.037l-.016 1.258c0 .112.063.149.157.093z" fill="#132172"/><path data-name="Path" d="M94.218 31.369l17.77-10.26c.365-.211.687-.051.726.34v.081a1.665 1.665 0 01-.73 1.265L94.169 33.083c-.365.211-.687.051-.726-.34v-.081a1.876 1.876 0 01.775-1.293zM94.218 41.66l8.67-5.007c.365-.211.687-.051.726.34v.081a1.665 1.665 0 01-.726 1.266l-8.666 5c-.365.211-.687.051-.726-.34v-.081a1.665 1.665 0 01.722-1.259zM94.218 36.429l17.77-10.26c.365-.211.687-.051.726.34v.081a1.665 1.665 0 01-.73 1.265L94.169 38.143c-.365.211-.687.051-.726-.34v-.081a1.876 1.876 0 01.775-1.293z" fill="#5347c2"/></g><g data-name="Group 19 Copy 2" opacity=".664"><path data-name="Path" d="M5.6 22.521L43.28.765c3.116-1.8 5.6-.309 5.6 3.232v17.017a12.377 12.377 0 01-5.6 9.7L5.6 52.466c-3.116 1.8-5.6.309-5.6-3.232V32.218a12.377 12.377 0 015.6-9.697z" transform="translate(87.208 39.615)" fill="url(#h)"/><path data-name="$" d="M127.678 65.497a.333.333 0 00.157-.28l-.016-1.3a.158.158 0 01.063-.13 6.378 6.378 0 002.343-4.8c0-2.031-1.211-2.115-2.847-2.264l-.54-.023c-1.1-.068-1.567-.276-1.567-1.281a3.147 3.147 0 011.589-2.73c1.164-.69 1.84-.214 1.84.978v.395c0 .112.063.149.157.093l1.132-.671a.333.333 0 00.157-.28v-.426c0-1.789-.9-2.544-2.312-2.078-.047.009-.063 0-.063-.056l.017-1.463c0-.112-.063-.149-.157-.093l-.912.54a.333.333 0 00-.157.28l.015 1.354a.128.128 0 01-.063.112 6.09 6.09 0 00-2.689 4.926c0 1.9 1.031 2.2 2.3 2.278l.846.044c1.2.082 1.794.275 1.794 1.33a3.385 3.385 0 01-1.683 2.861c-1.18.7-1.9.289-1.9-.9v-.41c0-.112-.063-.149-.157-.093l-1.117.662a.333.333 0 00-.157.28v.5c-.005 1.918 1.065 2.61 2.795 1.81.047-.028.063 0 .063.037l-.016 1.258c0 .112.063.149.157.093z" fill="#132172"/><path data-name="Path" d="M94.218 68.629l17.77-10.26c.365-.211.687-.051.726.34v.081a1.665 1.665 0 01-.73 1.265L94.169 70.343c-.365.211-.687.051-.726-.34v-.081a1.876 1.876 0 01.775-1.293zM94.218 78.92l8.67-5.007c.365-.211.687-.051.726.34v.081a1.665 1.665 0 01-.726 1.266l-8.666 5c-.365.211-.687.051-.726-.34v-.081a1.665 1.665 0 01.722-1.259zM94.218 73.689l17.77-10.26c.365-.211.687-.051.726.34v.081a1.665 1.665 0 01-.73 1.265L94.169 75.403c-.365.211-.687.051-.726-.34v-.081a1.876 1.876 0 01.775-1.293z" fill="#5347c2"/></g><g data-name="Path" fill="none" stroke-miterlimit="10" opacity=".4"><path d="M260.107 60.599c52.9 31 53.347 81.262.664 112.261s-138.348 31-191.253 0-53.347-81.262-.664-112.261 138.349-30.999 191.253 0z"/><path d="M164.398 37.85c-8.637 0-17.308.488-25.771 1.45-8.544.971-16.95 2.434-24.987 4.349-8.184 1.95-16.067 4.387-23.43 7.245-7.554 2.931-14.653 6.342-21.102 10.136-6.414 3.775-12.175 7.925-17.121 12.335-4.814 4.293-8.916 8.884-12.193 13.647-3.212 4.668-5.664 9.55-7.29 14.508-1.606 4.904-2.419 9.928-2.414 14.933.005 5.049.84 10.121 2.485 15.077 1.66 5.006 4.161 9.938 7.433 14.656 3.335 4.812 7.506 9.451 12.396 13.788 5.023 4.455 10.866 8.646 17.367 12.455 6.476 3.795 13.6 7.205 21.174 10.137 7.385 2.858 15.285 5.296 23.483 7.245 8.05 1.915 16.468 3.378 25.018 4.35 8.47.961 17.145 1.449 25.782 1.449s17.308-.488 25.77-1.45c8.545-.971 16.951-2.434 24.988-4.349 8.184-1.95 16.067-4.387 23.43-7.245 7.553-2.931 14.653-6.342 21.102-10.136 6.414-3.775 12.174-7.925 17.12-12.335 4.815-4.293 8.917-8.884 12.194-13.647 3.212-4.668 5.664-9.55 7.289-14.508 1.607-4.904 2.42-9.928 2.415-14.933-.005-5.049-.84-10.121-2.485-15.077-1.66-5.007-4.162-9.938-7.433-14.656-3.335-4.812-7.506-9.451-12.396-13.788-5.023-4.455-10.866-8.646-17.367-12.455-6.477-3.795-13.6-7.205-21.175-10.137-7.384-2.858-15.285-5.296-23.482-7.245-8.05-1.915-16.468-3.378-25.019-4.35a229.335 229.335 0 00-25.781-1.449m0-.5c34.615 0 69.257 7.75 95.71 23.25 52.904 30.999 53.347 81.261.663 112.26-26.341 15.5-60.928 23.25-95.543 23.25-34.615 0-69.257-7.75-95.71-23.25C16.614 141.862 16.171 91.6 68.854 60.6c26.342-15.5 60.93-23.25 95.544-23.25z" fill="#2d2ba4"/></g><g data-name="Path" fill="none" stroke-miterlimit="10" opacity=".2"><path d="M280.959 41.747c64.481 37.782 65.021 99.044.809 136.826s-168.622 37.782-233.1 0-65.021-99.044-.809-136.826 168.619-37.783 233.1 0z"/><path d="M164.307 13.91c-10.532 0-21.104.595-31.423 1.768-10.417 1.184-20.668 2.968-30.468 5.303-9.979 2.377-19.592 5.35-28.572 8.835-9.21 3.575-17.87 7.734-25.734 12.362-7.824 4.603-14.85 9.666-20.885 15.046-5.874 5.238-10.88 10.84-14.878 16.653-3.92 5.699-6.915 11.657-8.898 17.71C1.487 97.577.494 103.712.5 109.824c.006 6.165 1.026 12.359 3.034 18.41 2.028 6.112 5.08 12.132 9.073 17.891 4.07 5.872 9.16 11.533 15.126 16.825 6.128 5.435 13.256 10.546 21.185 15.193 7.899 4.628 16.587 8.787 25.824 12.362 9.005 3.486 18.639 6.458 28.635 8.835 9.816 2.335 20.08 4.119 30.506 5.303a279.617 279.617 0 0031.435 1.768c10.532 0 21.104-.595 31.423-1.768 10.417-1.184 20.668-2.968 30.468-5.303 9.979-2.377 19.592-5.35 28.572-8.835 9.21-3.575 17.87-7.734 25.734-12.362 7.824-4.603 14.85-9.666 20.885-15.046 5.874-5.238 10.88-10.84 14.878-16.653 3.92-5.699 6.915-11.657 8.898-17.71 1.962-5.989 2.955-12.124 2.949-18.236-.006-6.165-1.026-12.359-3.034-18.41-2.028-6.112-5.08-12.132-9.073-17.891-4.07-5.872-9.16-11.533-15.126-16.825-6.128-5.435-13.256-10.546-21.185-15.193-7.899-4.628-16.587-8.787-25.824-12.362-9.005-3.486-18.639-6.458-28.635-8.835-9.816-2.335-20.08-4.119-30.506-5.303a279.617 279.617 0 00-31.435-1.768m0-.5c42.189 0 84.412 9.446 116.652 28.337 64.481 37.782 65.021 99.044.81 136.826-32.106 18.891-74.261 28.337-116.45 28.337-42.19 0-84.413-9.446-116.653-28.337-64.481-37.782-65.021-99.044-.81-136.826 32.106-18.891 74.261-28.337 116.45-28.337z" fill="#2d2ba4"/></g></g><path d="M0 0l65.733 38v80.8L0 80.8z" transform="translate(216.043)" fill="url(#i)"/><path data-name="Path" d="M39.867 22.353L1.533.221C.686-.268 0 .082 0 1a3.294 3.294 0 001.533 2.556l38.334 22.132c.847.489 1.533.139 1.533-.782a3.294 3.294 0 00-1.533-2.553z" transform="translate(233.143 29.103)" fill="url(#j)"/><path data-name="Path Copy" d="M39.867 22.353L1.533.221C.686-.268 0 .082 0 1a3.294 3.294 0 001.533 2.556l38.334 22.132c.847.489 1.533.139 1.533-.782a3.294 3.294 0 00-1.533-2.553z" transform="translate(233.143 39.9)" fill="url(#j)"/><path data-name="Path Copy 2" d="M39.867 22.353L1.533.221C.686-.268 0 .082 0 1a3.294 3.294 0 001.533 2.556l38.334 22.132c.847.489 1.533.139 1.533-.782a3.294 3.294 0 00-1.533-2.553z" transform="translate(233.143 51)" fill="url(#j)"/><path data-name="Path" d="M31.751 17.553L1.549.21C.693-.281 0 .117 0 1.1a3.4 3.4 0 001.549 2.668l30.2 17.343c.855.491 1.549.093 1.549-.889a3.4 3.4 0 00-1.547-2.669z" transform="translate(233.143 67.446)" fill="url(#k)"/><path data-name="Path Copy 3" d="M31.751 17.553L1.549.21C.693-.281 0 .117 0 1.1a3.4 3.4 0 001.549 2.668l30.2 17.343c.855.491 1.549.093 1.549-.889a3.4 3.4 0 00-1.547-2.669z" transform="translate(233.143 75.6)" fill="url(#k)"/><path data-name="Combined Shape" d="M223.425 21.618c.243-.089.637.165.879.569l2.089 3.471 2.089-.769c.243-.089.637.165.879.569s.243.8 0 .893l-2.089.768 2.089 3.471c.224.373.241.742.052.867l-.052.026c-.243.089-.637-.165-.879-.569l-2.089-3.472-2.089.769c-.242.089-.636-.165-.879-.569s-.243-.8 0-.893l2.089-.768-2.089-3.471c-.224-.372-.241-.741-.052-.866z" fill="#f56294"/><path data-name="Combined Shape Copy 2" d="M223.425 31.819c.243-.1.637.18.879.621l2.089 3.787 2.089-.839c.243-.1.637.18.879.621s.243.876 0 .974l-2.089.837 2.089 3.787c.224.406.241.809.052.945l-.052.028c-.243.1-.637-.18-.879-.621l-2.089-3.786-2.089.839c-.243.1-.637-.18-.879-.621s-.243-.876 0-.974l2.089-.837-2.089-3.787c-.224-.406-.241-.809-.052-.945z" fill="#f56294"/><path data-name="Combined Shape Copy 3" d="M223.425 42.918c.243-.089.637.165.879.569l2.089 3.471 2.089-.769c.243-.089.637.165.879.569s.243.8 0 .893l-2.089.768 2.089 3.471c.224.373.241.742.052.867l-.052.026c-.243.089-.637-.165-.879-.569l-2.089-3.472-2.089.769c-.242.089-.636-.165-.879-.569s-.243-.8 0-.893l2.089-.768-2.089-3.471c-.224-.372-.241-.741-.052-.866z" fill="#f56294"/><path data-name="Path 107" d="M223.243 63.9l2.7 3.6 4.5-2.7" fill="none" stroke="#6bcaec" stroke-linecap="round" stroke-miterlimit="10" stroke-width="1.35"/><path data-name="Path 107 Copy" d="M223.243 72.9l2.7 3.6 4.5-2.7" fill="none" stroke="#6bcaec" stroke-linecap="round" stroke-miterlimit="10" stroke-width="1.35"/></g></svg>