<svg xmlns="http://www.w3.org/2000/svg" xmlns:xlink="http://www.w3.org/1999/xlink" width="234.637" height="256.792" viewBox="0 0 234.637 256.792"><defs><linearGradient id="j" x1="1" y1="1" x2=".14" y2=".137" gradientUnits="objectBoundingBox"><stop offset="0" stop-color="#ff586f"/><stop offset="1" stop-color="#ffad6b"/></linearGradient><linearGradient id="d" y1="1" x2=".945" y2="-.057" gradientUnits="objectBoundingBox"><stop offset="0" stop-color="#18096b"/><stop offset="1" stop-color="#5f3dc8"/></linearGradient><linearGradient id="e" x1=".015" y1=".96" x2="1" gradientUnits="objectBoundingBox"><stop offset="0" stop-color="#a99cf4"/><stop offset="1" stop-color="#4435bd"/></linearGradient><linearGradient id="f" x1=".382" y1=".316" x2=".752" y2=".739" gradientUnits="objectBoundingBox"><stop offset="0" stop-color="#ffba64"/><stop offset="1" stop-color="#ff9167"/></linearGradient><linearGradient id="g" x1=".273" y1=".012" x2=".739" y2=".951" gradientUnits="objectBoundingBox"><stop offset="0" stop-color="#ef8500"/><stop offset="1" stop-color="#ff5456"/></linearGradient><linearGradient id="h" x1=".611" y1=".026" x2=".424" y2=".828" gradientUnits="objectBoundingBox"><stop offset="0" stop-color="#eff6ff"/><stop offset="1" stop-color="#fff"/></linearGradient><linearGradient id="i" x1=".478" y1=".459" x2=".6" y2=".684" gradientUnits="objectBoundingBox"><stop offset="0" stop-color="#b1caf6"/><stop offset="1" stop-color="#e2ebfb"/></linearGradient><linearGradient id="a" y1=".269" x2="1" y2=".88" gradientUnits="objectBoundingBox"><stop offset="0" stop-color="#4e3cdf"/><stop offset="1" stop-color="#dbd0ff"/></linearGradient><linearGradient id="k" x1="1" y1=".652" x2="-.119" y2=".075" xlink:href="#a"/><linearGradient id="l" x1="1" y1=".269" x2="0" y2=".88" xlink:href="#a"/><linearGradient id="b" x1="-.08" y1=".354" x2=".173" y2=".104" gradientUnits="objectBoundingBox"><stop offset="0" stop-color="#26259e"/><stop offset="1" stop-color="#5f50cc"/></linearGradient><linearGradient id="c" y1=".269" x2="1" y2=".88" gradientUnits="objectBoundingBox"><stop offset="0" stop-color="#dbd0ff"/><stop offset="1" stop-color="#4e3cdf"/></linearGradient><linearGradient id="m" x1="1.08" y1=".354" x2=".827" y2=".104" xlink:href="#b"/><linearGradient id="n" x1="1" y1=".269" x2="0" y2=".88" xlink:href="#c"/></defs><g data-name="Group 41"><path d="M0 67.723L117.3 0l117.3 67.723-117.3 67.724z" transform="translate(.036 104.4)" fill="url(#d)"/><path data-name="Rectangle" d="M0 0l117.3 67.723v16.931L0 16.931z" transform="translate(0 171.974)" fill="url(#a)"/><path data-name="Combined Shape" d="M16.884 196.233v-12.345l2.75 1.592v12.341zm-4.752-2.592v-12.345l2.75 1.584v12.349zm-5.184-3.024v-12.345l2.748 1.588v12.345zm-4.752-2.592V175.68l2.75 1.588v12.345z" fill="#fff" opacity=".628"/><path data-name="Rectangle" d="M0 0l-117.3 67.723v16.931L0 16.931z" transform="translate(234.409 172.138)" fill="url(#e)"/><g data-name="Group 40 Copy 2"><path data-name="Fill 848" d="M-18.713 31.31l1.872-5.4L0 35.629v71.057l-2.013 1.171L-72.98 64.78l-1.963-63.672L-72.98 0z" transform="translate(162.684 83.34)" fill="url(#f)"/><path data-name="Fill 851" d="M-18.713 31.31l1.872-5.4L0 35.629v71.258L-72.981 64.78V0z" transform="translate(160.671 84.346)" fill="url(#g)"/><path data-name="Fill 854" d="M-68.175.1l67.3 38.92A1.964 1.964 0 010 40.534V98.6c0 .162-.035.434-.269.434a.654.654 0 01-.308-.1l-67.3-38.921a1.964 1.964 0 01-.873-1.513V.435c0-.162.036-.435.271-.435a.636.636 0 01.307.1" transform="translate(159.074 89.567)" fill="url(#h)"/><path data-name="Fill 857" d="M-67.672.1l66.8 38.92A1.965 1.965 0 010 40.532v56.56c0 .162-.034.434-.269.434a.652.652 0 01-.308-.1l-66.8-38.921a1.964 1.964 0 01-.873-1.513V.434c0-.162.036-.434.271-.434a.64.64 0 01.307.1" transform="translate(158.571 89.928)" fill="url(#i)"/><path data-name="Fill 863" d="M-68.175.1l67.3 38.92A1.967 1.967 0 010 40.534V98.6c0 .162-.035.434-.27.434a.657.657 0 01-.308-.1l-67.3-38.921a1.962 1.962 0 01-.873-1.514V.435c0-.162.035-.435.271-.435a.646.646 0 01.307.1" transform="translate(157.801 90.378)" fill="url(#h)"/><path data-name="Fill 866" d="M-67.671.1l66.8 38.92A1.962 1.962 0 010 40.532v56.56c0 .162-.034.434-.269.434a.648.648 0 01-.308-.1l-66.8-38.921a1.963 1.963 0 01-.873-1.514V.434c0-.162.034-.434.27-.434a.644.644 0 01.308.1" transform="translate(157.06 90.719)" fill="url(#i)"/><path data-name="Fill 869" d="M155.133 194.419v-64.524L82.138 87.87l-1.259.924 1.259 63.1 71.707 43.242z" fill="#fa8f64"/><path data-name="Fill 874" d="M162.684 187.574l-8.81 5.033v2.517l8.81-5.033z" fill="#fa8f64"/></g><g data-name="Group 40 Copy"><path data-name="Fill 848" d="M-18.713 31.31l1.872-5.4L0 35.629v71.057l-2.013 1.171L-72.98 64.78l-1.963-63.672L-72.98 0z" transform="translate(151.884 89.766)" fill="url(#f)"/><path data-name="Fill 851" d="M-18.713 31.31l1.872-5.4L0 35.629v71.258L-72.981 64.78V0z" transform="translate(149.871 90.772)" fill="url(#g)"/><path data-name="Fill 854" d="M-68.175.1l67.3 38.92A1.964 1.964 0 010 40.534V98.6c0 .162-.035.434-.269.434a.654.654 0 01-.308-.1l-67.3-38.921a1.964 1.964 0 01-.873-1.513V.435c0-.162.036-.435.271-.435a.636.636 0 01.307.1" transform="translate(148.274 95.993)" fill="url(#h)"/><path data-name="Fill 857" d="M-67.672.1l66.8 38.92A1.965 1.965 0 010 40.532v56.56c0 .162-.034.434-.269.434a.652.652 0 01-.308-.1l-66.8-38.921a1.964 1.964 0 01-.873-1.513V.434c0-.162.036-.434.271-.434a.64.64 0 01.307.1" transform="translate(147.771 96.354)" fill="url(#i)"/><path data-name="Fill 863" d="M-68.175.1l67.3 38.92A1.967 1.967 0 010 40.534V98.6c0 .162-.035.434-.27.434a.657.657 0 01-.308-.1l-67.3-38.921a1.962 1.962 0 01-.873-1.514V.435c0-.162.035-.435.271-.435a.646.646 0 01.307.1" transform="translate(147.001 96.804)" fill="url(#h)"/><path data-name="Fill 866" d="M-67.671.1l66.8 38.92A1.962 1.962 0 010 40.532v56.56c0 .162-.034.434-.269.434a.648.648 0 01-.308-.1l-66.8-38.921a1.963 1.963 0 01-.873-1.514V.434c0-.162.034-.434.27-.434a.644.644 0 01.308.1" transform="translate(146.26 97.145)" fill="url(#i)"/><path data-name="Fill 869" d="M144.333 200.845v-64.524L71.338 94.296l-1.259.924 1.259 63.1 71.707 43.242z" fill="#fa8f64"/><path data-name="Fill 874" d="M151.884 194l-8.81 5.033v2.517l8.81-5.033z" fill="#fa8f64"/></g><g data-name="Group 40"><path data-name="Fill 848" d="M-18.713 31.31l1.872-5.4L0 35.629v71.057l-2.013 1.171L-72.98 64.78l-1.963-63.672L-72.98 0z" transform="translate(141.084 95.922)" fill="url(#j)"/><path data-name="Fill 851" d="M120.358 128.238l1.872-5.4 16.841 9.719v71.258L66.09 161.708v-64.78z" fill="#ca514d"/><path data-name="Fill 854" d="M-68.175.1l67.3 38.92A1.964 1.964 0 010 40.534V98.6c0 .162-.035.434-.269.434a.654.654 0 01-.308-.1l-67.3-38.921a1.964 1.964 0 01-.873-1.513V.435c0-.162.036-.435.271-.435a.636.636 0 01.307.1" transform="translate(137.474 102.149)" fill="url(#h)"/><path data-name="Fill 857" d="M-67.672.1l66.8 38.92A1.965 1.965 0 010 40.532v56.56c0 .162-.034.434-.269.434a.652.652 0 01-.308-.1l-66.8-38.921a1.964 1.964 0 01-.873-1.513V.434c0-.162.036-.434.271-.434a.64.64 0 01.307.1" transform="translate(136.971 102.51)" fill="url(#i)"/><path data-name="Fill 863" d="M-68.175.1l67.3 38.92A1.967 1.967 0 010 40.534V98.6c0 .162-.035.434-.27.434a.657.657 0 01-.308-.1l-67.3-38.921a1.962 1.962 0 01-.873-1.514V.435c0-.162.035-.435.271-.435a.646.646 0 01.307.1" transform="translate(136.201 102.96)" fill="url(#h)"/><path data-name="Fill 866" d="M-67.671.1l66.8 38.92A1.962 1.962 0 010 40.532v56.56c0 .162-.034.434-.269.434a.648.648 0 01-.308-.1l-66.8-38.921a1.963 1.963 0 01-.873-1.514V.434c0-.162.034-.434.27-.434a.644.644 0 01.308.1" transform="translate(135.46 103.301)" fill="url(#i)"/><path data-name="Fill 869" d="M0 106.549V42.025L-72.995 0l-1.259.924 1.259 63.1 71.707 43.242z" transform="translate(133.533 100.452)" fill="url(#j)"/><path data-name="Fill 874" d="M141.084 200.156l-8.81 5.033v2.517l8.81-5.033z" fill="#ff676e"/></g><path data-name="Rectangle" d="M0 0l112.32 64.848v98.292L0 98.292z" transform="translate(4.98 73.871)" opacity=".497" fill="url(#k)"/><path data-name="Rectangle" d="M0 0l-112.32 64.848v98.292L0 98.292z" transform="translate(229.62 73.871)" opacity=".497" fill="url(#l)"/><g data-name="Group 38"><path data-name="Path 21" d="M0 3.922L5.756.43s2.285-.86 3.61 0 22.1 12.913 22.1 12.913 2.937 1.9 2.971 4.751l.033 27.6a1.847 1.847 0 01-.8 1.522l-5.618 3.876L0 33.625z" transform="translate(35.33 132.988)" fill="url(#b)"/><path data-name="Path 19" d="M0 1.094s.233-2.188 3.778 0S25.506 13.52 25.506 13.52s3.676 2.086 3.38 5.03l.047 28.021s-.455 1.66-3.427 0-23.137-13.4-23.137-13.4A4.335 4.335 0 010 29.508z" transform="translate(34.715 136.681)" fill="url(#c)"/><path data-name="Path 22" d="M42.102 137.138v-10.233s1.936-7.301 7.461-6.815 12.239 7.49 12.239 14.416v11.812s-2.033 1.657-3.779 0l-.073-10.44a10.4 10.4 0 00-1.325-5.138c-1.4-2.187-4.859-7.231-8.849-6.246 0 0-1.6.784-1.583 5.993s.017 6.651.017 6.651a2.148 2.148 0 01-1.311.966c-.959.269-2.797-.966-2.797-.966z" fill="#fff"/><path data-name="Combined Shape" d="M45.18 155.918c0-1.906 1.516-2.566 3.386-1.471a7.157 7.157 0 013.386 5.442c0 1.394-.808 2.123-1.971 1.988v6.619c0 .774-.614 1.041-1.371.6a2.9 2.9 0 01-1.371-2.2v-6.587a6.855 6.855 0 01-2.059-4.391z" fill="#332fa9"/></g><g data-name="Group 38 Copy"><path data-name="Path 21" d="M0 3.922L-5.756.43s-2.285-.86-3.61 0-22.1 12.913-22.1 12.913-2.937 1.9-2.971 4.751l-.033 27.6a1.847 1.847 0 00.8 1.522l5.618 3.876L0 33.625z" transform="translate(190.138 129.748)" fill="url(#m)"/><path data-name="Path 19" d="M0 1.094s-.233-2.188-3.778 0S-25.506 13.52-25.506 13.52s-3.676 2.086-3.38 5.03l-.047 28.021s.455 1.66 3.427 0 23.137-13.4 23.137-13.4A4.335 4.335 0 000 29.508z" transform="translate(190.753 133.441)" fill="url(#n)"/><path data-name="Path 22" d="M183.366 133.898v-10.233s-1.936-7.301-7.461-6.815-12.239 7.49-12.239 14.416v11.812s2.033 1.657 3.779 0l.073-10.44a10.4 10.4 0 011.325-5.138c1.4-2.187 4.859-7.231 8.849-6.246 0 0 1.6.784 1.583 5.993s-.017 6.651-.017 6.651a2.148 2.148 0 001.311.966c.959.269 2.797-.966 2.797-.966z" fill="#fff"/><path data-name="Combined Shape" d="M180.288 152.678c0-1.906-1.516-2.566-3.386-1.471a7.157 7.157 0 00-3.386 5.442c0 1.394.808 2.123 1.971 1.988v6.619c0 .774.614 1.041 1.371.6a2.9 2.9 0 001.371-2.2v-6.587a6.855 6.855 0 002.059-4.391z" fill="#332fa9"/></g><g data-name="Group Copy"><path data-name="Rectangle" d="M0 67.723L117.3 0l117.3 67.723-117.3 67.724z" transform="translate(.036)" fill="url(#d)"/><path data-name="Rectangle" d="M0 0l117.3 67.723v16.931L0 16.931z" transform="translate(0 67.574)" fill="url(#a)"/><path data-name="Combined Shape" d="M16.884 91.833V79.488l2.75 1.592v12.341zm-4.752-2.592V76.896l2.75 1.584v12.349zm-5.184-3.024V73.872l2.748 1.588v12.345zm-4.752-2.592V71.28l2.75 1.588v12.345z" fill="#fff" opacity=".628"/><path data-name="Rectangle" d="M0 0l-117.3 67.723v16.931L0 16.931z" transform="translate(234.409 67.738)" fill="url(#e)"/></g></g></svg>