<svg xmlns="http://www.w3.org/2000/svg" xmlns:xlink="http://www.w3.org/1999/xlink" width="183.276" height="204.45" viewBox="0 0 183.276 204.45"><defs><linearGradient id="a" x1=".252" y1=".702" x2=".672" y2=".727" gradientUnits="objectBoundingBox"><stop offset="0" stop-color="#f6f3ff"/><stop offset="1" stop-color="#d6cafe"/></linearGradient><linearGradient id="b" x1="-.098" y1=".206" x2="1.104" y2=".837" xlink:href="#a"/><linearGradient id="c" y1=".269" x2="1" y2=".88" gradientUnits="objectBoundingBox"><stop offset="0" stop-color="#6e3cdf"/><stop offset="1" stop-color="#d4a8ff"/></linearGradient></defs><g data-name="Group 42 Copy 2"><g data-name="Group 402 Copy"><path data-name="Fill 1" d="M58.021 124.893l70.823 40.874V66.013L58.021 25.14z" fill="#132172"/><path data-name="Fill 3" d="M58.021 122.557l70.823 40.873v-1.035l-70.823-40.873z" fill="#524554"/><path data-name="Fill 4" d="M101.566 0L58.022 25.141l70.823 40.871 43.544-25.139z" fill="#344292"/><path data-name="Fill 5" d="M0 25.141v99.753l43.544-25.141V0z" transform="translate(139.732 47.155)" fill="url(#a)"/><path data-name="Fill 6" d="M180.909 145.559l-38.81 22.408V73.644l38.81-22.408z" fill="#beb4df"/><path data-name="Fill 7" d="M37.97 93.116L0 115.038V21.922L37.97 0z" transform="translate(142.521 52.083)" fill="url(#b)"/><path data-name="Fill 8" d="M180.491 86.149l-37.97 21.922v.5l37.97-21.922z" fill="#beb4df"/><path data-name="Fill 9" d="M180.491 74.593l-37.97 21.922v.5l37.97-21.922z" fill="#beb4df"/><path data-name="Fill 10" d="M180.491 63.036l-37.97 21.922v.5l37.97-21.922z" fill="#beb4df"/><path data-name="Fill 11" d="M175.369 93.745l-27.728 16.009v13.125l27.728-16.009z" fill="#beb4df"/><path data-name="Fill 12" d="M174.935 94.358l-26.86 15.508v12.4l26.86-15.508z" fill="#e3def3"/><path data-name="Fill 13" d="M178.241 83.514l-34.973 20.191v-5.273l.8-1.385 34.974-15.424z" fill="#8981a2" opacity=".606"/><path data-name="Fill 15" d="M179.747 77.261l-35.676 24.553v-4.768l34.971-20.19z" fill="#fff"/><path data-name="Fill 16" d="M179.747 82.028l-34.973 20.191v-4.767l34.973-20.192z" fill="#e3def3"/><path data-name="Fill 17" d="M173.647 88.362l-1.776 1.024v-.859l1.776-1.025z" fill="#abdf66"/><g data-name="Group 401"><path data-name="Fill 20" d="M164.632 129.537a7.375 7.375 0 01-3.351 5.774c-1.849 1.068-3.349.214-3.349-1.908a7.373 7.373 0 013.349-5.774c1.851-1.068 3.351-.214 3.351 1.908" fill="#4a416a"/><path data-name="Fill 26" d="M163.273 139.02a4.542 4.542 0 01-2.062 3.558c-1.141.659-2.064.131-2.064-1.176a4.545 4.545 0 012.064-3.558c1.136-.657 2.062-.131 2.062 1.176" fill="#4a416a"/><path data-name="Fill 28" d="M156.139 135.488l-1.242.717v-1.425l1.242-.718z" fill="#abdf66"/><path data-name="Fill 30" d="M156.139 144.189l-1.242.717v-1.425l1.242-.718z" fill="#f4988b"/><path data-name="Fill 32" d="M180.491 140.914l-37.97 21.922v-1.448l37.97-21.922z" fill="#c8bcae"/><path data-name="Fill 34" d="M180.491 143.923l-37.97 21.922v-1.448l37.97-21.922z" fill="#c8bcae"/><path data-name="Fill 36" d="M180.491 137.904l-37.97 21.922v-1.448l37.97-21.922z" fill="#c8bcae"/><path data-name="Fill 38" d="M174.935 100.309l-26.86 15.507v.5l26.86-15.507z" fill="#beb4df"/><path data-name="Fill 42" d="M139.732 172.049l-11.442-6.605V65.691l11.442 6.6z" fill="#c7bee3"/><path data-name="Fill 44" d="M144.774 102.219l-.7-.4v-4.773l.7.405z" fill="#d6cafe"/><path data-name="Fill 46" d="M165.336 129.943a7.38 7.38 0 01-3.351 5.774c-1.849 1.068-3.349.214-3.349-1.908a7.375 7.375 0 013.349-5.774c1.851-1.068 3.351-.214 3.351 1.908" fill="#c5bae6"/><path data-name="Fill 48" d="M165.143 130.64a6.073 6.073 0 01-2.755 4.75c-1.523.882-2.756.178-2.756-1.569a6.069 6.069 0 012.756-4.753c1.521-.878 2.755-.178 2.755 1.572" fill="#fff"/><path data-name="Fill 50" d="M163.977 139.426a4.542 4.542 0 01-2.062 3.558c-1.141.659-2.064.131-2.064-1.175a4.545 4.545 0 012.064-3.559c1.136-.657 2.062-.131 2.062 1.176" fill="#c5bae6"/><g data-name="Group 54"><path data-name="Fill 52" d="M139.732 72.295l-11.442-6.603 43.542-25.141 11.444 6.6z" fill="#ede8fe"/></g><path data-name="Fill 57" d="M177.907 85.524a2.937 2.937 0 01-1.335 2.3c-.733.427-1.333.087-1.333-.759a2.939 2.939 0 011.333-2.3c.737-.426 1.335-.084 1.335.759" fill="#beb4df"/><path data-name="Fill 59" d="M177.954 84.923l-.51-.29-1.857 3.261.444.267z" fill="#bdb1a4"/><path data-name="Fill 61" d="M178.304 85.755a2.935 2.935 0 01-1.333 2.3c-.734.427-1.334.086-1.334-.759a2.94 2.94 0 011.333-2.302c.737-.425 1.334-.083 1.334.761" fill="#fff"/><path data-name="Fill 63" d="M172.679 100.529l-1.58.911v.643l1.58-.912z" fill="#abdf66"/><path data-name="Fill 65" d="M165.426 103.196c0 .685-1.259 1.894-2.819 2.7s-2.827.905-2.827.219 1.26-1.893 2.819-2.699 2.825-.9 2.827-.22" fill="#c8bcae"/><path data-name="Fill 67" d="M171.587 99.439l-18.653 10.768v-.484l18.653-10.77z" fill="#151411"/><path data-name="Fill 69" d="M164.668 103.39c0 .4-1.038 1.265-2.323 1.929s-2.326.88-2.326.478 1.038-1.265 2.321-1.931 2.328-.876 2.328-.476" fill="#151411"/><path data-name="Fill 383" d="M163.911 139.774a3.874 3.874 0 01-1.758 3.031c-.97.559-1.756.11-1.756-1a3.87 3.87 0 011.756-3.033c.97-.561 1.758-.112 1.758 1" fill="#faf2eb"/><path data-name="Fill 385" d="M175.851 87.343a2.717 2.717 0 011.237-2.131c.591-.341 1.087-.147 1.205.425-.057-.755-.624-1.047-1.324-.643a2.94 2.94 0 00-1.333 2.302c0 .682.39 1.027.927.915-.418.015-.711-.3-.711-.868" fill="#faf2eb"/><path data-name="Fill 387" d="M128.29 65.692l11.442 5.654 41.726-24.195-9.624-6.6 11.442 6.6-43.544 25.144z" fill="#fffaf5"/><path data-name="Fill 389" d="M180.491 137.904l-1.254-.724-36.716 21.2v1.448z" fill="#faf2eb"/><path data-name="Fill 391" d="M180.491 137.904l-.462-.267-.792-.457-36.716 21.2v.915l37.046-21.391z" fill="#a6a7ab"/><path data-name="Fill 393" d="M180.491 140.914l-1.254-.724-36.716 21.2v1.448z" fill="#faf2eb"/><path data-name="Fill 395" d="M180.491 140.914l-.462-.267-.792-.457-36.716 21.2v.915l37.046-21.391z" fill="#a6a7ab"/><path data-name="Fill 397" d="M180.491 143.924l-1.254-.724-36.716 21.2v1.448z" fill="#faf2eb"/><path data-name="Fill 399" d="M180.491 143.924l-.462-.267-.792-.457-36.716 21.2v.915l37.046-21.391z" fill="#a6a7ab"/></g></g><g data-name="Group 402"><path data-name="Fill 1" d="M1.321 157.293l70.823 40.874V98.413L1.321 57.54z" fill="#132172"/><path data-name="Fill 3" d="M1.321 154.957l70.823 40.873v-1.035L1.321 153.922z" fill="#524554"/><path data-name="Fill 4" d="M44.866 32.4L1.322 57.541l70.823 40.871 43.544-25.139z" fill="#344292"/><path data-name="Fill 5" d="M0 25.141v99.753l43.544-25.141V0z" transform="translate(83.032 79.555)" fill="url(#a)"/><path data-name="Fill 6" d="M124.209 177.959l-38.81 22.408v-94.323l38.81-22.408z" fill="#beb4df"/><path data-name="Fill 7" d="M37.97 93.116L0 115.038V21.922L37.97 0z" transform="translate(85.821 84.483)" fill="url(#b)"/><path data-name="Fill 8" d="M123.791 118.549l-37.97 21.922v.5l37.97-21.922z" fill="#beb4df"/><path data-name="Fill 9" d="M123.791 106.993l-37.97 21.922v.5l37.97-21.922z" fill="#beb4df"/><path data-name="Fill 10" d="M123.791 95.436l-37.97 21.922v.5l37.97-21.922z" fill="#beb4df"/><path data-name="Fill 11" d="M118.669 126.145l-27.728 16.009v13.125l27.728-16.009z" fill="#beb4df"/><path data-name="Fill 12" d="M118.235 126.758l-26.86 15.508v12.4l26.86-15.508z" fill="#e3def3"/><path data-name="Fill 13" d="M121.541 115.914l-34.973 20.191v-5.273l.8-1.385 34.974-15.424z" fill="#8981a2" opacity=".606"/><path data-name="Fill 15" d="M123.047 109.661l-35.676 24.553v-4.768l34.971-20.19z" fill="#fff"/><path data-name="Fill 16" d="M123.047 114.428l-34.973 20.191v-4.767l34.973-20.192z" fill="#e3def3"/><path data-name="Fill 17" d="M116.947 120.762l-1.776 1.024v-.859l1.776-1.025z" fill="#abdf66"/><g data-name="Group 401"><path data-name="Fill 20" d="M107.932 161.937a7.375 7.375 0 01-3.351 5.774c-1.849 1.068-3.349.214-3.349-1.908a7.373 7.373 0 013.349-5.774c1.851-1.068 3.351-.214 3.351 1.908" fill="#4a416a"/><path data-name="Fill 26" d="M106.573 171.42a4.542 4.542 0 01-2.062 3.558c-1.141.659-2.064.131-2.064-1.176a4.545 4.545 0 012.064-3.558c1.136-.657 2.062-.131 2.062 1.176" fill="#4a416a"/><path data-name="Fill 28" d="M99.439 167.888l-1.242.717v-1.425l1.242-.718z" fill="#abdf66"/><path data-name="Fill 30" d="M99.439 176.589l-1.242.717v-1.425l1.242-.718z" fill="#f4988b"/><path data-name="Fill 32" d="M123.791 173.314l-37.97 21.922v-1.448l37.97-21.922z" fill="#c8bcae"/><path data-name="Fill 34" d="M123.791 176.323l-37.97 21.922v-1.448l37.97-21.922z" fill="#c8bcae"/><path data-name="Fill 36" d="M123.791 170.304l-37.97 21.922v-1.448l37.97-21.922z" fill="#c8bcae"/><path data-name="Fill 38" d="M118.235 132.709l-26.86 15.507v.5l26.86-15.507z" fill="#beb4df"/><path data-name="Fill 42" d="M83.032 204.449l-11.442-6.605V98.091l11.442 6.6z" fill="#c7bee3"/><path data-name="Fill 44" d="M88.074 134.619l-.7-.4v-4.773l.7.405z" fill="#d6cafe"/><path data-name="Fill 46" d="M108.636 162.343a7.38 7.38 0 01-3.351 5.774c-1.849 1.068-3.349.214-3.349-1.908a7.375 7.375 0 013.349-5.774c1.851-1.068 3.351-.214 3.351 1.908" fill="#c5bae6"/><path data-name="Fill 48" d="M108.443 163.04a6.073 6.073 0 01-2.755 4.75c-1.523.882-2.756.178-2.756-1.569a6.069 6.069 0 012.756-4.753c1.521-.878 2.755-.178 2.755 1.572" fill="#fff"/><path data-name="Fill 50" d="M107.277 171.826a4.542 4.542 0 01-2.062 3.558c-1.141.659-2.064.131-2.064-1.175a4.545 4.545 0 012.064-3.559c1.136-.657 2.062-.131 2.062 1.176" fill="#c5bae6"/><g data-name="Group 54"><path data-name="Fill 52" d="M83.032 104.695L71.59 98.092l43.542-25.141 11.444 6.6z" fill="#ede8fe"/></g><path data-name="Fill 57" d="M121.207 117.924a2.937 2.937 0 01-1.335 2.3c-.733.427-1.333.087-1.333-.759a2.939 2.939 0 011.333-2.3c.737-.426 1.335-.084 1.335.759" fill="#beb4df"/><path data-name="Fill 59" d="M121.254 117.323l-.51-.29-1.857 3.261.444.267z" fill="#bdb1a4"/><path data-name="Fill 61" d="M121.604 118.155a2.935 2.935 0 01-1.333 2.3c-.734.427-1.334.086-1.334-.759a2.94 2.94 0 011.333-2.302c.737-.425 1.334-.083 1.334.761" fill="#fff"/><path data-name="Fill 63" d="M115.979 132.929l-1.58.911v.643l1.58-.912z" fill="#abdf66"/><path data-name="Fill 65" d="M108.726 135.596c0 .685-1.259 1.894-2.819 2.7s-2.827.905-2.827.219 1.26-1.893 2.819-2.699 2.825-.9 2.827-.22" fill="#c8bcae"/><path data-name="Fill 67" d="M114.887 131.839l-18.653 10.768v-.484l18.653-10.77z" fill="#151411"/><path data-name="Fill 69" d="M107.968 135.79c0 .4-1.038 1.265-2.323 1.929s-2.326.88-2.326.478 1.038-1.265 2.321-1.931 2.328-.876 2.328-.476" fill="#151411"/><path data-name="Fill 383" d="M107.211 172.174a3.874 3.874 0 01-1.758 3.031c-.97.559-1.756.11-1.756-1a3.87 3.87 0 011.756-3.033c.97-.561 1.758-.112 1.758 1" fill="#faf2eb"/><path data-name="Fill 385" d="M119.151 119.743a2.717 2.717 0 011.237-2.131c.591-.341 1.087-.147 1.205.425-.057-.755-.624-1.047-1.324-.643a2.94 2.94 0 00-1.333 2.302c0 .682.39 1.027.927.915-.418.015-.711-.3-.711-.868" fill="#faf2eb"/><path data-name="Fill 387" d="M71.59 98.092l11.442 5.654 41.726-24.195-9.624-6.6 11.442 6.6-43.544 25.144z" fill="#fffaf5"/><path data-name="Fill 389" d="M123.791 170.304l-1.254-.724-36.716 21.2v1.448z" fill="#faf2eb"/><path data-name="Fill 391" d="M123.791 170.304l-.462-.267-.792-.457-36.716 21.2v.915l37.046-21.391z" fill="#a6a7ab"/><path data-name="Fill 393" d="M123.791 173.314l-1.254-.724-36.716 21.2v1.448z" fill="#faf2eb"/><path data-name="Fill 395" d="M123.791 173.314l-.462-.267-.792-.457-36.716 21.2v.915l37.046-21.391z" fill="#a6a7ab"/><path data-name="Fill 397" d="M123.791 176.324l-1.254-.724-36.716 21.2v1.448z" fill="#faf2eb"/><path data-name="Fill 399" d="M123.791 176.324l-.462-.267-.792-.457-36.716 21.2v.915l37.046-21.391z" fill="#a6a7ab"/></g></g><path data-name="Fill 25" d="M23.501 78.486l-6.155 43.8c-1.01 7.187-7.32 15.213-14.095 17.927l37.09 28.798c6.774-2.713 13.085-10.74 14.095-17.93l6.155-43.796z" fill="#fff"/><path d="M31.008 19.73a9.375 9.375 0 00.083-1.212c0-5.156-3.663-11.438-8.181-14.032-2.626-1.507-4.956-1.428-6.453-.095A13.09 13.09 0 0012.682.95C8.84-1.255 5.727.51 5.727 4.9c0 .044 0 .089.006.133C2.476 3.819 0 5.637 0 9.542A15.221 15.221 0 006.954 21.47l22.092 12.68c3.84 2.205 6.954.44 6.954-3.95a15.4 15.4 0 00-4.992-10.47z" transform="rotate(8 -705.959 207.004)" fill="url(#c)"/><path d="M42.248 98.761c.962.556 1.742.105 1.742-1.006a3.851 3.851 0 00-1.742-3.018c-.962-.556-1.742-.105-1.742 1.006a3.851 3.851 0 001.742 3.018z" fill="#d7ddfd"/></g></svg>