<svg xmlns="http://www.w3.org/2000/svg" xmlns:xlink="http://www.w3.org/1999/xlink" width="211.173" height="231.113" viewBox="0 0 211.173 231.113"><defs><linearGradient id="j" x1="1" y1="1" x2=".14" y2=".137" gradientUnits="objectBoundingBox"><stop offset="0" stop-color="#ff586f"/><stop offset="1" stop-color="#ffad6b"/></linearGradient><linearGradient id="d" y1="1" x2=".945" y2="-.057" gradientUnits="objectBoundingBox"><stop offset="0" stop-color="#18096b"/><stop offset="1" stop-color="#5f3dc8"/></linearGradient><linearGradient id="e" x1=".015" y1=".96" x2="1" gradientUnits="objectBoundingBox"><stop offset="0" stop-color="#a99cf4"/><stop offset="1" stop-color="#4435bd"/></linearGradient><linearGradient id="f" x1=".382" y1=".316" x2=".752" y2=".739" gradientUnits="objectBoundingBox"><stop offset="0" stop-color="#ffba64"/><stop offset="1" stop-color="#ff9167"/></linearGradient><linearGradient id="g" x1=".273" y1=".012" x2=".739" y2=".951" gradientUnits="objectBoundingBox"><stop offset="0" stop-color="#ef8500"/><stop offset="1" stop-color="#ff5456"/></linearGradient><linearGradient id="h" x1=".611" y1=".026" x2=".424" y2=".828" gradientUnits="objectBoundingBox"><stop offset="0" stop-color="#eff6ff"/><stop offset="1" stop-color="#fff"/></linearGradient><linearGradient id="i" x1=".478" y1=".459" x2=".6" y2=".684" gradientUnits="objectBoundingBox"><stop offset="0" stop-color="#b1caf6"/><stop offset="1" stop-color="#e2ebfb"/></linearGradient><linearGradient id="a" y1=".269" x2="1" y2=".88" gradientUnits="objectBoundingBox"><stop offset="0" stop-color="#4e3cdf"/><stop offset="1" stop-color="#dbd0ff"/></linearGradient><linearGradient id="k" x1="1" y1=".652" x2="-.119" y2=".075" xlink:href="#a"/><linearGradient id="l" x1="1" y1=".269" x2="0" y2=".88" xlink:href="#a"/><linearGradient id="b" x1="-.08" y1=".354" x2=".173" y2=".104" gradientUnits="objectBoundingBox"><stop offset="0" stop-color="#26259e"/><stop offset="1" stop-color="#5f50cc"/></linearGradient><linearGradient id="c" y1=".269" x2="1" y2=".88" gradientUnits="objectBoundingBox"><stop offset="0" stop-color="#dbd0ff"/><stop offset="1" stop-color="#4e3cdf"/></linearGradient><linearGradient id="m" x1="1.08" y1=".354" x2=".827" y2=".104" xlink:href="#b"/><linearGradient id="n" x1="1" y1=".269" x2="0" y2=".88" xlink:href="#c"/></defs><g data-name="Group 41 Copy 2"><path d="M0 60.951L105.57 0l105.57 60.951L105.57 121.9z" transform="translate(.033 93.96)" fill="url(#d)"/><path data-name="Rectangle" d="M0 0l105.57 60.951v15.238L0 15.238z" transform="translate(0 154.776)" fill="url(#a)"/><path data-name="Combined Shape" d="M15.196 176.612v-11.113l2.474 1.428v11.112zm-4.277-2.335v-11.111l2.474 1.428v11.112zm-4.665-2.722v-11.11l2.474 1.428v11.112zm-4.277-2.332v-11.111l2.474 1.428v11.112z" fill="#fff" opacity=".628"/><path data-name="Rectangle" d="M0 0l-105.57 60.951v15.238L0 15.238z" transform="translate(210.968 154.924)" fill="url(#e)"/><g data-name="Group 40 Copy 2"><path data-name="Fill 848" d="M-16.841 28.179l1.685-4.859L0 32.066v63.952l-1.812 1.054-63.87-38.772L-67.449 1l1.767-1z" transform="translate(146.416 75.006)" fill="url(#f)"/><path data-name="Fill 851" d="M-16.842 28.179l1.684-4.858L0 32.066V96.2l-65.683-37.9V0z" transform="translate(144.604 75.912)" fill="url(#g)"/><path data-name="Fill 854" d="M-61.358.09L-.784 35.118A1.768 1.768 0 010 36.48v52.263c0 .146-.032.39-.242.39a.589.589 0 01-.277-.09l-60.574-35.028a1.767 1.767 0 01-.785-1.362V.391c0-.146.032-.391.244-.391a.572.572 0 01.277.09" transform="translate(143.167 80.61)" fill="url(#h)"/><path data-name="Fill 857" d="M-60.9.089L-.785 35.117A1.769 1.769 0 010 36.479v50.9c0 .146-.031.39-.242.39a.587.587 0 01-.277-.09l-60.12-35.029a1.767 1.767 0 01-.785-1.362V.39c0-.146.032-.39.244-.39a.576.576 0 01.28.089" transform="translate(142.714 80.935)" fill="url(#i)"/><path data-name="Fill 863" d="M-61.358.09L-.785 35.118A1.77 1.77 0 010 36.48v52.262c0 .145-.032.39-.243.39a.591.591 0 01-.277-.089l-60.573-35.028a1.766 1.766 0 01-.785-1.363V.391c0-.146.032-.391.244-.391a.582.582 0 01.277.09" transform="translate(142.021 81.34)" fill="url(#h)"/><path data-name="Fill 866" d="M-60.9.09L-.785 35.118A1.766 1.766 0 010 36.479v50.9c0 .146-.031.39-.242.39a.583.583 0 01-.277-.089l-60.12-35.029a1.767 1.767 0 01-.785-1.363V.39c0-.146.031-.39.243-.39a.579.579 0 01.281.09" transform="translate(141.355 81.647)" fill="url(#i)"/><path data-name="Fill 869" d="M139.62 174.977v-58.071l-65.7-37.823-1.133.832 1.133 56.786 64.54 38.918z" fill="#fa8f64"/><path data-name="Fill 874" d="M146.416 168.817l-7.929 4.53v2.265l7.929-4.53z" fill="#fa8f64"/></g><g data-name="Group 40 Copy"><path data-name="Fill 848" d="M-16.841 28.179l1.685-4.859L0 32.066v63.952l-1.812 1.054-63.87-38.772L-67.449 1l1.767-1z" transform="translate(136.696 80.789)" fill="url(#f)"/><path data-name="Fill 851" d="M-16.842 28.179l1.684-4.858L0 32.066V96.2l-65.683-37.9V0z" transform="translate(134.884 81.695)" fill="url(#g)"/><path data-name="Fill 854" d="M-61.358.09L-.784 35.118A1.768 1.768 0 010 36.48v52.263c0 .146-.032.39-.242.39a.589.589 0 01-.277-.09l-60.574-35.028a1.767 1.767 0 01-.785-1.362V.391c0-.146.032-.391.244-.391a.572.572 0 01.277.09" transform="translate(133.447 86.393)" fill="url(#h)"/><path data-name="Fill 857" d="M-60.9.089L-.785 35.117A1.769 1.769 0 010 36.479v50.9c0 .146-.031.39-.242.39a.587.587 0 01-.277-.09l-60.12-35.029a1.767 1.767 0 01-.785-1.362V.39c0-.146.032-.39.244-.39a.576.576 0 01.28.089" transform="translate(132.994 86.718)" fill="url(#i)"/><path data-name="Fill 863" d="M-61.358.09L-.785 35.118A1.77 1.77 0 010 36.48v52.262c0 .145-.032.39-.243.39a.591.591 0 01-.277-.089l-60.573-35.028a1.766 1.766 0 01-.785-1.363V.391c0-.146.032-.391.244-.391a.582.582 0 01.277.09" transform="translate(132.301 87.123)" fill="url(#h)"/><path data-name="Fill 866" d="M-60.9.09L-.785 35.118A1.766 1.766 0 010 36.479v50.9c0 .146-.031.39-.242.39a.583.583 0 01-.277-.089l-60.12-35.029a1.767 1.767 0 01-.785-1.363V.39c0-.146.031-.39.243-.39a.579.579 0 01.281.09" transform="translate(131.635 87.43)" fill="url(#i)"/><path data-name="Fill 869" d="M129.9 180.76v-58.071L64.2 84.866l-1.133.832 1.133 56.786 64.54 38.918z" fill="#fa8f64"/><path data-name="Fill 874" d="M136.696 174.6l-7.929 4.53v2.265l7.929-4.53z" fill="#fa8f64"/></g><g data-name="Group 40"><path data-name="Fill 848" d="M-16.841 28.179l1.685-4.859L0 32.066v63.952l-1.812 1.054-63.87-38.772L-67.449 1l1.767-1z" transform="translate(126.976 86.33)" fill="url(#j)"/><path data-name="Fill 851" d="M108.322 115.415l1.684-4.858 15.158 8.745v64.134l-65.683-37.9v-58.3z" fill="#ca514d"/><path data-name="Fill 854" d="M-61.358.09L-.784 35.118A1.768 1.768 0 010 36.48v52.263c0 .146-.032.39-.242.39a.589.589 0 01-.277-.09l-60.574-35.028a1.767 1.767 0 01-.785-1.362V.391c0-.146.032-.391.244-.391a.572.572 0 01.277.09" transform="translate(123.727 91.934)" fill="url(#h)"/><path data-name="Fill 857" d="M-60.9.089L-.785 35.117A1.769 1.769 0 010 36.479v50.9c0 .146-.031.39-.242.39a.587.587 0 01-.277-.09l-60.12-35.029a1.767 1.767 0 01-.785-1.362V.39c0-.146.032-.39.244-.39a.576.576 0 01.28.089" transform="translate(123.274 92.259)" fill="url(#i)"/><path data-name="Fill 863" d="M-61.358.09L-.785 35.118A1.77 1.77 0 010 36.48v52.262c0 .145-.032.39-.243.39a.591.591 0 01-.277-.089l-60.573-35.028a1.766 1.766 0 01-.785-1.363V.391c0-.146.032-.391.244-.391a.582.582 0 01.277.09" transform="translate(122.581 92.664)" fill="url(#h)"/><path data-name="Fill 866" d="M-60.9.09L-.785 35.118A1.766 1.766 0 010 36.479v50.9c0 .146-.031.39-.242.39a.583.583 0 01-.277-.089l-60.12-35.029a1.767 1.767 0 01-.785-1.363V.39c0-.146.031-.39.243-.39a.579.579 0 01.281.09" transform="translate(121.915 92.971)" fill="url(#i)"/><path data-name="Fill 869" d="M0 95.894V37.823L-65.7 0l-1.133.832 1.133 56.786 64.54 38.918z" transform="translate(120.18 90.407)" fill="url(#j)"/><path data-name="Fill 874" d="M126.976 180.141l-7.929 4.53v2.265l7.929-4.53z" fill="#ff676e"/></g><path data-name="Rectangle" d="M0 0l101.088 58.363v88.463L0 88.463z" transform="translate(4.483 66.484)" opacity=".497" fill="url(#k)"/><path data-name="Rectangle" d="M0 0l-101.088 58.363v88.463L0 88.463z" transform="translate(206.659 66.484)" opacity=".497" fill="url(#l)"/><g data-name="Group 38"><path data-name="Path 21" d="M0 3.53L5.18.387s2.056-.774 3.249 0 19.892 11.622 19.892 11.622 2.643 1.71 2.674 4.276l.03 24.842a1.662 1.662 0 01-.718 1.37l-5.056 3.488L0 30.263z" transform="translate(31.798 119.689)" fill="url(#b)"/><path data-name="Path 19" d="M0 .985s.209-1.969 3.4 0 19.556 11.183 19.556 11.183 3.308 1.878 3.044 4.527l.042 25.219s-.409 1.494-3.084 0S2.132 29.855 2.132 29.855A3.9 3.9 0 010 26.557z" transform="translate(31.244 123.013)" fill="url(#c)"/><path data-name="Path 22" d="M37.892 123.424v-9.21s1.743-6.571 6.715-6.133 11.014 6.741 11.014 12.973v10.632s-1.83 1.491-3.4 0l-.066-9.4a9.357 9.357 0 00-1.193-4.62c-1.258-1.968-4.37-6.512-7.964-5.621 0 0-1.44.706-1.425 5.393l.019 5.986a1.933 1.933 0 01-1.18.869c-.866.243-2.52-.869-2.52-.869z" fill="#fff"/><path data-name="Combined Shape" d="M40.662 140.326c0-1.715 1.364-2.31 3.047-1.324a6.441 6.441 0 013.047 4.9c0 1.255-.727 1.91-1.774 1.789v5.955c0 .7-.553.937-1.234.538a2.609 2.609 0 01-1.234-1.984v-5.922a6.169 6.169 0 01-1.852-3.952z" fill="#332fa9"/></g><g data-name="Group 38 Copy"><path data-name="Path 21" d="M0 3.53L-5.18.387s-2.056-.774-3.249 0-19.892 11.622-19.892 11.622-2.643 1.71-2.674 4.276l-.03 24.842a1.662 1.662 0 00.718 1.37l5.056 3.488L0 30.263z" transform="translate(171.124 116.773)" fill="url(#m)"/><path data-name="Path 19" d="M0 .985s-.209-1.969-3.4 0-19.556 11.183-19.556 11.183-3.308 1.878-3.044 4.527l-.042 25.219s.409 1.494 3.084 0S-2.132 29.855-2.132 29.855A3.9 3.9 0 000 26.557z" transform="translate(171.678 120.097)" fill="url(#n)"/><path data-name="Path 22" d="M165.03 120.508v-9.21s-1.743-6.571-6.715-6.133-11.014 6.741-11.014 12.973v10.632s1.83 1.491 3.4 0l.066-9.4a9.357 9.357 0 011.193-4.62c1.258-1.968 4.37-6.512 7.964-5.621 0 0 1.44.706 1.425 5.393l-.019 5.986a1.933 1.933 0 001.18.869c.866.243 2.52-.869 2.52-.869z" fill="#fff"/><path data-name="Combined Shape" d="M162.26 137.41c0-1.715-1.364-2.31-3.047-1.324a6.441 6.441 0 00-3.047 4.9c0 1.255.727 1.91 1.774 1.789v5.955c0 .7.553.937 1.234.538a2.609 2.609 0 001.234-1.984v-5.922a6.169 6.169 0 001.852-3.952z" fill="#332fa9"/></g><g data-name="Group Copy"><path data-name="Rectangle" d="M0 60.951L105.57 0l105.57 60.951L105.57 121.9z" transform="translate(.033)" fill="url(#d)"/><path data-name="Rectangle" d="M0 0l105.57 60.951v15.238L0 15.238z" transform="translate(0 60.816)" fill="url(#a)"/><path data-name="Combined Shape" d="M15.196 82.652V71.539l2.474 1.428v11.112zm-4.277-2.335V69.206l2.474 1.428v11.112zm-4.665-2.722v-11.11l2.474 1.428v11.112zm-4.277-2.332V64.152l2.474 1.428v11.112z" fill="#fff" opacity=".628"/><path data-name="Rectangle" d="M0 0l-105.57 60.951v15.238L0 15.238z" transform="translate(210.968 60.964)" fill="url(#e)"/></g></g></svg>