<svg version="1.1" id="Layer_1" xmlns="http://www.w3.org/2000/svg" x="0" y="0" viewBox="0 0 38.4 28.8" xml:space="preserve"><style>.st0{fill:#fff}</style><g id="Group_48" transform="translate(2.4 2.4)"><path class="st0" d="M27.8 26.4H12C5 26.4-2.4 19-2.4 12S5-2.4 12-2.4h4.9c1.3 0 2.4 1.1 2.4 2.4s-1.1 2.4-2.4 2.4H12c-4.3 0-9.6 5.3-9.6 9.6s5.3 9.6 9.6 9.6h15.8c1.3 0 2.4 1.1 2.4 2.4s-1 2.4-2.4 2.4z" id="Path_67"/><path class="st0" d="M33.6 18.7H12.7c-3.4-.4-6.1-3.1-6.5-6.5v-.6c.4-3.4 3.1-6.1 6.5-6.5H33.6c1.3 0 2.4 1.1 2.4 2.4s-1.1 2.4-2.4 2.4H13.1c-1 .2-1.8.9-2 1.9.2 1 1 1.8 2 1.9h20.5c1.3 0 2.4 1.1 2.4 2.4s-1.1 2.6-2.4 2.6z" id="Path_68"/></g></svg>