<svg xmlns="http://www.w3.org/2000/svg" width="51.8" height="47.013" viewBox="0 0 51.8 47.013"><defs><filter id="a" x="0" y="0" width="51.8" height="47.013" filterUnits="userSpaceOnUse"><feOffset dy="2"/><feGaussianBlur stdDeviation="2.5" result="blur"/><feFlood flood-opacity=".157"/><feComposite operator="in" in2="blur"/><feComposite in="SourceGraphic"/></filter></defs><g filter="url(#a)"><path data-name="Shape" d="M25.263 37.365L8.3 29a1.44 1.44 0 01-.058-2.552l3.519-1.94L8.3 22.8a1.44 1.44 0 01-.05-2.557l3.529-1.93L8.3 16.6a1.441 1.441 0 010-2.583l16.963-8.368a1.441 1.441 0 011.274 0L43.5 14.016a1.44 1.44 0 010 2.584l-3.475 1.714 3.529 1.93A1.44 1.44 0 0143.5 22.8l-3.46 1.707 3.519 1.94A1.44 1.44 0 0143.5 29l-16.96 8.367a1.441 1.441 0 01-1.274 0z" fill="#fff"/></g></svg>