<svg xmlns="http://www.w3.org/2000/svg" width="44.429" height="48" viewBox="0 0 44.429 48"><path data-name="Combined Shape" d="M10.041 44.339a4.546 4.546 0 01-7.39-3.555 4.5 4.5 0 011.008-2.828A22.045 22.045 0 010 25.785 22.292 22.292 0 011.318 18.2 22.112 22.112 0 0117.707 4.046a4.538 4.538 0 019.023 0 22.179 22.179 0 0114.048 33.915 4.538 4.538 0 01-6.386 6.376 22.072 22.072 0 01-24.35 0zm.4-6.782a4.506 4.506 0 01.86 5.219 20.079 20.079 0 0021.83 0 4.564 4.564 0 01.86-5.215 4.491 4.491 0 013.2-1.322 4.65 4.65 0 012.021.465 20.182 20.182 0 00-12.7-30.656 4.535 4.535 0 01-8.593 0A20.167 20.167 0 005.225 36.7a4.654 4.654 0 012.018-.464 4.491 4.491 0 013.2 1.321zm24.964 1.414a2.565 2.565 0 103.627 0 2.566 2.566 0 00-3.627 0zm-30 0a2.564 2.564 0 101.814-.751 2.546 2.546 0 00-1.819.751zM19.654 4.565A2.564 2.564 0 1022.217 2a2.567 2.567 0 00-2.563 2.565zm2.512 37.99a1 1 0 01-.974-1.026l.022-.813H17.89a1 1 0 110-2h8.7a1 1 0 110 2h-3.375l-.023.865a1 1 0 01-1 .974zM17.89 38a1 1 0 010-2h8.7a1 1 0 010 2zm-.023-2.864a1 1 0 01-1-1v-.4a4.282 4.282 0 00-1.657-3.286 11.087 11.087 0 017.019-19.684 11.087 11.087 0 0110.952 9.35 11.011 11.011 0 01-4.1 10.442 4.24 4.24 0 00-1.515 3.32v.256a1 1 0 01-1 1zM26.283 21.2a1 1 0 01-1 1 2.069 2.069 0 00-2.066 2.066v8.867h2.39a6.062 6.062 0 012.233-4.142 9.039 9.039 0 003.36-8.572 9.163 9.163 0 00-7.993-7.6 9.527 9.527 0 00-1.01-.054 8.937 8.937 0 00-6.07 2.336 9.082 9.082 0 00.343 13.8 6.328 6.328 0 012.362 4.233h2.38v-8.868A2.069 2.069 0 0019.15 22.2a1 1 0 010-2 4.058 4.058 0 013.066 1.426 4.054 4.054 0 013.067-1.426 1 1 0 011 1z" fill="#fff"/></svg>