<svg xmlns="http://www.w3.org/2000/svg" width="51.2" height="51.2" viewBox="0 0 51.2 51.2"><path data-name="Combined Shape" d="M43.069 49.808l-13.2-13.2a18 18 0 01-4.214 1.743v.859a2.572 2.572 0 01-2.568 2.57h-4.393a2.573 2.573 0 01-2.57-2.57v-.859a17.923 17.923 0 01-4.212-1.745l-.607.607a2.572 2.572 0 01-3.635 0l-3.105-3.1a2.576 2.576 0 010-3.634l.607-.606a17.971 17.971 0 01-1.744-4.215h-.86A2.571 2.571 0 010 23.088v-4.394a2.572 2.572 0 012.568-2.57h.859a17.969 17.969 0 011.743-4.212l-.605-.612a2.572 2.572 0 010-3.633l3.107-3.102a2.576 2.576 0 013.633 0l.607.607a17.933 17.933 0 014.212-1.744v-.86A2.572 2.572 0 0118.694 0h4.394a2.571 2.571 0 012.568 2.568v.859a17.978 17.978 0 014.214 1.744l.607-.607a2.575 2.575 0 013.632 0l3.106 3.109a2.572 2.572 0 010 3.635l-.6.6a17.878 17.878 0 011.745 4.212h.859a2.573 2.573 0 012.57 2.57v4.394a2.571 2.571 0 01-2.57 2.567h-.859a17.994 17.994 0 01-1.743 4.215l13.2 13.2a4.764 4.764 0 01-6.738 6.737zm-2.715-5.544l4.13 4.13a2.765 2.765 0 003.91-3.909l-4.131-4.131zm-4.395-4.393l2.98 2.979 3.91-3.91-2.979-2.98zM12.293 34.5a15.885 15.885 0 005.049 2.092 1 1 0 01.781.976v1.642a.578.578 0 00.571.57h4.394a.576.576 0 00.567-.57v-1.64a.994.994 0 01.782-.976A15.971 15.971 0 0029.49 34.5a1 1 0 011.24.139l3.815 3.814 3.911-3.911-3.814-3.815a1 1 0 01-.139-1.24 15.971 15.971 0 002.09-5.054.994.994 0 01.976-.782h1.642a.576.576 0 00.57-.567v-4.39a.578.578 0 00-.57-.571H37.57a1.006 1.006 0 01-.976-.781 15.885 15.885 0 00-2.094-5.049 1 1 0 01.138-1.243L35.8 9.891a.57.57 0 000-.8l-3.1-3.112a.578.578 0 00-.8 0l-1.169 1.159a1 1 0 01-1.242.139 16.009 16.009 0 00-5.054-2.093 1 1 0 01-.78-.976v-1.64A.575.575 0 0023.088 2h-4.394a.577.577 0 00-.571.568v1.64a1 1 0 01-.78.976 15.977 15.977 0 00-5.05 2.092 1 1 0 01-1.243-.138L9.891 5.979a.577.577 0 00-.806 0L5.979 9.085a.578.578 0 000 .806l1.159 1.159a.992.992 0 01.138 1.242 15.99 15.99 0 00-2.092 5.051 1 1 0 01-.976.78h-1.64a.577.577 0 00-.568.571v4.394a.575.575 0 00.568.567h1.641a1 1 0 01.976.78 16 16 0 002.092 5.054.993.993 0 01-.138 1.241l-1.16 1.16a.578.578 0 000 .806l3.1 3.1a.57.57 0 00.8 0l1.171-1.156a1 1 0 011.243-.138zM7.424 20.891A13.471 13.471 0 0126.317 8.564a1 1 0 11-.807 1.83 11.454 11.454 0 105.855 5.829 1 1 0 011.825-.817 13.337 13.337 0 011.165 5.486 13.466 13.466 0 01-26.931 0zm12.34 5.061A1 1 0 0119 24.758l1.817-8.169a1 1 0 011.952.434l-1.817 8.17a1 1 0 01-1.193.759zm5.79-.923a1 1 0 01-.132-1.408l2.261-2.73-2.261-2.73a1 1 0 111.54-1.276l2.789 3.368a1 1 0 010 1.276l-2.79 3.371a1 1 0 01-1.408.132zM14.82 24.9l-2.793-3.368a1 1 0 010-1.276l2.793-3.368a1 1 0 111.539 1.276L14.1 20.891l2.263 2.729a1.002 1.002 0 11-1.543 1.28z" fill="#fff"/><path d="M29.245 12.955a1 1 0 00.883-1.795l-.006-.005a1.001 1.001 0 00-.877 1.8z" fill="#fff"/></svg>