<svg xmlns="http://www.w3.org/2000/svg" width="51" height="44" viewBox="0 0 51 44"><path d="M25.5 44A16.668 16.668 0 019.064 30.263a3.517 3.517 0 01.008-1.3.223.223 0 00-.216-.262.212.212 0 00-.079.016 3.536 3.536 0 01-2.57-.04A9.928 9.928 0 010 19.489v-1.135a9.912 9.912 0 016.207-9.193A3.477 3.477 0 017.544 8.9a3.674 3.674 0 01.684.065.263.263 0 00.049 0 .219.219 0 00.223-.177 10.979 10.979 0 019.1-8.66A11.284 11.284 0 0119.289 0a10.889 10.889 0 014.569.993 3.917 3.917 0 001.631.357A3.871 3.871 0 0027.12.994 11.016 11.016 0 0131.708 0a11.428 11.428 0 011.666.123 10.979 10.979 0 019.1 8.66.212.212 0 00.214.179.261.261 0 00.049 0 3.609 3.609 0 012.021.2A10 10 0 0151 18.354v1.136a9.912 9.912 0 01-6.207 9.193 3.634 3.634 0 01-1.353.262 3.556 3.556 0 01-1.226-.222.21.21 0 00-.079-.016.223.223 0 00-.215.262 3.517 3.517 0 01.008 1.3A16.669 16.669 0 0125.5 44zM12.542 29.127a.506.506 0 00-.389.183.513.513 0 00-.113.421 13.657 13.657 0 0026.88 0 .517.517 0 00-.112-.423.507.507 0 00-.389-.181H12.542zm6.722-26.089a8.276 8.276 0 00-1.233.093 7.955 7.955 0 00-3.047 14.579.514.514 0 01.239.355.5.5 0 01-.12.4 13.5 13.5 0 00-3.223 7.723.524.524 0 00.133.4.494.494 0 00.368.159h26.2a.492.492 0 00.364-.162.523.523 0 00.137-.395 13.459 13.459 0 00-3.223-7.723.5.5 0 01-.12-.4.514.514 0 01.239-.355 7.936 7.936 0 003.637-7.667 8.03 8.03 0 00-6.684-6.912 8.494 8.494 0 00-1.225-.09 7.913 7.913 0 00-3.319.717 6.884 6.884 0 01-2.9.635 6.953 6.953 0 01-2.9-.635 7.891 7.891 0 00-3.323-.722zm24.161 8.9a.518.518 0 00-.356.145.5.5 0 00-.154.362v12.964a.507.507 0 00.507.507.518.518 0 00.195-.038 6.884 6.884 0 004.321-6.38v-1.136a6.89 6.89 0 00-4.321-6.388.509.509 0 00-.192-.038zm-35.878-.011a.516.516 0 00-.194.038 6.906 6.906 0 00-4.321 6.388V19.5a6.883 6.883 0 004.321 6.38.507.507 0 00.191.037.517.517 0 00.356-.145.5.5 0 00.154-.362V12.434a.507.507 0 00-.507-.507zm20.519 7.7a1.581 1.581 0 111.583-1.581 1.584 1.584 0 01-1.582 1.578zm-5.172 0a1.581 1.581 0 111.583-1.581 1.584 1.584 0 01-1.583 1.578zm9.35-7.611H18.716a1.327 1.327 0 110-2.653h13.528a1.327 1.327 0 110 2.653z" fill="#fff"/></svg>